<svg width="36" height="37" viewBox="0 0 36 37" fill="none" xmlns="http://www.w3.org/2000/svg">
<path d="M33.5704 18.2128C33.5704 26.8605 26.5598 33.879 17.9042 33.879C9.24865 33.879 2.23804 26.8605 2.23804 18.2128C2.23804 9.55724 9.24865 2.54663 17.9042 2.54663C26.5598 2.54663 33.5704 9.55724 33.5704 18.2128Z" fill="#283544"/>
<path d="M25.2472 14.2485C25.1617 14.2984 23.1266 15.3508 23.1266 17.6844C23.2226 20.3457 25.6948 21.2789 25.7372 21.2789C25.6948 21.3288 25.364 22.5503 24.384 23.8308C23.6062 24.9337 22.743 26.0458 21.4321 26.0458C20.1852 26.0458 19.7376 25.3107 18.2989 25.3107C16.7538 25.3107 16.3166 26.0458 15.1337 26.0458C13.8228 26.0458 12.8956 24.8742 12.0755 23.7815C11.01 22.3515 10.1044 20.1073 10.0724 17.9525C10.0508 16.8107 10.2858 15.6883 10.8821 14.7349C11.7238 13.4039 13.2265 12.5004 14.8675 12.4706C16.1248 12.4311 17.2438 13.275 18.0111 13.275C18.7465 13.275 20.1213 12.4706 21.6768 12.4706C22.3482 12.4713 24.1386 12.6597 25.2472 14.2485ZM17.9048 12.2426C17.681 11.1999 18.2989 10.1572 18.8744 9.49199C19.6097 8.68759 20.7712 8.1416 21.7727 8.1416C21.8366 9.18435 21.4314 10.207 20.7072 10.9518C20.0573 11.7562 18.9383 12.3618 17.9048 12.2426Z" fill="white"/>
</svg>
