<svg width="501" height="363" viewBox="0 0 501 363" fill="none" xmlns="http://www.w3.org/2000/svg">
<rect x="0.5" width="500" height="363" rx="24" fill="#F4F2F0"/>
<path fill-rule="evenodd" clip-rule="evenodd" d="M395.897 173.447C395.582 173.59 395.316 173.821 395.128 174.111L392.489 178.194C391.787 179.279 390.135 179.036 389.775 177.796L386.062 165.008C385.866 164.33 386.155 163.697 386.649 163.351C386.866 163.168 387.131 163.05 387.413 163.013C387.694 162.976 387.981 163.02 388.238 163.14L400.347 168.678C401.522 169.215 401.521 170.884 400.345 171.42L395.897 173.447Z" fill="#08A105"/>
<path d="M413.968 173.885H405.991C400.16 173.885 395.433 178.612 395.433 184.442C395.433 190.273 400.16 195 405.991 195H413.968C419.799 195 424.526 190.273 424.526 184.442C424.526 178.612 419.799 173.885 413.968 173.885Z" fill="#08A105"/>
<path d="M403.462 180.897C403.966 181.858 404.465 182.822 404.959 183.788H404.968C405.466 182.846 405.873 182.033 406.446 180.897H407.767L405.522 184.897V187.492H404.349V184.897L402.123 180.897H403.462ZM409.599 187.63C408.195 187.63 407.114 186.624 407.114 185.1C407.114 183.585 408.195 182.588 409.599 182.588C411.003 182.588 412.075 183.585 412.075 185.1C412.075 186.624 411.003 187.63 409.599 187.63ZM408.223 185.1C408.223 185.987 408.768 186.716 409.599 186.716C410.43 186.716 410.975 185.987 410.975 185.1C410.975 184.213 410.43 183.483 409.599 183.483C408.768 183.483 408.223 184.213 408.223 185.1ZM412.866 185.663V182.717H413.993V185.414C413.993 186.125 414.206 186.642 414.88 186.642C415.536 186.642 415.998 186.07 415.998 184.897V182.717H417.125V187.492H416.016V186.661C415.757 187.206 415.323 187.622 414.584 187.622C413.347 187.622 412.866 186.799 412.866 185.663Z" fill="white"/>
<rect x="40.4817" y="54.2019" width="419.037" height="234.083" rx="11.078" fill="white"/>
<rect x="40.4817" y="54.2019" width="419.037" height="234.083" rx="11.078" stroke="#D0D5DD" stroke-width="0.963303"/>
<path fill-rule="evenodd" clip-rule="evenodd" d="M63.9428 127.587C65.3347 134.585 68.4464 141.103 72.9702 146.565C74.3858 148.275 76.9468 148.264 78.5162 146.694C80.0856 145.125 80.0646 142.593 78.6852 140.854C73.9715 134.913 71.1563 127.397 71.1563 119.224C71.1563 99.9885 86.75 84.3949 105.986 84.3949C125.221 84.3949 140.815 99.9885 140.815 119.224C140.815 127.397 138 134.913 133.287 140.854C131.907 142.593 131.886 145.125 133.456 146.694C135.025 148.264 137.587 148.275 139.002 146.565C143.526 141.102 146.638 134.585 148.029 127.587C149.683 119.272 148.835 110.653 145.59 102.82C142.346 94.987 136.851 88.2921 129.802 83.5818C122.752 78.8715 114.464 76.3574 105.986 76.3574C97.5078 76.3574 89.22 78.8715 82.1705 83.5818C75.1211 88.2921 69.6267 94.987 66.3822 102.82C63.1377 110.653 62.2888 119.272 63.9428 127.587Z" fill="#DDE1E6"/>
<path fill-rule="evenodd" clip-rule="evenodd" d="M66.2677 135.35C67.9192 139.417 70.1825 143.2 72.9729 146.569C74.3871 148.276 76.9455 148.265 78.5133 146.697C80.081 145.129 80.06 142.6 78.6829 140.863C77.0085 138.75 75.5834 136.448 74.4378 134.002C73.492 131.987 72.7336 129.866 72.1852 127.661C71.4583 124.749 71.1091 121.749 71.1516 118.734C71.1891 116.069 71.5322 113.424 72.1699 110.849C72.7298 108.581 73.5119 106.4 74.4919 104.332C76.3418 100.419 78.9059 96.8833 82.055 93.9067C84.7803 91.3306 87.8994 89.2155 91.2889 87.6384C93.2137 86.7412 95.2341 86.0149 97.3306 85.4788C100.629 84.6327 104.041 84.2732 107.457 84.4174C109.985 84.5242 112.487 84.9059 114.921 85.5516C116.742 86.0336 118.504 86.6593 120.196 87.416C120.427 87.5193 120.657 87.6253 120.887 87.7337C123.884 89.1521 126.658 90.9882 129.126 93.1819C130.784 94.6545 133.308 94.8178 134.961 93.3408C136.615 91.8637 136.77 89.31 135.144 87.8019C131.938 84.8265 128.289 82.3539 124.321 80.4762C119.14 78.025 113.521 76.6375 107.795 76.3956C102.07 76.1537 96.3534 77.0624 90.9849 79.068C85.6163 81.0735 80.7044 84.1351 76.5396 88.0718C72.3748 92.0085 69.0417 96.7404 66.7373 101.988C64.4329 107.235 63.204 112.891 63.1234 118.621C63.0427 124.351 64.1119 130.04 66.2677 135.35Z" fill="#05A105"/>
<path d="M101.534 151.457H102.008V154.053H101.816C100.958 154.053 100.194 154.181 99.5246 154.437C98.8548 154.693 98.2866 155.058 97.82 155.532C97.3609 155.999 97.0072 156.563 96.7588 157.225C96.518 157.888 96.3976 158.629 96.3976 159.449V162.181C96.3976 162.768 96.454 163.287 96.5669 163.739C96.6873 164.183 96.8567 164.555 97.0749 164.857C97.3007 165.15 97.5641 165.372 97.8651 165.523C98.1662 165.666 98.5048 165.737 98.8811 165.737C99.2348 165.737 99.5547 165.662 99.8407 165.511C100.134 165.361 100.383 165.15 100.586 164.879C100.796 164.601 100.954 164.277 101.06 163.908C101.173 163.532 101.229 163.122 101.229 162.678C101.229 162.234 101.173 161.824 101.06 161.447C100.954 161.071 100.796 160.747 100.586 160.476C100.375 160.198 100.119 159.984 99.8181 159.833C99.517 159.683 99.1784 159.607 98.8021 159.607C98.2903 159.607 97.8388 159.728 97.4474 159.968C97.0636 160.202 96.7626 160.503 96.5443 160.872C96.3261 161.24 96.2095 161.628 96.1944 162.034L95.2123 161.402C95.2349 160.823 95.3553 160.273 95.5735 159.754C95.7993 159.235 96.1079 158.776 96.4992 158.377C96.8981 157.97 97.376 157.654 97.9329 157.429C98.4898 157.195 99.1182 157.079 99.8181 157.079C100.586 157.079 101.259 157.225 101.839 157.519C102.426 157.812 102.915 158.215 103.306 158.727C103.698 159.238 103.991 159.829 104.187 160.499C104.382 161.169 104.48 161.884 104.48 162.644C104.48 163.442 104.349 164.183 104.085 164.868C103.829 165.553 103.457 166.151 102.968 166.663C102.486 167.174 101.906 167.573 101.229 167.859C100.552 168.145 99.7917 168.288 98.9488 168.288C98.0758 168.288 97.2819 168.13 96.5669 167.814C95.8595 167.491 95.2499 167.039 94.7382 166.46C94.2264 165.88 93.8313 165.191 93.5528 164.394C93.2819 163.596 93.1464 162.723 93.1464 161.775V160.51C93.1464 159.186 93.3384 157.974 93.7222 156.875C94.1135 155.769 94.6742 154.813 95.4042 154.008C96.1342 153.195 97.0147 152.567 98.0457 152.123C99.0768 151.679 100.24 151.457 101.534 151.457ZM117.586 151.626V153.376L111.231 168.062H107.799L114.155 154.166H105.97V151.626H117.586Z" fill="#05A105"/>
<rect x="170.046" y="86.4722" width="257.202" height="11.5596" rx="5.77982" fill="#DDE1E6"/>
<rect x="170.046" y="105.738" width="257.202" height="11.5596" rx="5.77982" fill="#DDE1E6"/>
<rect x="170.046" y="125.004" width="257.202" height="11.5596" rx="5.77982" fill="#DDE1E6"/>
<rect x="170.046" y="144.27" width="189.771" height="11.5596" rx="5.77982" fill="#DDE1E6"/>
<circle cx="68.899" cy="190.509" r="5.77982" fill="#D9D9D9"/>
<rect x="84.3115" y="184.729" width="352.569" height="11.5596" rx="5.77982" fill="#DDE1E6"/>
<rect x="84.3115" y="207.849" width="312.11" height="11.5596" rx="5.77982" fill="#DDE1E6"/>
<circle cx="68.899" cy="236.748" r="5.77982" fill="#D9D9D9"/>
<rect x="84.3115" y="230.968" width="352.569" height="11.5596" rx="5.77982" fill="#DDE1E6"/>
<rect x="84.3115" y="254.087" width="275.505" height="11.5596" rx="5.77982" fill="#DDE1E6"/>
</svg>
