<svg width="501" height="363" viewBox="0 0 501 363" fill="none" xmlns="http://www.w3.org/2000/svg">
<g clip-path="url(#clip0_130_951)">
<rect x="0.5" width="500" height="363" rx="24" fill="#F4F2F0"/>
<path d="M54.7118 78.3818C54.1501 78.3818 53.6372 78.2448 53.1729 77.9709C52.7087 77.6924 52.3373 77.321 52.0588 76.8568C51.7849 76.3926 51.648 75.8796 51.648 75.3179C51.648 74.7515 51.7849 74.2386 52.0588 73.779C52.3373 73.3148 52.7087 72.9457 53.1729 72.6718C53.6372 72.3933 54.1501 72.254 54.7118 72.254C55.2782 72.254 55.7912 72.3933 56.2507 72.6718C56.715 72.9457 57.084 73.3148 57.3579 73.779C57.6364 74.2386 57.7757 74.7515 57.7757 75.3179C57.7757 75.8796 57.6364 76.3926 57.3579 76.8568C57.084 77.321 56.715 77.6924 56.2507 77.9709C55.7912 78.2448 55.2782 78.3818 54.7118 78.3818ZM73.1316 66.739V81H70.98V66.739H73.1316ZM78.1801 74.6494V81H76.098V70.3043H78.0965V72.0451H78.2288C78.4749 71.4788 78.8602 71.0238 79.3847 70.6803C79.914 70.3368 80.5801 70.165 81.3832 70.165C82.1121 70.165 82.7504 70.3182 83.2981 70.6246C83.8459 70.9263 84.2707 71.3766 84.5724 71.9755C84.8742 72.5743 85.0251 73.3148 85.0251 74.1968V81H82.943V74.4475C82.943 73.6722 82.7411 73.0664 82.3372 72.63C81.9333 72.189 81.3786 71.9685 80.673 71.9685C80.1902 71.9685 79.7608 72.073 79.3847 72.2819C79.0134 72.4908 78.7186 72.7972 78.5004 73.201C78.2869 73.6003 78.1801 74.0831 78.1801 74.6494ZM92.8101 70.3043V71.9755H86.9678V70.3043H92.8101ZM88.5346 67.7418H90.6166V77.8595C90.6166 78.2634 90.677 78.5675 90.7977 78.7717C90.9184 78.9713 91.0739 79.1083 91.2642 79.1826C91.4592 79.2522 91.6704 79.287 91.8979 79.287C92.065 79.287 92.2112 79.2754 92.3366 79.2522C92.4619 79.229 92.5594 79.2104 92.629 79.1965L93.0051 80.9164C92.8844 80.9629 92.7126 81.0093 92.4898 81.0557C92.267 81.1068 91.9884 81.1346 91.6542 81.1393C91.1064 81.1486 90.5957 81.0511 90.1222 80.8468C89.6487 80.6425 89.2657 80.3269 88.9733 79.8998C88.6808 79.4727 88.5346 78.9365 88.5346 78.2913V67.7418ZM99.6081 81.2159C98.5543 81.2159 97.6467 80.9907 96.8854 80.5404C96.1287 80.0855 95.5438 79.4472 95.1306 78.6255C94.7221 77.7992 94.5179 76.8313 94.5179 75.7218C94.5179 74.6262 94.7221 73.6606 95.1306 72.825C95.5438 71.9894 96.1194 71.3372 96.8575 70.8683C97.6003 70.3995 98.4684 70.165 99.4618 70.165C100.065 70.165 100.65 70.2648 101.217 70.4644C101.783 70.6641 102.291 70.9774 102.742 71.4045C103.192 71.8316 103.547 72.3863 103.807 73.0687C104.067 73.7465 104.197 74.5705 104.197 75.5407V76.2788H95.6947V74.7191H102.157C102.157 74.1713 102.045 73.6862 101.822 73.2637C101.6 72.8366 101.286 72.5001 100.882 72.254C100.483 72.008 100.014 71.885 99.4758 71.885C98.8908 71.885 98.3802 72.0289 97.9438 72.3167C97.5121 72.5999 97.1779 72.9713 96.9411 73.4308C96.709 73.8858 96.5929 74.3802 96.5929 74.914V76.1326C96.5929 76.8475 96.7183 77.4557 96.969 77.957C97.2243 78.4584 97.5794 78.8414 98.0343 79.106C98.4893 79.3659 99.0208 79.4959 99.629 79.4959C100.024 79.4959 100.383 79.4402 100.708 79.3288C101.033 79.2127 101.314 79.041 101.551 78.8135C101.788 78.586 101.969 78.3052 102.094 77.9709L104.065 78.3261C103.907 78.9064 103.624 79.4147 103.215 79.851C102.811 80.2828 102.303 80.6193 101.69 80.8607C101.082 81.0975 100.388 81.2159 99.6081 81.2159ZM106.507 81V70.3043H108.519V72.0033H108.631C108.826 71.4277 109.169 70.9751 109.661 70.6455C110.158 70.3112 110.72 70.1441 111.347 70.1441C111.477 70.1441 111.63 70.1488 111.806 70.1581C111.987 70.1673 112.129 70.1789 112.231 70.1929V72.1844C112.147 72.1612 111.999 72.1356 111.785 72.1078C111.572 72.0753 111.358 72.0591 111.145 72.0591C110.653 72.0591 110.214 72.1635 109.829 72.3724C109.448 72.5767 109.146 72.8622 108.923 73.2289C108.7 73.591 108.589 74.0041 108.589 74.4684V81H106.507ZM123.508 70.3043L119.629 81H117.401L113.516 70.3043H115.751L118.46 78.535H118.571L121.273 70.3043H123.508ZM125.465 81V70.3043H127.547V81H125.465ZM126.516 68.654C126.154 68.654 125.843 68.5333 125.583 68.2919C125.328 68.0458 125.2 67.7534 125.2 67.4145C125.2 67.071 125.328 66.7785 125.583 66.5371C125.843 66.2911 126.154 66.1681 126.516 66.1681C126.878 66.1681 127.187 66.2911 127.442 66.5371C127.702 66.7785 127.832 67.071 127.832 67.4145C127.832 67.7534 127.702 68.0458 127.442 68.2919C127.187 68.5333 126.878 68.654 126.516 68.654ZM134.958 81.2159C133.904 81.2159 132.996 80.9907 132.235 80.5404C131.478 80.0855 130.893 79.4472 130.48 78.6255C130.072 77.7992 129.867 76.8313 129.867 75.7218C129.867 74.6262 130.072 73.6606 130.48 72.825C130.893 71.9894 131.469 71.3372 132.207 70.8683C132.95 70.3995 133.818 70.165 134.811 70.165C135.415 70.165 136 70.2648 136.566 70.4644C137.132 70.6641 137.641 70.9774 138.091 71.4045C138.541 71.8316 138.896 72.3863 139.156 73.0687C139.416 73.7465 139.546 74.5705 139.546 75.5407V76.2788H131.044V74.7191H137.506C137.506 74.1713 137.395 73.6862 137.172 73.2637C136.949 72.8366 136.636 72.5001 136.232 72.254C135.833 72.008 135.364 71.885 134.825 71.885C134.24 71.885 133.73 72.0289 133.293 72.3167C132.862 72.5999 132.527 72.9713 132.291 73.4308C132.058 73.8858 131.942 74.3802 131.942 74.914V76.1326C131.942 76.8475 132.068 77.4557 132.318 77.957C132.574 78.4584 132.929 78.8414 133.384 79.106C133.839 79.3659 134.37 79.4959 134.978 79.4959C135.373 79.4959 135.733 79.4402 136.058 79.3288C136.383 79.2127 136.664 79.041 136.9 78.8135C137.137 78.586 137.318 78.3052 137.443 77.9709L139.414 78.3261C139.256 78.9064 138.973 79.4147 138.565 79.851C138.161 80.2828 137.652 80.6193 137.04 80.8607C136.431 81.0975 135.737 81.2159 134.958 81.2159ZM144.156 81L141.009 70.3043H143.16L145.256 78.159H145.361L147.464 70.3043H149.615L151.704 78.1241H151.809L153.891 70.3043H156.043L152.902 81H150.778L148.606 73.2776H148.446L146.273 81H144.156ZM162.303 81.2159C161.249 81.2159 160.341 80.9907 159.58 80.5404C158.823 80.0855 158.238 79.4472 157.825 78.6255C157.417 77.7992 157.212 76.8313 157.212 75.7218C157.212 74.6262 157.417 73.6606 157.825 72.825C158.238 71.9894 158.814 71.3372 159.552 70.8683C160.295 70.3995 161.163 70.165 162.156 70.165C162.76 70.165 163.345 70.2648 163.911 70.4644C164.478 70.6641 164.986 70.9774 165.436 71.4045C165.886 71.8316 166.242 72.3863 166.502 73.0687C166.762 73.7465 166.891 74.5705 166.891 75.5407V76.2788H158.389V74.7191H164.851C164.851 74.1713 164.74 73.6862 164.517 73.2637C164.294 72.8366 163.981 72.5001 163.577 72.254C163.178 72.008 162.709 71.885 162.17 71.885C161.585 71.885 161.075 72.0289 160.638 72.3167C160.207 72.5999 159.872 72.9713 159.636 73.4308C159.404 73.8858 159.288 74.3802 159.288 74.914V76.1326C159.288 76.8475 159.413 77.4557 159.664 77.957C159.919 78.4584 160.274 78.8414 160.729 79.106C161.184 79.3659 161.715 79.4959 162.324 79.4959C162.718 79.4959 163.078 79.4402 163.403 79.3288C163.728 79.2127 164.009 79.041 164.245 78.8135C164.482 78.586 164.663 78.3052 164.789 77.9709L166.759 78.3261C166.601 78.9064 166.318 79.4147 165.91 79.851C165.506 80.2828 164.997 80.6193 164.385 80.8607C163.777 81.0975 163.083 81.2159 162.303 81.2159ZM169.202 81V70.3043H171.214V72.0033H171.325C171.52 71.4277 171.864 70.9751 172.356 70.6455C172.853 70.3112 173.414 70.1441 174.041 70.1441C174.171 70.1441 174.324 70.1488 174.501 70.1581C174.682 70.1673 174.823 70.1789 174.925 70.1929V72.1844C174.842 72.1612 174.693 72.1356 174.48 72.1078C174.266 72.0753 174.053 72.0591 173.839 72.0591C173.347 72.0591 172.908 72.1635 172.523 72.3724C172.142 72.5767 171.841 72.8622 171.618 73.2289C171.395 73.591 171.284 74.0041 171.284 74.4684V81H169.202ZM182.084 81V66.739H184.166V72.0382H184.291C184.412 71.8153 184.586 71.5577 184.813 71.2652C185.041 70.9728 185.357 70.7174 185.76 70.4993C186.164 70.2764 186.698 70.165 187.362 70.165C188.225 70.165 188.996 70.3832 189.674 70.8196C190.352 71.2559 190.883 71.885 191.268 72.7066C191.658 73.5283 191.853 74.5171 191.853 75.673C191.853 76.8289 191.661 77.8201 191.275 78.6464C190.89 79.4681 190.361 80.1017 189.688 80.5474C189.015 80.9884 188.246 81.2089 187.383 81.2089C186.733 81.2089 186.201 81.0998 185.788 80.8816C185.38 80.6634 185.059 80.4081 184.827 80.1157C184.595 79.8232 184.417 79.5632 184.291 79.3358H184.117V81H182.084ZM184.124 75.6521C184.124 76.4042 184.233 77.0634 184.451 77.6297C184.67 78.1961 184.985 78.6394 185.398 78.9597C185.812 79.2754 186.318 79.4332 186.916 79.4332C187.538 79.4332 188.058 79.2684 188.476 78.9388C188.894 78.6046 189.21 78.152 189.423 77.581C189.641 77.01 189.75 76.367 189.75 75.6521C189.75 74.9465 189.644 74.3129 189.43 73.7511C189.221 73.1894 188.906 72.7461 188.483 72.4211C188.065 72.0962 187.543 71.9337 186.916 71.9337C186.313 71.9337 185.802 72.0892 185.384 72.4003C184.971 72.7113 184.658 73.1453 184.444 73.7024C184.231 74.2595 184.124 74.9094 184.124 75.6521ZM197.304 81.2368C196.626 81.2368 196.013 81.1114 195.466 80.8607C194.918 80.6054 194.484 80.2364 194.163 79.7536C193.848 79.2708 193.69 78.6789 193.69 77.9779C193.69 77.3744 193.806 76.8777 194.038 76.4877C194.27 76.0978 194.584 75.7891 194.978 75.5616C195.373 75.3341 195.814 75.1624 196.301 75.0463C196.789 74.9303 197.285 74.8421 197.791 74.7817C198.432 74.7074 198.952 74.6471 199.351 74.6007C199.75 74.5496 200.041 74.4684 200.222 74.357C200.403 74.2455 200.493 74.0645 200.493 73.8138V73.7651C200.493 73.1569 200.321 72.6858 199.978 72.3515C199.639 72.0173 199.133 71.8501 198.46 71.8501C197.759 71.8501 197.206 72.0057 196.803 72.3167C196.403 72.6231 196.127 72.9643 195.974 73.3403L194.017 72.8947C194.249 72.2447 194.588 71.7202 195.034 71.3209C195.484 70.9171 196.002 70.6246 196.587 70.4436C197.172 70.2579 197.787 70.165 198.432 70.165C198.859 70.165 199.312 70.2161 199.79 70.3182C200.273 70.4157 200.723 70.5967 201.141 70.8614C201.563 71.126 201.909 71.5043 202.178 71.9964C202.448 72.4838 202.582 73.1175 202.582 73.8974V81H200.549V79.5377H200.465C200.331 79.8069 200.129 80.0716 199.86 80.3315C199.59 80.5915 199.244 80.8073 198.822 80.9791C198.4 81.1509 197.894 81.2368 197.304 81.2368ZM197.757 79.5655C198.332 79.5655 198.824 79.4518 199.233 79.2243C199.646 78.9969 199.959 78.6998 200.173 78.333C200.391 77.9617 200.5 77.5647 200.5 77.1423V75.7636C200.426 75.8378 200.282 75.9075 200.068 75.9725C199.86 76.0328 199.62 76.0862 199.351 76.1326C199.082 76.1744 198.82 76.2139 198.564 76.251C198.309 76.2835 198.095 76.3113 197.924 76.3346C197.52 76.3856 197.151 76.4715 196.817 76.5922C196.487 76.7129 196.222 76.887 196.023 77.1144C195.828 77.3373 195.73 77.6344 195.73 78.0058C195.73 78.521 195.921 78.911 196.301 79.1756C196.682 79.4356 197.167 79.5655 197.757 79.5655ZM209.861 81.2159C208.825 81.2159 207.934 80.9814 207.187 80.5126C206.444 80.0391 205.873 79.3868 205.474 78.5559C205.074 77.7249 204.875 76.7732 204.875 75.7009C204.875 74.6146 205.079 73.656 205.488 72.825C205.896 71.9894 206.472 71.3372 207.215 70.8683C207.957 70.3995 208.832 70.165 209.84 70.165C210.652 70.165 211.376 70.3159 212.012 70.6176C212.648 70.9147 213.161 71.3325 213.551 71.871C213.946 72.4095 214.18 73.0386 214.255 73.7581H212.228C212.117 73.2567 211.861 72.825 211.462 72.4629C211.068 72.1008 210.538 71.9198 209.875 71.9198C209.294 71.9198 208.786 72.073 208.35 72.3794C207.918 72.6811 207.581 73.1128 207.34 73.6745C207.098 74.2316 206.978 74.8908 206.978 75.6521C206.978 76.432 207.096 77.1052 207.333 77.6715C207.57 78.2379 207.904 78.6766 208.336 78.9876C208.772 79.2986 209.285 79.4541 209.875 79.4541C210.269 79.4541 210.627 79.3822 210.947 79.2383C211.272 79.0897 211.543 78.8785 211.762 78.6046C211.984 78.3307 212.14 78.0011 212.228 77.6158H214.255C214.18 78.3075 213.955 78.9249 213.579 79.4681C213.203 80.0112 212.699 80.4383 212.068 80.7493C211.441 81.0603 210.706 81.2159 209.861 81.2159ZM218.396 77.3721L218.382 74.8305H218.744L223.006 70.3043H225.499L220.638 75.4572H220.311L218.396 77.3721ZM216.481 81V66.739H218.563V81H216.481ZM223.235 81L219.406 75.9167L220.84 74.4614L225.791 81H223.235ZM231.44 85.2337C230.591 85.2337 229.859 85.1223 229.247 84.8995C228.638 84.6767 228.142 84.3819 227.756 84.0151C227.371 83.6484 227.083 83.2468 226.893 82.8105L228.683 82.0724C228.808 82.2766 228.975 82.4925 229.184 82.7199C229.397 82.9521 229.685 83.1494 230.047 83.3118C230.414 83.4743 230.885 83.5556 231.461 83.5556C232.25 83.5556 232.902 83.3629 233.418 82.9776C233.933 82.5969 234.191 81.9888 234.191 81.1532V79.0503H234.058C233.933 79.2777 233.752 79.5307 233.515 79.8093C233.283 80.0878 232.963 80.3292 232.554 80.5335C232.146 80.7377 231.614 80.8398 230.96 80.8398C230.115 80.8398 229.353 80.6425 228.676 80.248C228.002 79.8487 227.469 79.2615 227.074 78.4862C226.684 77.7063 226.489 76.7477 226.489 75.6104C226.489 74.473 226.682 73.4981 227.067 72.6858C227.457 71.8734 227.991 71.2513 228.669 70.8196C229.346 70.3832 230.115 70.165 230.974 70.165C231.637 70.165 232.174 70.2764 232.582 70.4993C232.991 70.7174 233.309 70.9728 233.536 71.2652C233.768 71.5577 233.947 71.8153 234.072 72.0382H234.225V70.3043H236.266V81.2368C236.266 82.1559 236.052 82.9103 235.625 83.4998C235.198 84.0894 234.62 84.5258 233.891 84.809C233.167 85.0921 232.35 85.2337 231.44 85.2337ZM231.419 79.1129C232.018 79.1129 232.524 78.9737 232.937 78.6951C233.355 78.412 233.671 78.0081 233.884 77.4835C234.102 76.9543 234.211 76.3206 234.211 75.5825C234.211 74.863 234.105 74.2293 233.891 73.6815C233.678 73.1337 233.364 72.7066 232.951 72.4003C232.538 72.0892 232.027 71.9337 231.419 71.9337C230.792 71.9337 230.27 72.0962 229.852 72.4211C229.435 72.7415 229.119 73.1778 228.905 73.7303C228.697 74.2827 228.592 74.9001 228.592 75.5825C228.592 76.2835 228.699 76.8986 228.912 77.4278C229.126 77.957 229.442 78.3702 229.859 78.6673C230.282 78.9644 230.802 79.1129 231.419 79.1129ZM239.058 81V70.3043H241.07V72.0033H241.182C241.377 71.4277 241.72 70.9751 242.212 70.6455C242.709 70.3112 243.271 70.1441 243.898 70.1441C244.027 70.1441 244.181 70.1488 244.357 70.1581C244.538 70.1673 244.68 70.1789 244.782 70.1929V72.1844C244.698 72.1612 244.55 72.1356 244.336 72.1078C244.123 72.0753 243.909 72.0591 243.696 72.0591C243.203 72.0591 242.765 72.1635 242.379 72.3724C241.999 72.5767 241.697 72.8622 241.474 73.2289C241.251 73.591 241.14 74.0041 241.14 74.4684V81H239.058ZM250.706 81.2159C249.703 81.2159 248.828 80.9861 248.081 80.5265C247.333 80.0669 246.753 79.424 246.34 78.5976C245.927 77.7713 245.72 76.8057 245.72 75.7009C245.72 74.5914 245.927 73.6212 246.34 72.7902C246.753 71.9592 247.333 71.314 248.081 70.8544C248.828 70.3948 249.703 70.165 250.706 70.165C251.709 70.165 252.584 70.3948 253.331 70.8544C254.079 71.314 254.659 71.9592 255.072 72.7902C255.485 73.6212 255.692 74.5914 255.692 75.7009C255.692 76.8057 255.485 77.7713 255.072 78.5976C254.659 79.424 254.079 80.0669 253.331 80.5265C252.584 80.9861 251.709 81.2159 250.706 81.2159ZM250.713 79.4681C251.363 79.4681 251.901 79.2963 252.328 78.9528C252.755 78.6092 253.071 78.152 253.275 77.581C253.484 77.01 253.589 76.381 253.589 75.6939C253.589 75.0115 253.484 74.3848 253.275 73.8138C253.071 73.2382 252.755 72.7763 252.328 72.4281C251.901 72.0799 251.363 71.9059 250.713 71.9059C250.058 71.9059 249.515 72.0799 249.083 72.4281C248.656 72.7763 248.338 73.2382 248.129 73.8138C247.925 74.3848 247.823 75.0115 247.823 75.6939C247.823 76.381 247.925 77.01 248.129 77.581C248.338 78.152 248.656 78.6092 249.083 78.9528C249.515 79.2963 250.058 79.4681 250.713 79.4681ZM264.791 76.5643V70.3043H266.88V81H264.833V79.1477H264.721C264.475 79.7187 264.081 80.1946 263.538 80.5752C262.999 80.9513 262.328 81.1393 261.525 81.1393C260.838 81.1393 260.23 80.9884 259.701 80.6866C259.176 80.3803 258.763 79.9276 258.461 79.3288C258.164 78.7299 258.016 77.9895 258.016 77.1075V70.3043H260.098V76.8568C260.098 77.5856 260.3 78.1659 260.704 78.5976C261.107 79.0294 261.632 79.2452 262.277 79.2452C262.667 79.2452 263.055 79.1477 263.44 78.9528C263.83 78.7578 264.153 78.463 264.408 78.0684C264.668 77.6738 264.796 77.1725 264.791 76.5643ZM271.76 74.6494V81H269.678V70.3043H271.676V72.0451H271.808C272.054 71.4788 272.44 71.0238 272.964 70.6803C273.494 70.3368 274.16 70.165 274.963 70.165C275.692 70.165 276.33 70.3182 276.878 70.6246C277.425 70.9263 277.85 71.3766 278.152 71.9755C278.454 72.5743 278.605 73.3148 278.605 74.1968V81H276.523V74.4475C276.523 73.6722 276.321 73.0664 275.917 72.63C275.513 72.189 274.958 71.9685 274.253 71.9685C273.77 71.9685 273.34 72.073 272.964 72.2819C272.593 72.4908 272.298 72.7972 272.08 73.201C271.866 73.6003 271.76 74.0831 271.76 74.6494ZM285.401 81.2089C284.537 81.2089 283.767 80.9884 283.089 80.5474C282.416 80.1017 281.887 79.4681 281.501 78.6464C281.121 77.8201 280.93 76.8289 280.93 75.673C280.93 74.5171 281.123 73.5283 281.508 72.7066C281.898 71.885 282.432 71.2559 283.11 70.8196C283.788 70.3832 284.556 70.165 285.415 70.165C286.079 70.165 286.612 70.2764 287.016 70.4993C287.425 70.7174 287.741 70.9728 287.963 71.2652C288.191 71.5577 288.367 71.8153 288.493 72.0382H288.618V66.739H290.7V81H288.667V79.3358H288.493C288.367 79.5632 288.186 79.8232 287.949 80.1157C287.717 80.4081 287.397 80.6634 286.988 80.8816C286.58 81.0998 286.051 81.2089 285.401 81.2089ZM285.86 79.4332C286.459 79.4332 286.965 79.2754 287.378 78.9597C287.796 78.6394 288.112 78.1961 288.325 77.6297C288.544 77.0634 288.653 76.4042 288.653 75.6521C288.653 74.9094 288.546 74.2595 288.332 73.7024C288.119 73.1453 287.806 72.7113 287.392 72.4003C286.979 72.0892 286.469 71.9337 285.86 71.9337C285.234 71.9337 284.711 72.0962 284.294 72.4211C283.876 72.7461 283.56 73.1894 283.347 73.7511C283.138 74.3129 283.033 74.9465 283.033 75.6521C283.033 76.367 283.14 77.01 283.354 77.581C283.567 78.152 283.883 78.6046 284.301 78.9388C284.723 79.2684 285.243 79.4332 285.86 79.4332Z" fill="#101828"/>
<rect x="40.4063" y="106.406" width="419.687" height="59.1031" rx="15.0249" fill="white"/>
<rect x="40.4063" y="106.406" width="419.687" height="59.1031" rx="15.0249" stroke="#D0D5DD" stroke-width="0.812685"/>
<path d="M72.0584 123.768L84.2487 131.691M72.0584 123.768L59.8682 131.691M72.0584 123.768V131.691M84.2487 131.691V140.224M84.2487 131.691L72.0584 140.224M84.2487 140.224L72.0584 148.148M84.2487 140.224L72.0584 131.691M72.0584 148.148L59.8682 140.224M72.0584 148.148V140.224M59.8682 140.224V131.691M59.8682 140.224L72.0584 131.691M59.8682 131.691L72.0584 140.224" stroke="#101828" stroke-width="2.43806" stroke-linecap="round" stroke-linejoin="round"/>
<path d="M97.8311 141.958V129.282H105.692V130.928H99.7437V134.79H105.129V136.431H99.7437V141.958H97.8311ZM107.532 141.958H105.502L110.063 129.282H112.273L116.835 141.958H114.805L111.221 131.584H111.122L107.532 141.958ZM107.872 136.994H114.458V138.603H107.872V136.994ZM119.736 141.958H117.706L122.268 129.282H124.478L129.039 141.958H127.009L123.425 131.584H123.326L119.736 141.958ZM120.077 136.994H126.663V138.603H120.077V136.994ZM141.101 129.282V141.958H139.344L132.9 132.661H132.783V141.958H130.87V129.282H132.64L139.09 138.591H139.207V129.282H141.101ZM147.729 145.721C146.974 145.721 146.324 145.622 145.779 145.424C145.239 145.226 144.797 144.964 144.455 144.638C144.112 144.312 143.856 143.955 143.687 143.567L145.278 142.911C145.389 143.093 145.538 143.285 145.724 143.487C145.913 143.693 146.169 143.869 146.491 144.013C146.817 144.157 147.236 144.23 147.748 144.23C148.449 144.23 149.029 144.058 149.487 143.716C149.945 143.378 150.174 142.837 150.174 142.094V140.225H150.056C149.945 140.427 149.784 140.652 149.574 140.9C149.367 141.147 149.082 141.362 148.719 141.543C148.356 141.725 147.884 141.816 147.302 141.816C146.551 141.816 145.874 141.64 145.272 141.29C144.673 140.935 144.199 140.413 143.848 139.724C143.501 139.03 143.328 138.178 143.328 137.167C143.328 136.156 143.499 135.29 143.842 134.568C144.189 133.845 144.663 133.292 145.266 132.909C145.868 132.521 146.551 132.327 147.314 132.327C147.904 132.327 148.381 132.426 148.744 132.624C149.107 132.818 149.39 133.045 149.592 133.305C149.798 133.565 149.957 133.794 150.069 133.992H150.205V132.451H152.018V142.168C152.018 142.985 151.829 143.656 151.449 144.18C151.069 144.704 150.556 145.092 149.908 145.344C149.264 145.595 148.538 145.721 147.729 145.721ZM147.71 140.281C148.243 140.281 148.693 140.157 149.06 139.909C149.431 139.658 149.712 139.299 149.902 138.832C150.096 138.362 150.192 137.799 150.192 137.142C150.192 136.503 150.098 135.94 149.908 135.453C149.718 134.966 149.439 134.586 149.072 134.314C148.705 134.037 148.251 133.899 147.71 133.899C147.153 133.899 146.689 134.044 146.318 134.332C145.946 134.617 145.666 135.005 145.476 135.496C145.29 135.987 145.197 136.536 145.197 137.142C145.197 137.766 145.292 138.312 145.482 138.783C145.672 139.253 145.953 139.62 146.324 139.884C146.699 140.149 147.162 140.281 147.71 140.281ZM159.113 141.958V132.451H160.964V141.958H159.113ZM160.048 130.984C159.726 130.984 159.45 130.876 159.219 130.662C158.992 130.443 158.878 130.183 158.878 129.882C158.878 129.577 158.992 129.317 159.219 129.102C159.45 128.883 159.726 128.774 160.048 128.774C160.37 128.774 160.644 128.883 160.871 129.102C161.102 129.317 161.218 129.577 161.218 129.882C161.218 130.183 161.102 130.443 160.871 130.662C160.644 130.876 160.37 130.984 160.048 130.984ZM165.305 136.313V141.958H163.454V132.451H165.23V133.998H165.348C165.567 133.495 165.909 133.09 166.375 132.785C166.846 132.48 167.438 132.327 168.152 132.327C168.8 132.327 169.367 132.463 169.854 132.735C170.341 133.004 170.718 133.404 170.987 133.936C171.255 134.469 171.389 135.127 171.389 135.911V141.958H169.538V136.134C169.538 135.444 169.359 134.906 169 134.518C168.641 134.126 168.148 133.93 167.52 133.93C167.091 133.93 166.71 134.023 166.375 134.209C166.045 134.394 165.783 134.667 165.589 135.026C165.399 135.38 165.305 135.81 165.305 136.313ZM178.309 132.451V133.936H173.116V132.451H178.309ZM174.509 130.173H176.359V139.166C176.359 139.525 176.413 139.796 176.52 139.977C176.627 140.155 176.766 140.276 176.935 140.343C177.108 140.404 177.296 140.435 177.498 140.435C177.647 140.435 177.777 140.425 177.888 140.404C177.999 140.384 178.086 140.367 178.148 140.355L178.482 141.884C178.375 141.925 178.222 141.966 178.024 142.008C177.826 142.053 177.579 142.078 177.281 142.082C176.795 142.09 176.341 142.003 175.92 141.822C175.499 141.64 175.158 141.36 174.898 140.98C174.639 140.6 174.509 140.124 174.509 139.55V130.173ZM184.352 142.15C183.415 142.15 182.608 141.95 181.931 141.549C181.259 141.145 180.739 140.578 180.372 139.847C180.009 139.113 179.827 138.252 179.827 137.266C179.827 136.292 180.009 135.434 180.372 134.691C180.739 133.949 181.251 133.369 181.907 132.952C182.567 132.535 183.339 132.327 184.222 132.327C184.758 132.327 185.278 132.416 185.781 132.593C186.285 132.771 186.737 133.049 187.137 133.429C187.537 133.808 187.853 134.301 188.084 134.908C188.315 135.51 188.431 136.243 188.431 137.105V137.761H180.873V136.375H186.617C186.617 135.888 186.518 135.457 186.32 135.081C186.122 134.702 185.843 134.403 185.484 134.184C185.129 133.965 184.713 133.856 184.234 133.856C183.714 133.856 183.26 133.984 182.872 134.24C182.489 134.491 182.191 134.821 181.981 135.23C181.775 135.634 181.671 136.074 181.671 136.548V137.631C181.671 138.267 181.783 138.807 182.006 139.253C182.233 139.699 182.548 140.039 182.953 140.274C183.357 140.506 183.83 140.621 184.37 140.621C184.721 140.621 185.041 140.572 185.33 140.472C185.618 140.369 185.868 140.217 186.079 140.014C186.289 139.812 186.45 139.563 186.561 139.266L188.313 139.581C188.173 140.097 187.921 140.549 187.558 140.937C187.199 141.32 186.747 141.62 186.202 141.834C185.662 142.045 185.045 142.15 184.352 142.15ZM190.484 141.958V132.451H192.273V133.961H192.372C192.545 133.449 192.851 133.047 193.288 132.754C193.729 132.457 194.229 132.308 194.786 132.308C194.901 132.308 195.038 132.312 195.194 132.321C195.355 132.329 195.481 132.339 195.572 132.352V134.122C195.498 134.101 195.366 134.079 195.176 134.054C194.986 134.025 194.796 134.01 194.606 134.01C194.169 134.01 193.779 134.103 193.436 134.289C193.098 134.471 192.83 134.724 192.632 135.05C192.434 135.372 192.335 135.739 192.335 136.152V141.958H190.484ZM205.596 132.451L202.148 141.958H200.168L196.714 132.451H198.701L201.109 139.767H201.208L203.609 132.451H205.596ZM207.335 141.958V132.451H209.186V141.958H207.335ZM208.27 130.984C207.948 130.984 207.672 130.876 207.441 130.662C207.214 130.443 207.1 130.183 207.1 129.882C207.1 129.577 207.214 129.317 207.441 129.102C207.672 128.883 207.948 128.774 208.27 128.774C208.592 128.774 208.866 128.883 209.093 129.102C209.324 129.317 209.44 129.577 209.44 129.882C209.44 130.183 209.324 130.443 209.093 130.662C208.866 130.876 208.592 130.984 208.27 130.984ZM215.773 142.15C214.837 142.15 214.03 141.95 213.353 141.549C212.681 141.145 212.161 140.578 211.793 139.847C211.43 139.113 211.249 138.252 211.249 137.266C211.249 136.292 211.43 135.434 211.793 134.691C212.161 133.949 212.672 133.369 213.328 132.952C213.989 132.535 214.76 132.327 215.643 132.327C216.18 132.327 216.7 132.416 217.203 132.593C217.707 132.771 218.158 133.049 218.559 133.429C218.959 133.808 219.275 134.301 219.506 134.908C219.737 135.51 219.852 136.243 219.852 137.105V137.761H212.295V136.375H218.039C218.039 135.888 217.94 135.457 217.742 135.081C217.544 134.702 217.265 134.403 216.906 134.184C216.551 133.965 216.134 133.856 215.656 133.856C215.136 133.856 214.682 133.984 214.294 134.24C213.91 134.491 213.613 134.821 213.403 135.23C213.196 135.634 213.093 136.074 213.093 136.548V137.631C213.093 138.267 213.205 138.807 213.427 139.253C213.654 139.699 213.97 140.039 214.375 140.274C214.779 140.506 215.251 140.621 215.792 140.621C216.143 140.621 216.462 140.572 216.751 140.472C217.04 140.369 217.29 140.217 217.5 140.014C217.711 139.812 217.872 139.563 217.983 139.266L219.735 139.581C219.594 140.097 219.343 140.549 218.98 140.937C218.621 141.32 218.169 141.62 217.624 141.834C217.084 142.045 216.467 142.15 215.773 142.15ZM223.95 141.958L221.152 132.451H223.065L224.928 139.433H225.021L226.89 132.451H228.803L230.659 139.402H230.752L232.603 132.451H234.516L231.724 141.958H229.836L227.905 135.094H227.763L225.832 141.958H223.95ZM240.08 142.15C239.143 142.15 238.337 141.95 237.66 141.549C236.987 141.145 236.467 140.578 236.1 139.847C235.737 139.113 235.555 138.252 235.555 137.266C235.555 136.292 235.737 135.434 236.1 134.691C236.467 133.949 236.979 133.369 237.635 132.952C238.295 132.535 239.067 132.327 239.95 132.327C240.487 132.327 241.007 132.416 241.51 132.593C242.013 132.771 242.465 133.049 242.865 133.429C243.266 133.808 243.581 134.301 243.812 134.908C244.044 135.51 244.159 136.243 244.159 137.105V137.761H236.602V136.375H242.346C242.346 135.888 242.247 135.457 242.048 135.081C241.85 134.702 241.572 134.403 241.213 134.184C240.858 133.965 240.441 133.856 239.963 133.856C239.443 133.856 238.989 133.984 238.601 134.24C238.217 134.491 237.92 134.821 237.709 135.23C237.503 135.634 237.4 136.074 237.4 136.548V137.631C237.4 138.267 237.511 138.807 237.734 139.253C237.961 139.699 238.277 140.039 238.681 140.274C239.086 140.506 239.558 140.621 240.099 140.621C240.449 140.621 240.769 140.572 241.058 140.472C241.347 140.369 241.597 140.217 241.807 140.014C242.017 139.812 242.178 139.563 242.29 139.266L244.042 139.581C243.901 140.097 243.649 140.549 243.286 140.937C242.927 141.32 242.476 141.62 241.931 141.834C241.39 142.045 240.773 142.15 240.08 142.15ZM246.213 141.958V132.451H248.001V133.961H248.1C248.274 133.449 248.579 133.047 249.016 132.754C249.458 132.457 249.957 132.308 250.514 132.308C250.63 132.308 250.766 132.312 250.923 132.321C251.084 132.329 251.21 132.339 251.3 132.352V134.122C251.226 134.101 251.094 134.079 250.904 134.054C250.714 134.025 250.525 134.01 250.335 134.01C249.897 134.01 249.507 134.103 249.165 134.289C248.827 134.471 248.558 134.724 248.36 135.05C248.162 135.372 248.063 135.739 248.063 136.152V141.958H246.213Z" fill="#1D3157"/>
<rect x="421.827" y="125.609" width="20.6982" height="20.6982" rx="10.3491" fill="white"/>
<rect x="421.827" y="125.609" width="20.6982" height="20.6982" rx="10.3491" stroke="#D0D5DD" stroke-width="1.08938"/>
<rect x="40.4063" y="175.037" width="419.687" height="59.9838" rx="15.0249" fill="white"/>
<rect x="40.4063" y="175.037" width="419.687" height="59.9838" rx="15.0249" stroke="#32CB84" stroke-width="0.812685"/>
<circle cx="76.9345" cy="205.029" r="17.0664" fill="url(#paint0_linear_130_951)"/>
<path d="M83.2899 210.248L84.048 205.431H79.3056V202.307C79.3056 200.989 79.9668 199.703 82.091 199.703H84.2484V195.602C84.2484 195.602 82.2913 195.277 80.421 195.277C76.5135 195.277 73.9619 197.584 73.9619 201.76V205.431H69.6201V210.248H73.9619V221.893C74.8335 222.027 75.7253 222.095 76.6337 222.095C77.5421 222.095 78.4339 222.027 79.3056 221.893V210.248H83.2899Z" fill="white"/>
<path d="M107.583 198.352H109.904L113.94 208.206H114.088L118.124 198.352H120.445V211.029H118.625V201.856H118.508L114.769 211.01H113.259L109.52 201.85H109.403V211.029H107.583V198.352ZM127.175 211.221C126.238 211.221 125.431 211.021 124.755 210.62C124.082 210.216 123.562 209.649 123.195 208.918C122.832 208.184 122.65 207.323 122.65 206.337C122.65 205.363 122.832 204.505 123.195 203.762C123.562 203.019 124.074 202.44 124.73 202.023C125.39 201.606 126.162 201.398 127.045 201.398C127.581 201.398 128.101 201.486 128.605 201.664C129.108 201.841 129.56 202.12 129.96 202.499C130.36 202.879 130.676 203.372 130.907 203.979C131.138 204.581 131.254 205.314 131.254 206.176V206.832H123.696V205.446H129.44C129.44 204.959 129.341 204.528 129.143 204.152C128.945 203.772 128.667 203.473 128.308 203.255C127.953 203.036 127.536 202.927 127.057 202.927C126.537 202.927 126.083 203.054 125.696 203.31C125.312 203.562 125.015 203.892 124.804 204.301C124.598 204.705 124.495 205.145 124.495 205.619V206.702C124.495 207.338 124.606 207.878 124.829 208.324C125.056 208.77 125.372 209.11 125.776 209.345C126.18 209.576 126.653 209.692 127.193 209.692C127.544 209.692 127.864 209.642 128.153 209.543C128.442 209.44 128.691 209.287 128.902 209.085C129.112 208.883 129.273 208.633 129.385 208.336L131.136 208.652C130.996 209.168 130.744 209.62 130.381 210.008C130.022 210.391 129.57 210.69 129.026 210.905C128.485 211.115 127.868 211.221 127.175 211.221ZM137.745 201.522V203.007H132.552V201.522H137.745ZM133.945 199.244H135.796V208.237C135.796 208.596 135.849 208.867 135.956 209.048C136.064 209.226 136.202 209.347 136.371 209.413C136.544 209.475 136.732 209.506 136.934 209.506C137.083 209.506 137.213 209.496 137.324 209.475C137.436 209.455 137.522 209.438 137.584 209.426L137.919 210.955C137.811 210.996 137.659 211.037 137.461 211.078C137.262 211.124 137.015 211.148 136.718 211.153C136.231 211.161 135.777 211.074 135.356 210.893C134.935 210.711 134.595 210.43 134.335 210.051C134.075 209.671 133.945 209.195 133.945 208.621V199.244ZM142.559 211.239C141.957 211.239 141.412 211.128 140.925 210.905C140.438 210.678 140.052 210.35 139.768 209.921C139.487 209.492 139.347 208.966 139.347 208.343C139.347 207.806 139.45 207.365 139.656 207.018C139.863 206.671 140.141 206.397 140.492 206.195C140.843 205.992 141.235 205.84 141.668 205.737C142.101 205.633 142.543 205.555 142.993 205.501C143.562 205.435 144.024 205.382 144.379 205.341C144.734 205.295 144.992 205.223 145.153 205.124C145.314 205.025 145.394 204.864 145.394 204.641V204.598C145.394 204.057 145.241 203.638 144.936 203.341C144.635 203.044 144.185 202.896 143.587 202.896C142.964 202.896 142.473 203.034 142.114 203.31C141.759 203.583 141.513 203.886 141.377 204.22L139.638 203.824C139.844 203.246 140.145 202.78 140.541 202.425C140.942 202.066 141.402 201.806 141.922 201.645C142.442 201.48 142.988 201.398 143.562 201.398C143.942 201.398 144.344 201.443 144.769 201.534C145.198 201.621 145.598 201.781 145.97 202.017C146.345 202.252 146.653 202.588 146.892 203.026C147.131 203.459 147.251 204.022 147.251 204.715V211.029H145.444V209.729H145.369C145.25 209.968 145.07 210.204 144.831 210.435C144.592 210.666 144.284 210.858 143.909 211.01C143.533 211.163 143.083 211.239 142.559 211.239ZM142.962 209.754C143.473 209.754 143.911 209.653 144.274 209.45C144.641 209.248 144.92 208.984 145.109 208.658C145.303 208.328 145.4 207.975 145.4 207.6V206.374C145.334 206.44 145.206 206.502 145.017 206.56C144.831 206.614 144.618 206.661 144.379 206.702C144.14 206.739 143.907 206.774 143.68 206.807C143.453 206.836 143.263 206.861 143.11 206.882C142.751 206.927 142.423 207.003 142.126 207.111C141.833 207.218 141.598 207.373 141.42 207.575C141.247 207.773 141.16 208.037 141.16 208.367C141.16 208.825 141.33 209.172 141.668 209.407C142.006 209.638 142.438 209.754 142.962 209.754ZM154.867 204.691C154.867 203.139 155.072 201.711 155.48 200.407C155.889 199.103 156.485 197.901 157.269 196.799H158.965C158.66 197.207 158.375 197.709 158.111 198.303C157.847 198.897 157.616 199.549 157.418 200.259C157.219 200.964 157.065 201.697 156.953 202.456C156.842 203.211 156.786 203.956 156.786 204.691C156.786 205.673 156.883 206.667 157.077 207.674C157.271 208.681 157.533 209.616 157.863 210.478C158.193 211.34 158.561 212.044 158.965 212.589H157.269C156.485 211.487 155.889 210.284 155.48 208.98C155.072 207.676 154.867 206.246 154.867 204.691ZM161.065 211.029V198.352H168.926V199.999H162.977V203.861H168.362V205.501H162.977V211.029H161.065ZM173.862 211.239C173.259 211.239 172.715 211.128 172.228 210.905C171.741 210.678 171.355 210.35 171.07 209.921C170.79 209.492 170.649 208.966 170.649 208.343C170.649 207.806 170.753 207.365 170.959 207.018C171.165 206.671 171.444 206.397 171.795 206.195C172.145 205.992 172.537 205.84 172.971 205.737C173.404 205.633 173.845 205.555 174.295 205.501C174.865 205.435 175.327 205.382 175.682 205.341C176.037 205.295 176.294 205.223 176.455 205.124C176.616 205.025 176.697 204.864 176.697 204.641V204.598C176.697 204.057 176.544 203.638 176.239 203.341C175.937 203.044 175.488 202.896 174.889 202.896C174.266 202.896 173.775 203.034 173.416 203.31C173.061 203.583 172.816 203.886 172.68 204.22L170.94 203.824C171.147 203.246 171.448 202.78 171.844 202.425C172.244 202.066 172.704 201.806 173.224 201.645C173.744 201.48 174.291 201.398 174.865 201.398C175.244 201.398 175.647 201.443 176.072 201.534C176.501 201.621 176.901 201.781 177.272 202.017C177.648 202.252 177.955 202.588 178.195 203.026C178.434 203.459 178.554 204.022 178.554 204.715V211.029H176.746V209.729H176.672C176.552 209.968 176.373 210.204 176.133 210.435C175.894 210.666 175.587 210.858 175.211 211.01C174.836 211.163 174.386 211.239 173.862 211.239ZM174.264 209.754C174.776 209.754 175.213 209.653 175.576 209.45C175.944 209.248 176.222 208.984 176.412 208.658C176.606 208.328 176.703 207.975 176.703 207.6V206.374C176.637 206.44 176.509 206.502 176.319 206.56C176.133 206.614 175.921 206.661 175.682 206.702C175.442 206.739 175.209 206.774 174.982 206.807C174.755 206.836 174.565 206.861 174.413 206.882C174.054 206.927 173.726 207.003 173.429 207.111C173.136 207.218 172.9 207.373 172.723 207.575C172.55 207.773 172.463 208.037 172.463 208.367C172.463 208.825 172.632 209.172 172.971 209.407C173.309 209.638 173.74 209.754 174.264 209.754ZM185.023 211.221C184.103 211.221 183.311 211.012 182.647 210.596C181.986 210.175 181.479 209.595 181.124 208.856C180.769 208.118 180.592 207.272 180.592 206.318C180.592 205.353 180.773 204.501 181.136 203.762C181.499 203.019 182.011 202.44 182.671 202.023C183.332 201.606 184.109 201.398 185.005 201.398C185.727 201.398 186.371 201.532 186.936 201.8C187.501 202.064 187.957 202.436 188.304 202.914C188.655 203.393 188.863 203.952 188.929 204.592H187.128C187.029 204.146 186.802 203.762 186.447 203.44C186.096 203.118 185.626 202.958 185.036 202.958C184.52 202.958 184.068 203.094 183.68 203.366C183.296 203.634 182.997 204.018 182.783 204.517C182.568 205.012 182.461 205.598 182.461 206.275C182.461 206.968 182.566 207.567 182.777 208.07C182.987 208.574 183.284 208.964 183.668 209.24C184.056 209.516 184.512 209.655 185.036 209.655C185.386 209.655 185.704 209.591 185.989 209.463C186.278 209.331 186.519 209.143 186.713 208.9C186.911 208.656 187.049 208.363 187.128 208.021H188.929C188.863 208.635 188.663 209.184 188.329 209.667C187.994 210.15 187.547 210.53 186.985 210.806C186.428 211.082 185.774 211.221 185.023 211.221ZM195.006 211.221C194.069 211.221 193.262 211.021 192.586 210.62C191.913 210.216 191.393 209.649 191.026 208.918C190.663 208.184 190.481 207.323 190.481 206.337C190.481 205.363 190.663 204.505 191.026 203.762C191.393 203.019 191.905 202.44 192.561 202.023C193.221 201.606 193.993 201.398 194.876 201.398C195.412 201.398 195.932 201.486 196.436 201.664C196.939 201.841 197.391 202.12 197.791 202.499C198.191 202.879 198.507 203.372 198.738 203.979C198.969 204.581 199.085 205.314 199.085 206.176V206.832H191.527V205.446H197.271C197.271 204.959 197.172 204.528 196.974 204.152C196.776 203.772 196.497 203.473 196.138 203.255C195.784 203.036 195.367 202.927 194.888 202.927C194.368 202.927 193.914 203.054 193.526 203.31C193.143 203.562 192.846 203.892 192.635 204.301C192.429 204.705 192.326 205.145 192.326 205.619V206.702C192.326 207.338 192.437 207.878 192.66 208.324C192.887 208.77 193.202 209.11 193.607 209.345C194.011 209.576 194.484 209.692 195.024 209.692C195.375 209.692 195.695 209.642 195.984 209.543C196.273 209.44 196.522 209.287 196.733 209.085C196.943 208.883 197.104 208.633 197.215 208.336L198.967 208.652C198.827 209.168 198.575 209.62 198.212 210.008C197.853 210.391 197.401 210.69 196.856 210.905C196.316 211.115 195.699 211.221 195.006 211.221ZM201.287 211.029V198.352H203.137V203.063H203.249C203.356 202.865 203.511 202.636 203.713 202.376C203.915 202.116 204.196 201.889 204.555 201.695C204.914 201.497 205.388 201.398 205.978 201.398C206.746 201.398 207.431 201.592 208.033 201.98C208.636 202.367 209.108 202.927 209.451 203.657C209.797 204.387 209.971 205.266 209.971 206.294C209.971 207.321 209.799 208.202 209.457 208.937C209.115 209.667 208.644 210.23 208.046 210.626C207.447 211.018 206.765 211.214 205.997 211.214C205.419 211.214 204.947 211.118 204.58 210.924C204.216 210.73 203.932 210.503 203.725 210.243C203.519 209.983 203.36 209.752 203.249 209.549H203.094V211.029H201.287ZM203.1 206.275C203.1 206.944 203.197 207.53 203.391 208.033C203.585 208.536 203.866 208.931 204.233 209.215C204.6 209.496 205.05 209.636 205.582 209.636C206.135 209.636 206.597 209.49 206.969 209.197C207.34 208.9 207.621 208.497 207.811 207.99C208.004 207.482 208.101 206.911 208.101 206.275C208.101 205.648 208.007 205.085 207.817 204.585C207.631 204.086 207.35 203.692 206.975 203.403C206.604 203.114 206.139 202.97 205.582 202.97C205.046 202.97 204.592 203.108 204.221 203.385C203.853 203.661 203.575 204.047 203.385 204.542C203.195 205.037 203.1 205.615 203.1 206.275ZM216.054 211.221C215.162 211.221 214.384 211.016 213.72 210.608C213.056 210.199 212.54 209.628 212.173 208.893C211.805 208.159 211.622 207.301 211.622 206.318C211.622 205.332 211.805 204.47 212.173 203.731C212.54 202.993 213.056 202.419 213.72 202.01C214.384 201.602 215.162 201.398 216.054 201.398C216.945 201.398 217.723 201.602 218.387 202.01C219.051 202.419 219.567 202.993 219.935 203.731C220.302 204.47 220.485 205.332 220.485 206.318C220.485 207.301 220.302 208.159 219.935 208.893C219.567 209.628 219.051 210.199 218.387 210.608C217.723 211.016 216.945 211.221 216.054 211.221ZM216.06 209.667C216.638 209.667 217.116 209.514 217.496 209.209C217.875 208.904 218.156 208.497 218.338 207.99C218.523 207.482 218.616 206.923 218.616 206.312C218.616 205.706 218.523 205.149 218.338 204.641C218.156 204.129 217.875 203.719 217.496 203.409C217.116 203.1 216.638 202.945 216.06 202.945C215.478 202.945 214.995 203.1 214.611 203.409C214.232 203.719 213.949 204.129 213.763 204.641C213.582 205.149 213.491 205.706 213.491 206.312C213.491 206.923 213.582 207.482 213.763 207.99C213.949 208.497 214.232 208.904 214.611 209.209C214.995 209.514 215.478 209.667 216.06 209.667ZM226.556 211.221C225.665 211.221 224.887 211.016 224.222 210.608C223.558 210.199 223.042 209.628 222.675 208.893C222.308 208.159 222.124 207.301 222.124 206.318C222.124 205.332 222.308 204.47 222.675 203.731C223.042 202.993 223.558 202.419 224.222 202.01C224.887 201.602 225.665 201.398 226.556 201.398C227.447 201.398 228.225 201.602 228.889 202.01C229.554 202.419 230.07 202.993 230.437 203.731C230.804 204.47 230.988 205.332 230.988 206.318C230.988 207.301 230.804 208.159 230.437 208.893C230.07 209.628 229.554 210.199 228.889 210.608C228.225 211.016 227.447 211.221 226.556 211.221ZM226.562 209.667C227.14 209.667 227.618 209.514 227.998 209.209C228.378 208.904 228.658 208.497 228.84 207.99C229.026 207.482 229.118 206.923 229.118 206.312C229.118 205.706 229.026 205.149 228.84 204.641C228.658 204.129 228.378 203.719 227.998 203.409C227.618 203.1 227.14 202.945 226.562 202.945C225.98 202.945 225.497 203.1 225.114 203.409C224.734 203.719 224.451 204.129 224.266 204.641C224.084 205.149 223.993 205.706 223.993 206.312C223.993 206.923 224.084 207.482 224.266 207.99C224.451 208.497 224.734 208.904 225.114 209.209C225.497 209.514 225.98 209.667 226.562 209.667ZM234.756 207.804L234.743 205.545H235.065L238.853 201.522H241.069L236.749 206.102H236.458L234.756 207.804ZM233.053 211.029V198.352H234.904V211.029H233.053ZM239.057 211.029L235.653 206.51L236.928 205.217L241.329 211.029H239.057ZM246.315 205.768C246.315 207.323 246.111 208.753 245.702 210.057C245.294 211.361 244.697 212.564 243.913 213.666H242.217C242.523 213.257 242.807 212.756 243.071 212.162C243.336 211.567 243.567 210.917 243.765 210.212C243.963 209.502 244.117 208.768 244.229 208.008C244.34 207.249 244.396 206.502 244.396 205.768C244.396 204.79 244.299 203.797 244.105 202.79C243.911 201.784 243.649 200.849 243.319 199.986C242.989 199.124 242.622 198.42 242.217 197.876H243.913C244.697 198.978 245.294 200.18 245.702 201.484C246.111 202.788 246.315 204.216 246.315 205.768ZM256.017 198.352V211.029H254.104V198.352H256.017ZM260.505 205.384V211.029H258.654V201.522H260.43V203.069H260.548C260.767 202.565 261.109 202.161 261.575 201.856C262.046 201.55 262.638 201.398 263.352 201.398C264 201.398 264.567 201.534 265.054 201.806C265.541 202.074 265.918 202.475 266.187 203.007C266.455 203.539 266.589 204.197 266.589 204.982V211.029H264.738V205.204C264.738 204.515 264.559 203.977 264.2 203.589C263.841 203.197 263.348 203.001 262.72 203.001C262.291 203.001 261.91 203.094 261.575 203.279C261.245 203.465 260.983 203.737 260.789 204.096C260.599 204.451 260.505 204.88 260.505 205.384ZM273.509 201.522V203.007H268.316V201.522H273.509ZM269.709 199.244H271.559V208.237C271.559 208.596 271.613 208.867 271.72 209.048C271.828 209.226 271.966 209.347 272.135 209.413C272.308 209.475 272.496 209.506 272.698 209.506C272.847 209.506 272.977 209.496 273.088 209.475C273.2 209.455 273.286 209.438 273.348 209.426L273.682 210.955C273.575 210.996 273.422 211.037 273.224 211.078C273.026 211.124 272.779 211.148 272.482 211.153C271.995 211.161 271.541 211.074 271.12 210.893C270.699 210.711 270.359 210.43 270.099 210.051C269.839 209.671 269.709 209.195 269.709 208.621V199.244ZM279.552 211.221C278.615 211.221 277.808 211.021 277.132 210.62C276.459 210.216 275.939 209.649 275.572 208.918C275.209 208.184 275.027 207.323 275.027 206.337C275.027 205.363 275.209 204.505 275.572 203.762C275.939 203.019 276.451 202.44 277.107 202.023C277.767 201.606 278.539 201.398 279.422 201.398C279.958 201.398 280.478 201.486 280.981 201.664C281.485 201.841 281.937 202.12 282.337 202.499C282.737 202.879 283.053 203.372 283.284 203.979C283.515 204.581 283.631 205.314 283.631 206.176V206.832H276.073V205.446H281.817C281.817 204.959 281.718 204.528 281.52 204.152C281.322 203.772 281.043 203.473 280.684 203.255C280.33 203.036 279.913 202.927 279.434 202.927C278.914 202.927 278.46 203.054 278.072 203.31C277.689 203.562 277.392 203.892 277.181 204.301C276.975 204.705 276.872 205.145 276.872 205.619V206.702C276.872 207.338 276.983 207.878 277.206 208.324C277.433 208.77 277.748 209.11 278.153 209.345C278.557 209.576 279.03 209.692 279.57 209.692C279.921 209.692 280.241 209.642 280.53 209.543C280.819 209.44 281.068 209.287 281.279 209.085C281.489 208.883 281.65 208.633 281.761 208.336L283.513 208.652C283.373 209.168 283.121 209.62 282.758 210.008C282.399 210.391 281.947 210.69 281.402 210.905C280.862 211.115 280.245 211.221 279.552 211.221ZM285.684 211.029V201.522H287.473V203.032H287.572C287.745 202.52 288.051 202.118 288.488 201.825C288.93 201.528 289.429 201.379 289.986 201.379C290.101 201.379 290.238 201.383 290.394 201.392C290.555 201.4 290.681 201.41 290.772 201.422V203.193C290.698 203.172 290.566 203.149 290.376 203.125C290.186 203.096 289.996 203.081 289.806 203.081C289.369 203.081 288.979 203.174 288.637 203.36C288.298 203.541 288.03 203.795 287.832 204.121C287.634 204.443 287.535 204.81 287.535 205.223V211.029H285.684ZM300.796 201.522L297.348 211.029H295.368L291.914 201.522H293.901L296.309 208.838H296.408L298.809 201.522H300.796ZM302.535 211.029V201.522H304.386V211.029H302.535ZM303.47 200.055C303.148 200.055 302.872 199.947 302.641 199.733C302.414 199.514 302.3 199.254 302.3 198.953C302.3 198.647 302.414 198.387 302.641 198.173C302.872 197.954 303.148 197.845 303.47 197.845C303.792 197.845 304.066 197.954 304.293 198.173C304.524 198.387 304.64 198.647 304.64 198.953C304.64 199.254 304.524 199.514 304.293 199.733C304.066 199.947 303.792 200.055 303.47 200.055ZM310.973 211.221C310.037 211.221 309.23 211.021 308.553 210.62C307.881 210.216 307.361 209.649 306.993 208.918C306.63 208.184 306.449 207.323 306.449 206.337C306.449 205.363 306.63 204.505 306.993 203.762C307.361 203.019 307.872 202.44 308.529 202.023C309.189 201.606 309.96 201.398 310.843 201.398C311.38 201.398 311.9 201.486 312.403 201.664C312.907 201.841 313.359 202.12 313.759 202.499C314.159 202.879 314.475 203.372 314.706 203.979C314.937 204.581 315.052 205.314 315.052 206.176V206.832H307.495V205.446H313.239C313.239 204.959 313.14 204.528 312.942 204.152C312.744 203.772 312.465 203.473 312.106 203.255C311.751 203.036 311.335 202.927 310.856 202.927C310.336 202.927 309.882 203.054 309.494 203.31C309.11 203.562 308.813 203.892 308.603 204.301C308.396 204.705 308.293 205.145 308.293 205.619V206.702C308.293 207.338 308.405 207.878 308.628 208.324C308.855 208.77 309.17 209.11 309.575 209.345C309.979 209.576 310.451 209.692 310.992 209.692C311.343 209.692 311.663 209.642 311.951 209.543C312.24 209.44 312.49 209.287 312.7 209.085C312.911 208.883 313.072 208.633 313.183 208.336L314.935 208.652C314.795 209.168 314.543 209.62 314.18 210.008C313.821 210.391 313.369 210.69 312.824 210.905C312.284 211.115 311.667 211.221 310.973 211.221ZM319.15 211.029L316.352 201.522H318.265L320.128 208.503H320.221L322.09 201.522H324.003L325.86 208.472H325.952L327.803 201.522H329.716L326.924 211.029H325.036L323.105 204.164H322.963L321.032 211.029H319.15ZM335.28 211.221C334.344 211.221 333.537 211.021 332.86 210.62C332.187 210.216 331.668 209.649 331.3 208.918C330.937 208.184 330.756 207.323 330.756 206.337C330.756 205.363 330.937 204.505 331.3 203.762C331.668 203.019 332.179 202.44 332.835 202.023C333.496 201.606 334.267 201.398 335.15 201.398C335.687 201.398 336.207 201.486 336.71 201.664C337.213 201.841 337.665 202.12 338.066 202.499C338.466 202.879 338.781 203.372 339.013 203.979C339.244 204.581 339.359 205.314 339.359 206.176V206.832H331.802V205.446H337.546C337.546 204.959 337.447 204.528 337.249 204.152C337.05 203.772 336.772 203.473 336.413 203.255C336.058 203.036 335.641 202.927 335.163 202.927C334.643 202.927 334.189 203.054 333.801 203.31C333.417 203.562 333.12 203.892 332.91 204.301C332.703 204.705 332.6 205.145 332.6 205.619V206.702C332.6 207.338 332.712 207.878 332.934 208.324C333.161 208.77 333.477 209.11 333.881 209.345C334.286 209.576 334.758 209.692 335.299 209.692C335.65 209.692 335.969 209.642 336.258 209.543C336.547 209.44 336.797 209.287 337.007 209.085C337.218 208.883 337.378 208.633 337.49 208.336L339.242 208.652C339.101 209.168 338.85 209.62 338.486 210.008C338.127 210.391 337.676 210.69 337.131 210.905C336.59 211.115 335.973 211.221 335.28 211.221ZM341.413 211.029V201.522H343.201V203.032H343.3C343.474 202.52 343.779 202.118 344.217 201.825C344.658 201.528 345.157 201.379 345.714 201.379C345.83 201.379 345.966 201.383 346.123 201.392C346.284 201.4 346.41 201.41 346.5 201.422V203.193C346.426 203.172 346.294 203.149 346.104 203.125C345.915 203.096 345.725 203.081 345.535 203.081C345.097 203.081 344.708 203.174 344.365 203.36C344.027 203.541 343.758 203.795 343.56 204.121C343.362 204.443 343.263 204.81 343.263 205.223V211.029H341.413Z" fill="#1D3157"/>
<rect x="421.827" y="194.68" width="20.6982" height="20.6982" rx="10.3491" fill="#F5FFF7"/>
<rect x="421.827" y="194.68" width="20.6982" height="20.6982" rx="10.3491" stroke="#32CB84" stroke-width="1.08938"/>
<circle cx="432.176" cy="205.029" r="4.35751" fill="#32CB84"/>
<rect x="40.4063" y="244.549" width="419.687" height="59.9838" rx="15.0249" fill="white"/>
<rect x="40.4063" y="244.549" width="419.687" height="59.9838" rx="15.0249" stroke="#D0D5DD" stroke-width="0.812685"/>
<path d="M94.0023 274.92C94.0023 273.516 93.8861 272.492 93.6346 271.43H77.2842V277.764H86.8815C86.6881 279.338 85.6432 281.708 83.3212 283.301L83.2887 283.513L88.4584 287.438L88.8165 287.473C92.1059 284.496 94.0023 280.115 94.0023 274.92Z" fill="#4285F4"/>
<path d="M77.2827 291.607C81.9846 291.607 85.9318 290.09 88.815 287.473L83.3197 283.301C81.8492 284.306 79.8755 285.008 77.2827 285.008C72.6775 285.008 68.7689 282.031 67.3756 277.916L67.1714 277.933L61.7959 282.01L61.7256 282.201C64.5893 287.776 70.4716 291.607 77.2827 291.607Z" fill="#34A853"/>
<path d="M67.3767 277.916C67.0091 276.854 66.7963 275.716 66.7963 274.541C66.7963 273.365 67.0091 272.227 67.3574 271.165L67.3476 270.939L61.9047 266.797L61.7267 266.88C60.5464 269.193 59.8691 271.791 59.8691 274.541C59.8691 277.29 60.5464 279.888 61.7267 282.201L67.3767 277.916Z" fill="#FBBC05"/>
<path d="M77.2828 264.073C80.5528 264.073 82.7586 265.457 84.0164 266.614L88.9312 261.911C85.9128 259.162 81.9847 257.474 77.2828 257.474C70.4716 257.474 64.5893 261.305 61.7256 266.88L67.3563 271.165C68.769 267.05 72.6776 264.073 77.2828 264.073Z" fill="#EB4335"/>
<path d="M116.162 271.869C116.042 271.493 115.881 271.157 115.679 270.86C115.481 270.559 115.244 270.303 114.967 270.092C114.691 269.878 114.375 269.715 114.02 269.603C113.67 269.492 113.284 269.436 112.863 269.436C112.149 269.436 111.505 269.62 110.932 269.987C110.358 270.354 109.904 270.893 109.57 271.603C109.24 272.308 109.075 273.173 109.075 274.196C109.075 275.224 109.242 276.092 109.576 276.802C109.91 277.512 110.368 278.05 110.95 278.417C111.532 278.785 112.194 278.968 112.937 278.968C113.626 278.968 114.227 278.828 114.738 278.547C115.254 278.267 115.652 277.871 115.933 277.359C116.218 276.843 116.36 276.237 116.36 275.539L116.855 275.632H113.228V274.054H118.211V275.496C118.211 276.561 117.984 277.485 117.53 278.269C117.08 279.049 116.457 279.651 115.661 280.076C114.868 280.501 113.961 280.714 112.937 280.714C111.79 280.714 110.783 280.45 109.917 279.922C109.054 279.393 108.382 278.644 107.899 277.675C107.416 276.701 107.175 275.545 107.175 274.209C107.175 273.198 107.315 272.29 107.595 271.485C107.876 270.68 108.27 269.997 108.778 269.436C109.289 268.871 109.89 268.44 110.579 268.143C111.272 267.841 112.029 267.691 112.85 267.691C113.535 267.691 114.173 267.792 114.763 267.994C115.357 268.196 115.885 268.483 116.348 268.854C116.814 269.226 117.2 269.667 117.505 270.179C117.81 270.687 118.017 271.25 118.124 271.869H116.162ZM124.495 280.732C123.603 280.732 122.826 280.528 122.161 280.12C121.497 279.711 120.981 279.14 120.614 278.405C120.247 277.671 120.063 276.812 120.063 275.83C120.063 274.844 120.247 273.982 120.614 273.243C120.981 272.504 121.497 271.931 122.161 271.522C122.826 271.114 123.603 270.909 124.495 270.909C125.386 270.909 126.164 271.114 126.828 271.522C127.493 271.931 128.008 272.504 128.376 273.243C128.743 273.982 128.927 274.844 128.927 275.83C128.927 276.812 128.743 277.671 128.376 278.405C128.008 279.14 127.493 279.711 126.828 280.12C126.164 280.528 125.386 280.732 124.495 280.732ZM124.501 279.179C125.079 279.179 125.557 279.026 125.937 278.721C126.317 278.415 126.597 278.009 126.779 277.501C126.964 276.994 127.057 276.435 127.057 275.824C127.057 275.217 126.964 274.66 126.779 274.153C126.597 273.641 126.317 273.231 125.937 272.921C125.557 272.612 125.079 272.457 124.501 272.457C123.919 272.457 123.436 272.612 123.053 272.921C122.673 273.231 122.39 273.641 122.205 274.153C122.023 274.66 121.932 275.217 121.932 275.824C121.932 276.435 122.023 276.994 122.205 277.501C122.39 278.009 122.673 278.415 123.053 278.721C123.436 279.026 123.919 279.179 124.501 279.179ZM134.997 280.732C134.106 280.732 133.328 280.528 132.664 280.12C131.999 279.711 131.483 279.14 131.116 278.405C130.749 277.671 130.565 276.812 130.565 275.83C130.565 274.844 130.749 273.982 131.116 273.243C131.483 272.504 131.999 271.931 132.664 271.522C133.328 271.114 134.106 270.909 134.997 270.909C135.888 270.909 136.666 271.114 137.331 271.522C137.995 271.931 138.511 272.504 138.878 273.243C139.245 273.982 139.429 274.844 139.429 275.83C139.429 276.812 139.245 277.671 138.878 278.405C138.511 279.14 137.995 279.711 137.331 280.12C136.666 280.528 135.888 280.732 134.997 280.732ZM135.003 279.179C135.581 279.179 136.06 279.026 136.439 278.721C136.819 278.415 137.099 278.009 137.281 277.501C137.467 276.994 137.56 276.435 137.56 275.824C137.56 275.217 137.467 274.66 137.281 274.153C137.099 273.641 136.819 273.231 136.439 272.921C136.06 272.612 135.581 272.457 135.003 272.457C134.421 272.457 133.939 272.612 133.555 272.921C133.175 273.231 132.893 273.641 132.707 274.153C132.525 274.66 132.435 275.217 132.435 275.824C132.435 276.435 132.525 276.994 132.707 277.501C132.893 278.009 133.175 278.415 133.555 278.721C133.939 279.026 134.421 279.179 135.003 279.179ZM145.481 284.304C144.726 284.304 144.076 284.205 143.531 284.007C142.99 283.809 142.549 283.547 142.206 283.221C141.864 282.895 141.608 282.538 141.439 282.15L143.03 281.494C143.141 281.675 143.29 281.867 143.475 282.069C143.665 282.276 143.921 282.451 144.243 282.595C144.569 282.74 144.988 282.812 145.499 282.812C146.201 282.812 146.781 282.641 147.239 282.298C147.697 281.96 147.926 281.419 147.926 280.677V278.807H147.808C147.697 279.01 147.536 279.235 147.325 279.482C147.119 279.73 146.834 279.944 146.471 280.126C146.108 280.307 145.636 280.398 145.054 280.398C144.303 280.398 143.626 280.223 143.023 279.872C142.425 279.517 141.951 278.995 141.6 278.306C141.253 277.613 141.08 276.761 141.08 275.75C141.08 274.739 141.251 273.872 141.594 273.15C141.94 272.428 142.415 271.875 143.017 271.491C143.62 271.103 144.303 270.909 145.066 270.909C145.656 270.909 146.133 271.008 146.496 271.207C146.859 271.4 147.142 271.627 147.344 271.887C147.55 272.147 147.709 272.376 147.82 272.574H147.957V271.033H149.77V280.751C149.77 281.568 149.58 282.239 149.201 282.763C148.821 283.287 148.307 283.675 147.66 283.926C147.016 284.178 146.29 284.304 145.481 284.304ZM145.462 278.863C145.995 278.863 146.444 278.739 146.812 278.492C147.183 278.24 147.464 277.881 147.653 277.415C147.847 276.944 147.944 276.381 147.944 275.725C147.944 275.085 147.849 274.522 147.66 274.035C147.47 273.548 147.191 273.169 146.824 272.896C146.457 272.62 146.003 272.482 145.462 272.482C144.905 272.482 144.441 272.626 144.07 272.915C143.698 273.2 143.418 273.587 143.228 274.079C143.042 274.57 142.949 275.118 142.949 275.725C142.949 276.348 143.044 276.895 143.234 277.365C143.424 277.836 143.704 278.203 144.076 278.467C144.451 278.731 144.913 278.863 145.462 278.863ZM154.103 267.864V280.541H152.252V267.864H154.103ZM160.69 280.732C159.754 280.732 158.947 280.532 158.27 280.132C157.598 279.728 157.078 279.16 156.71 278.43C156.347 277.695 156.166 276.835 156.166 275.849C156.166 274.875 156.347 274.017 156.71 273.274C157.078 272.531 157.589 271.951 158.245 271.535C158.906 271.118 159.677 270.909 160.56 270.909C161.097 270.909 161.617 270.998 162.12 271.176C162.624 271.353 163.075 271.632 163.476 272.011C163.876 272.391 164.192 272.884 164.423 273.491C164.654 274.093 164.769 274.825 164.769 275.688V276.344H157.212V274.957H162.956C162.956 274.471 162.857 274.039 162.659 273.664C162.461 273.284 162.182 272.985 161.823 272.766C161.468 272.548 161.051 272.438 160.573 272.438C160.053 272.438 159.599 272.566 159.211 272.822C158.827 273.074 158.53 273.404 158.32 273.812C158.113 274.217 158.01 274.656 158.01 275.131V276.214C158.01 276.849 158.122 277.39 158.344 277.836C158.571 278.281 158.887 278.622 159.291 278.857C159.696 279.088 160.168 279.204 160.709 279.204C161.06 279.204 161.379 279.154 161.668 279.055C161.957 278.952 162.207 278.799 162.417 278.597C162.628 278.395 162.789 278.145 162.9 277.848L164.652 278.164C164.511 278.68 164.26 279.131 163.897 279.519C163.538 279.903 163.086 280.202 162.541 280.417C162 280.627 161.384 280.732 160.69 280.732ZM173.497 267.864V280.541H171.584V267.864H173.497ZM177.984 274.896V280.541H176.133V271.033H177.91V272.581H178.028C178.246 272.077 178.589 271.673 179.055 271.367C179.525 271.062 180.118 270.909 180.831 270.909C181.479 270.909 182.047 271.046 182.534 271.318C183.02 271.586 183.398 271.986 183.666 272.519C183.934 273.051 184.069 273.709 184.069 274.493V280.541H182.218V274.716C182.218 274.027 182.038 273.488 181.679 273.101C181.32 272.709 180.827 272.513 180.2 272.513C179.771 272.513 179.389 272.605 179.055 272.791C178.725 272.977 178.463 273.249 178.269 273.608C178.079 273.963 177.984 274.392 177.984 274.896ZM190.989 271.033V272.519H185.796V271.033H190.989ZM187.188 268.755H189.039V277.749C189.039 278.108 189.093 278.378 189.2 278.56C189.307 278.737 189.445 278.859 189.615 278.925C189.788 278.987 189.976 279.018 190.178 279.018C190.326 279.018 190.456 279.008 190.568 278.987C190.679 278.966 190.766 278.95 190.828 278.937L191.162 280.466C191.055 280.508 190.902 280.549 190.704 280.59C190.506 280.635 190.258 280.66 189.961 280.664C189.474 280.673 189.02 280.586 188.599 280.404C188.179 280.223 187.838 279.942 187.578 279.563C187.318 279.183 187.188 278.706 187.188 278.133V268.755ZM197.031 280.732C196.095 280.732 195.288 280.532 194.611 280.132C193.939 279.728 193.419 279.16 193.051 278.43C192.688 277.695 192.507 276.835 192.507 275.849C192.507 274.875 192.688 274.017 193.051 273.274C193.419 272.531 193.93 271.951 194.586 271.535C195.247 271.118 196.018 270.909 196.901 270.909C197.438 270.909 197.958 270.998 198.461 271.176C198.965 271.353 199.416 271.632 199.817 272.011C200.217 272.391 200.533 272.884 200.764 273.491C200.995 274.093 201.11 274.825 201.11 275.688V276.344H193.553V274.957H199.297C199.297 274.471 199.198 274.039 199 273.664C198.802 273.284 198.523 272.985 198.164 272.766C197.809 272.548 197.392 272.438 196.914 272.438C196.394 272.438 195.94 272.566 195.552 272.822C195.168 273.074 194.871 273.404 194.661 273.812C194.454 274.217 194.351 274.656 194.351 275.131V276.214C194.351 276.849 194.463 277.39 194.685 277.836C194.912 278.281 195.228 278.622 195.632 278.857C196.037 279.088 196.509 279.204 197.05 279.204C197.401 279.204 197.72 279.154 198.009 279.055C198.298 278.952 198.548 278.799 198.758 278.597C198.969 278.395 199.13 278.145 199.241 277.848L200.993 278.164C200.852 278.68 200.601 279.131 200.238 279.519C199.879 279.903 199.427 280.202 198.882 280.417C198.341 280.627 197.725 280.732 197.031 280.732ZM203.164 280.541V271.033H204.952V272.543H205.052C205.225 272.032 205.53 271.629 205.968 271.337C206.409 271.039 206.908 270.891 207.465 270.891C207.581 270.891 207.717 270.895 207.874 270.903C208.035 270.911 208.161 270.922 208.252 270.934V272.704C208.177 272.684 208.045 272.661 207.855 272.636C207.666 272.607 207.476 272.593 207.286 272.593C206.849 272.593 206.459 272.686 206.116 272.872C205.778 273.053 205.51 273.307 205.311 273.633C205.113 273.955 205.014 274.322 205.014 274.735V280.541H203.164ZM218.276 271.033L214.828 280.541H212.847L209.394 271.033H211.38L213.788 278.349H213.887L216.289 271.033H218.276ZM220.015 280.541V271.033H221.866V280.541H220.015ZM220.95 269.566C220.628 269.566 220.351 269.459 220.12 269.244C219.893 269.026 219.78 268.766 219.78 268.465C219.78 268.159 219.893 267.899 220.12 267.685C220.351 267.466 220.628 267.357 220.95 267.357C221.271 267.357 221.546 267.466 221.773 267.685C222.004 267.899 222.119 268.159 222.119 268.465C222.119 268.766 222.004 269.026 221.773 269.244C221.546 269.459 221.271 269.566 220.95 269.566ZM228.453 280.732C227.516 280.732 226.71 280.532 226.033 280.132C225.36 279.728 224.84 279.16 224.473 278.43C224.11 277.695 223.928 276.835 223.928 275.849C223.928 274.875 224.11 274.017 224.473 273.274C224.84 272.531 225.352 271.951 226.008 271.535C226.668 271.118 227.44 270.909 228.323 270.909C228.859 270.909 229.379 270.998 229.883 271.176C230.386 271.353 230.838 271.632 231.238 272.011C231.639 272.391 231.954 272.884 232.185 273.491C232.416 274.093 232.532 274.825 232.532 275.688V276.344H224.974V274.957H230.718C230.718 274.471 230.619 274.039 230.421 273.664C230.223 273.284 229.945 272.985 229.586 272.766C229.231 272.548 228.814 272.438 228.335 272.438C227.816 272.438 227.362 272.566 226.974 272.822C226.59 273.074 226.293 273.404 226.082 273.812C225.876 274.217 225.773 274.656 225.773 275.131V276.214C225.773 276.849 225.884 277.39 226.107 277.836C226.334 278.281 226.65 278.622 227.054 278.857C227.459 279.088 227.931 279.204 228.472 279.204C228.822 279.204 229.142 279.154 229.431 279.055C229.72 278.952 229.969 278.799 230.18 278.597C230.39 278.395 230.551 278.145 230.663 277.848L232.414 278.164C232.274 278.68 232.022 279.131 231.659 279.519C231.3 279.903 230.848 280.202 230.304 280.417C229.763 280.627 229.146 280.732 228.453 280.732ZM236.63 280.541L233.832 271.033H235.744L237.608 278.015H237.7L239.57 271.033H241.482L243.339 277.984H243.432L245.283 271.033H247.195L244.404 280.541H242.516L240.585 273.676H240.442L238.511 280.541H236.63ZM252.76 280.732C251.823 280.732 251.016 280.532 250.34 280.132C249.667 279.728 249.147 279.16 248.78 278.43C248.417 277.695 248.235 276.835 248.235 275.849C248.235 274.875 248.417 274.017 248.78 273.274C249.147 272.531 249.659 271.951 250.315 271.535C250.975 271.118 251.747 270.909 252.63 270.909C253.166 270.909 253.686 270.998 254.19 271.176C254.693 271.353 255.145 271.632 255.545 272.011C255.945 272.391 256.261 272.884 256.492 273.491C256.723 274.093 256.839 274.825 256.839 275.688V276.344H249.281V274.957H255.025C255.025 274.471 254.926 274.039 254.728 273.664C254.53 273.284 254.251 272.985 253.892 272.766C253.538 272.548 253.121 272.438 252.642 272.438C252.122 272.438 251.668 272.566 251.28 272.822C250.897 273.074 250.6 273.404 250.389 273.812C250.183 274.217 250.08 274.656 250.08 275.131V276.214C250.08 276.849 250.191 277.39 250.414 277.836C250.641 278.281 250.957 278.622 251.361 278.857C251.765 279.088 252.238 279.204 252.778 279.204C253.129 279.204 253.449 279.154 253.738 279.055C254.027 278.952 254.276 278.799 254.487 278.597C254.697 278.395 254.858 278.145 254.969 277.848L256.721 278.164C256.581 278.68 256.329 279.131 255.966 279.519C255.607 279.903 255.155 280.202 254.61 280.417C254.07 280.627 253.453 280.732 252.76 280.732ZM258.892 280.541V271.033H260.681V272.543H260.78C260.953 272.032 261.259 271.629 261.696 271.337C262.138 271.039 262.637 270.891 263.194 270.891C263.31 270.891 263.446 270.895 263.602 270.903C263.763 270.911 263.889 270.922 263.98 270.934V272.704C263.906 272.684 263.774 272.661 263.584 272.636C263.394 272.607 263.204 272.593 263.014 272.593C262.577 272.593 262.187 272.686 261.845 272.872C261.506 273.053 261.238 273.307 261.04 273.633C260.842 273.955 260.743 274.322 260.743 274.735V280.541H258.892Z" fill="#1D3157"/>
<rect x="421.827" y="264.191" width="20.6982" height="20.6982" rx="10.3491" fill="white"/>
<rect x="421.827" y="264.191" width="20.6982" height="20.6982" rx="10.3491" stroke="#D0D5DD" stroke-width="1.08938"/>
<rect x="40.4063" y="314.06" width="419.687" height="59.9838" rx="15.0249" fill="white"/>
<rect x="40.4063" y="314.06" width="419.687" height="59.9838" rx="15.0249" stroke="#D0D5DD" stroke-width="0.812685"/>
<rect x="78.1533" y="345.271" width="12.1903" height="12.1903" fill="#FEBA08"/>
<rect x="63.5254" y="345.271" width="12.1903" height="12.1903" fill="#05A6F0"/>
<rect x="78.1533" y="330.643" width="12.1903" height="12.1903" fill="#80BC06"/>
<rect x="63.5254" y="330.643" width="12.1903" height="12.1903" fill="#F25325"/>
<path d="M107.583 337.376H109.904L113.94 347.23H114.088L118.124 337.376H120.445V350.052H118.625V340.879H118.508L114.769 350.033H113.259L109.52 340.873H109.403V350.052H107.583V337.376ZM123.077 350.052V340.545H124.928V350.052H123.077ZM124.012 339.078C123.69 339.078 123.414 338.97 123.183 338.756C122.956 338.537 122.842 338.277 122.842 337.976C122.842 337.671 122.956 337.411 123.183 337.196C123.414 336.977 123.69 336.868 124.012 336.868C124.334 336.868 124.608 336.977 124.835 337.196C125.066 337.411 125.182 337.671 125.182 337.976C125.182 338.277 125.066 338.537 124.835 338.756C124.608 338.97 124.334 339.078 124.012 339.078ZM131.423 350.244C130.502 350.244 129.71 350.035 129.046 349.619C128.385 349.198 127.878 348.618 127.523 347.879C127.168 347.141 126.991 346.295 126.991 345.342C126.991 344.376 127.172 343.524 127.535 342.785C127.899 342.043 128.41 341.463 129.07 341.046C129.731 340.629 130.509 340.421 131.404 340.421C132.126 340.421 132.77 340.555 133.335 340.823C133.9 341.087 134.356 341.459 134.703 341.937C135.054 342.416 135.262 342.975 135.328 343.615H133.527C133.428 343.169 133.201 342.785 132.846 342.463C132.495 342.142 132.025 341.981 131.435 341.981C130.919 341.981 130.467 342.117 130.079 342.389C129.696 342.657 129.396 343.041 129.182 343.54C128.967 344.036 128.86 344.622 128.86 345.298C128.86 345.992 128.965 346.59 129.176 347.093C129.386 347.597 129.683 347.987 130.067 348.263C130.455 348.54 130.911 348.678 131.435 348.678C131.786 348.678 132.103 348.614 132.388 348.486C132.677 348.354 132.918 348.166 133.112 347.923C133.31 347.679 133.449 347.386 133.527 347.044H135.328C135.262 347.659 135.062 348.207 134.728 348.69C134.394 349.173 133.946 349.553 133.385 349.829C132.828 350.106 132.174 350.244 131.423 350.244ZM137.307 350.052V340.545H139.096V342.055H139.195C139.368 341.543 139.674 341.141 140.111 340.848C140.553 340.551 141.052 340.402 141.609 340.402C141.725 340.402 141.861 340.406 142.018 340.415C142.179 340.423 142.304 340.433 142.395 340.446V342.216C142.321 342.195 142.189 342.173 141.999 342.148C141.809 342.119 141.619 342.104 141.43 342.104C140.992 342.104 140.602 342.197 140.26 342.383C139.921 342.565 139.653 342.818 139.455 343.144C139.257 343.466 139.158 343.833 139.158 344.246V350.052H137.307ZM147.661 350.244C146.77 350.244 145.992 350.04 145.328 349.631C144.663 349.223 144.147 348.651 143.78 347.917C143.413 347.182 143.229 346.324 143.229 345.342C143.229 344.355 143.413 343.493 143.78 342.754C144.147 342.016 144.663 341.442 145.328 341.034C145.992 340.625 146.77 340.421 147.661 340.421C148.552 340.421 149.33 340.625 149.995 341.034C150.659 341.442 151.175 342.016 151.542 342.754C151.909 343.493 152.093 344.355 152.093 345.342C152.093 346.324 151.909 347.182 151.542 347.917C151.175 348.651 150.659 349.223 149.995 349.631C149.33 350.04 148.552 350.244 147.661 350.244ZM147.667 348.69C148.245 348.69 148.724 348.538 149.103 348.232C149.483 347.927 149.764 347.52 149.945 347.013C150.131 346.505 150.224 345.946 150.224 345.335C150.224 344.729 150.131 344.172 149.945 343.664C149.764 343.153 149.483 342.742 149.103 342.433C148.724 342.123 148.245 341.968 147.667 341.968C147.085 341.968 146.603 342.123 146.219 342.433C145.839 342.742 145.557 343.153 145.371 343.664C145.189 344.172 145.099 344.729 145.099 345.335C145.099 345.946 145.189 346.505 145.371 347.013C145.557 347.52 145.839 347.927 146.219 348.232C146.603 348.538 147.085 348.69 147.667 348.69ZM161.283 342.866L159.606 343.163C159.535 342.948 159.424 342.744 159.271 342.55C159.123 342.356 158.921 342.197 158.665 342.074C158.409 341.95 158.089 341.888 157.705 341.888C157.181 341.888 156.744 342.005 156.393 342.241C156.042 342.472 155.867 342.771 155.867 343.138C155.867 343.456 155.985 343.712 156.22 343.906C156.455 344.1 156.835 344.258 157.359 344.382L158.869 344.729C159.744 344.931 160.396 345.243 160.825 345.664C161.254 346.084 161.469 346.631 161.469 347.304C161.469 347.873 161.304 348.381 160.973 348.826C160.647 349.268 160.192 349.615 159.606 349.866C159.024 350.118 158.349 350.244 157.582 350.244C156.517 350.244 155.648 350.017 154.976 349.563C154.303 349.105 153.89 348.455 153.738 347.613L155.527 347.341C155.638 347.807 155.867 348.16 156.214 348.399C156.56 348.635 157.012 348.752 157.569 348.752C158.176 348.752 158.661 348.626 159.024 348.375C159.387 348.119 159.568 347.807 159.568 347.44C159.568 347.143 159.457 346.893 159.234 346.691C159.015 346.489 158.679 346.336 158.225 346.233L156.616 345.88C155.729 345.678 155.073 345.356 154.648 344.915C154.227 344.473 154.016 343.914 154.016 343.237C154.016 342.676 154.173 342.185 154.487 341.764C154.8 341.343 155.234 341.015 155.787 340.78C156.339 340.541 156.973 340.421 157.687 340.421C158.714 340.421 159.523 340.644 160.113 341.089C160.703 341.531 161.093 342.123 161.283 342.866ZM167.508 350.244C166.617 350.244 165.839 350.04 165.175 349.631C164.51 349.223 163.995 348.651 163.627 347.917C163.26 347.182 163.076 346.324 163.076 345.342C163.076 344.355 163.26 343.493 163.627 342.754C163.995 342.016 164.51 341.442 165.175 341.034C165.839 340.625 166.617 340.421 167.508 340.421C168.4 340.421 169.177 340.625 169.842 341.034C170.506 341.442 171.022 342.016 171.389 342.754C171.756 343.493 171.94 344.355 171.94 345.342C171.94 346.324 171.756 347.182 171.389 347.917C171.022 348.651 170.506 349.223 169.842 349.631C169.177 350.04 168.4 350.244 167.508 350.244ZM167.514 348.69C168.092 348.69 168.571 348.538 168.95 348.232C169.33 347.927 169.611 347.52 169.792 347.013C169.978 346.505 170.071 345.946 170.071 345.335C170.071 344.729 169.978 344.172 169.792 343.664C169.611 343.153 169.33 342.742 168.95 342.433C168.571 342.123 168.092 341.968 167.514 341.968C166.933 341.968 166.45 342.123 166.066 342.433C165.686 342.742 165.404 343.153 165.218 343.664C165.036 344.172 164.946 344.729 164.946 345.335C164.946 345.946 165.036 346.505 165.218 347.013C165.404 347.52 165.686 347.927 166.066 348.232C166.45 348.538 166.933 348.69 167.514 348.69ZM178.53 340.545V342.03H173.158V340.545H178.53ZM174.631 350.052V339.443C174.631 338.849 174.761 338.356 175.021 337.964C175.281 337.567 175.625 337.272 176.055 337.078C176.484 336.88 176.95 336.781 177.453 336.781C177.825 336.781 178.143 336.812 178.407 336.874C178.671 336.932 178.867 336.986 178.995 337.035L178.561 338.533C178.475 338.508 178.363 338.479 178.227 338.446C178.091 338.409 177.926 338.391 177.732 338.391C177.282 338.391 176.96 338.502 176.766 338.725C176.577 338.948 176.482 339.27 176.482 339.691V350.052H174.631ZM184.878 340.545V342.03H179.685V340.545H184.878ZM181.077 338.267H182.928V347.26C182.928 347.619 182.982 347.89 183.089 348.071C183.196 348.249 183.335 348.37 183.504 348.437C183.677 348.498 183.865 348.529 184.067 348.529C184.216 348.529 184.346 348.519 184.457 348.498C184.568 348.478 184.655 348.461 184.717 348.449L185.051 349.978C184.944 350.019 184.791 350.06 184.593 350.102C184.395 350.147 184.148 350.172 183.85 350.176C183.363 350.184 182.91 350.097 182.489 349.916C182.068 349.734 181.727 349.454 181.467 349.074C181.207 348.694 181.077 348.218 181.077 347.644V338.267ZM193.599 337.376V350.052H191.687V337.376H193.599ZM198.087 344.407V350.052H196.236V340.545H198.012V342.092H198.13C198.349 341.589 198.691 341.184 199.157 340.879C199.628 340.574 200.22 340.421 200.934 340.421C201.582 340.421 202.149 340.557 202.636 340.829C203.123 341.098 203.5 341.498 203.769 342.03C204.037 342.563 204.171 343.221 204.171 344.005V350.052H202.32V344.228C202.32 343.538 202.141 343 201.782 342.612C201.423 342.22 200.93 342.024 200.303 342.024C199.873 342.024 199.492 342.117 199.157 342.303C198.827 342.488 198.565 342.761 198.371 343.12C198.182 343.474 198.087 343.904 198.087 344.407ZM211.091 340.545V342.03H205.898V340.545H211.091ZM207.291 338.267H209.141V347.26C209.141 347.619 209.195 347.89 209.302 348.071C209.41 348.249 209.548 348.37 209.717 348.437C209.89 348.498 210.078 348.529 210.28 348.529C210.429 348.529 210.559 348.519 210.67 348.498C210.782 348.478 210.868 348.461 210.93 348.449L211.264 349.978C211.157 350.019 211.004 350.06 210.806 350.102C210.608 350.147 210.361 350.172 210.064 350.176C209.577 350.184 209.123 350.097 208.702 349.916C208.281 349.734 207.941 349.454 207.681 349.074C207.421 348.694 207.291 348.218 207.291 347.644V338.267ZM217.134 350.244C216.197 350.244 215.39 350.044 214.714 349.643C214.041 349.239 213.521 348.672 213.154 347.941C212.791 347.207 212.609 346.346 212.609 345.36C212.609 344.386 212.791 343.528 213.154 342.785C213.521 342.043 214.033 341.463 214.689 341.046C215.349 340.629 216.121 340.421 217.004 340.421C217.54 340.421 218.06 340.51 218.564 340.687C219.067 340.864 219.519 341.143 219.919 341.523C220.319 341.902 220.635 342.395 220.866 343.002C221.097 343.604 221.213 344.337 221.213 345.199V345.855H213.655V344.469H219.399C219.399 343.982 219.3 343.551 219.102 343.175C218.904 342.796 218.625 342.497 218.266 342.278C217.912 342.059 217.495 341.95 217.016 341.95C216.496 341.95 216.042 342.078 215.654 342.334C215.271 342.585 214.974 342.915 214.763 343.324C214.557 343.728 214.454 344.168 214.454 344.642V345.725C214.454 346.361 214.565 346.901 214.788 347.347C215.015 347.793 215.33 348.133 215.735 348.368C216.139 348.599 216.612 348.715 217.152 348.715C217.503 348.715 217.823 348.666 218.112 348.566C218.401 348.463 218.65 348.311 218.861 348.108C219.071 347.906 219.232 347.657 219.343 347.36L221.095 347.675C220.955 348.191 220.703 348.643 220.34 349.031C219.981 349.414 219.529 349.714 218.984 349.928C218.444 350.139 217.827 350.244 217.134 350.244ZM223.266 350.052V340.545H225.055V342.055H225.154C225.327 341.543 225.633 341.141 226.07 340.848C226.512 340.551 227.011 340.402 227.568 340.402C227.683 340.402 227.82 340.406 227.976 340.415C228.137 340.423 228.263 340.433 228.354 340.446V342.216C228.28 342.195 228.148 342.173 227.958 342.148C227.768 342.119 227.578 342.104 227.388 342.104C226.951 342.104 226.561 342.197 226.219 342.383C225.88 342.565 225.612 342.818 225.414 343.144C225.216 343.466 225.117 343.833 225.117 344.246V350.052H223.266ZM238.378 340.545L234.931 350.052H232.95L229.496 340.545H231.483L233.891 347.861H233.99L236.391 340.545H238.378ZM240.117 350.052V340.545H241.968V350.052H240.117ZM241.052 339.078C240.73 339.078 240.454 338.97 240.223 338.756C239.996 338.537 239.882 338.277 239.882 337.976C239.882 337.671 239.996 337.411 240.223 337.196C240.454 336.977 240.73 336.868 241.052 336.868C241.374 336.868 241.648 336.977 241.875 337.196C242.106 337.411 242.222 337.671 242.222 337.976C242.222 338.277 242.106 338.537 241.875 338.756C241.648 338.97 241.374 339.078 241.052 339.078ZM248.555 350.244C247.619 350.244 246.812 350.044 246.135 349.643C245.463 349.239 244.943 348.672 244.576 347.941C244.212 347.207 244.031 346.346 244.031 345.36C244.031 344.386 244.212 343.528 244.576 342.785C244.943 342.043 245.454 341.463 246.111 341.046C246.771 340.629 247.542 340.421 248.425 340.421C248.962 340.421 249.482 340.51 249.985 340.687C250.489 340.864 250.941 341.143 251.341 341.523C251.741 341.902 252.057 342.395 252.288 343.002C252.519 343.604 252.634 344.337 252.634 345.199V345.855H245.077V344.469H250.821C250.821 343.982 250.722 343.551 250.524 343.175C250.326 342.796 250.047 342.497 249.688 342.278C249.333 342.059 248.917 341.95 248.438 341.95C247.918 341.95 247.464 342.078 247.076 342.334C246.692 342.585 246.395 342.915 246.185 343.324C245.979 343.728 245.875 344.168 245.875 344.642V345.725C245.875 346.361 245.987 346.901 246.21 347.347C246.437 347.793 246.752 348.133 247.157 348.368C247.561 348.599 248.033 348.715 248.574 348.715C248.925 348.715 249.245 348.666 249.533 348.566C249.822 348.463 250.072 348.311 250.282 348.108C250.493 347.906 250.654 347.657 250.765 347.36L252.517 347.675C252.377 348.191 252.125 348.643 251.762 349.031C251.403 349.414 250.951 349.714 250.406 349.928C249.866 350.139 249.249 350.244 248.555 350.244ZM256.732 350.052L253.934 340.545H255.847L257.71 347.527H257.803L259.672 340.545H261.585L263.442 347.496H263.534L265.385 340.545H267.298L264.506 350.052H262.618L260.687 343.188H260.545L258.614 350.052H256.732ZM272.862 350.244C271.926 350.244 271.119 350.044 270.442 349.643C269.769 349.239 269.25 348.672 268.882 347.941C268.519 347.207 268.338 346.346 268.338 345.36C268.338 344.386 268.519 343.528 268.882 342.785C269.25 342.043 269.761 341.463 270.417 341.046C271.078 340.629 271.849 340.421 272.732 340.421C273.269 340.421 273.789 340.51 274.292 340.687C274.795 340.864 275.247 341.143 275.648 341.523C276.048 341.902 276.364 342.395 276.595 343.002C276.826 343.604 276.941 344.337 276.941 345.199V345.855H269.384V344.469H275.128C275.128 343.982 275.029 343.551 274.831 343.175C274.632 342.796 274.354 342.497 273.995 342.278C273.64 342.059 273.223 341.95 272.745 341.95C272.225 341.95 271.771 342.078 271.383 342.334C270.999 342.585 270.702 342.915 270.492 343.324C270.285 343.728 270.182 344.168 270.182 344.642V345.725C270.182 346.361 270.294 346.901 270.516 347.347C270.743 347.793 271.059 348.133 271.463 348.368C271.868 348.599 272.34 348.715 272.881 348.715C273.232 348.715 273.551 348.666 273.84 348.566C274.129 348.463 274.379 348.311 274.589 348.108C274.8 347.906 274.961 347.657 275.072 347.36L276.824 347.675C276.683 348.191 276.432 348.643 276.068 349.031C275.709 349.414 275.258 349.714 274.713 349.928C274.172 350.139 273.555 350.244 272.862 350.244ZM278.995 350.052V340.545H280.783V342.055H280.882C281.056 341.543 281.361 341.141 281.799 340.848C282.24 340.551 282.739 340.402 283.296 340.402C283.412 340.402 283.548 340.406 283.705 340.415C283.866 340.423 283.992 340.433 284.083 340.446V342.216C284.008 342.195 283.876 342.173 283.686 342.148C283.497 342.119 283.307 342.104 283.117 342.104C282.68 342.104 282.29 342.197 281.947 342.383C281.609 342.565 281.341 342.818 281.142 343.144C280.944 343.466 280.845 343.833 280.845 344.246V350.052H278.995Z" fill="#1D3157"/>
<rect x="421.827" y="333.703" width="20.6982" height="20.6982" rx="10.3491" fill="white"/>
<rect x="421.827" y="333.703" width="20.6982" height="20.6982" rx="10.3491" stroke="#D0D5DD" stroke-width="1.08938"/>
<path fill-rule="evenodd" clip-rule="evenodd" d="M346.369 169.144C345.951 169.335 345.596 169.641 345.346 170.028L341.83 175.466C340.896 176.911 338.696 176.588 338.217 174.936L333.271 157.904C333.01 157.001 333.395 156.158 334.053 155.697C334.342 155.452 334.695 155.296 335.07 155.246C335.445 155.197 335.827 155.256 336.169 155.416L352.297 162.792C353.862 163.507 353.86 165.731 352.295 166.444L346.369 169.144Z" fill="#05A105"/>
<path d="M370.438 169.727H359.814C352.048 169.727 345.752 176.022 345.752 183.789C345.752 191.555 352.048 197.85 359.814 197.85H370.438C378.204 197.85 384.5 191.555 384.5 183.789C384.5 176.022 378.204 169.727 370.438 169.727Z" fill="#08A105"/>
<path d="M355.977 179.068C356.265 179.068 356.529 179.227 356.662 179.482C357.259 180.623 357.85 181.766 358.435 182.913C358.437 182.916 358.44 182.918 358.444 182.918C358.447 182.918 358.451 182.916 358.452 182.913C359.053 181.778 359.554 180.784 360.209 179.484C360.337 179.229 360.599 179.068 360.885 179.068C361.463 179.068 361.828 179.691 361.545 180.195L359.539 183.77C359.309 184.179 359.188 184.641 359.188 185.111V187.07C359.188 187.501 358.839 187.851 358.407 187.851C357.976 187.851 357.626 187.501 357.626 187.07V185.107C357.626 184.639 357.507 184.18 357.28 183.772L355.301 180.217C355.014 179.702 355.387 179.068 355.977 179.068ZM364.618 188.035C362.748 188.035 361.309 186.695 361.309 184.665C361.309 182.647 362.748 181.319 364.618 181.319C366.488 181.319 367.915 182.647 367.915 184.665C367.915 186.695 366.488 188.035 364.618 188.035ZM362.785 184.665C362.785 185.846 363.511 186.818 364.618 186.818C365.726 186.818 366.451 185.846 366.451 184.665C366.451 183.484 365.726 182.512 364.618 182.512C363.511 182.512 362.785 183.484 362.785 184.665ZM368.97 185.415V182.241C368.97 181.827 369.306 181.491 369.72 181.491C370.135 181.491 370.471 181.827 370.471 182.241V185.083C370.471 186.03 370.753 186.719 371.652 186.719C372.525 186.719 373.14 185.957 373.14 184.394V182.241C373.14 181.827 373.476 181.491 373.891 181.491C374.305 181.491 374.641 181.827 374.641 182.241V187.113C374.641 187.52 374.311 187.851 373.903 187.851H373.369C373.256 187.851 373.165 187.76 373.165 187.647C373.165 187.43 372.81 187.331 372.654 187.483C372.316 187.814 371.864 188.023 371.258 188.023C369.61 188.023 368.97 186.928 368.97 185.415Z" fill="white"/>
</g>
<defs>
<linearGradient id="paint0_linear_130_951" x1="76.9345" y1="187.962" x2="76.9345" y2="221.994" gradientUnits="userSpaceOnUse">
<stop stop-color="#18ACFE"/>
<stop offset="1" stop-color="#0163E0"/>
</linearGradient>
<clipPath id="clip0_130_951">
<rect x="0.5" width="500" height="363" rx="24" fill="white"/>
</clipPath>
</defs>
</svg>
