<svg width="501" height="363" viewBox="0 0 501 363" fill="none" xmlns="http://www.w3.org/2000/svg">
<rect x="0.5" width="500" height="363" rx="24" fill="#F4F2F0"/>
<g clip-path="url(#clip0_130_745)">
<path d="M426.315 79.5867H73.686C64.456 79.5867 56.9736 87.0691 56.9736 96.299V133.703C56.9736 142.933 64.456 150.415 73.686 150.415H426.315C435.545 150.415 443.027 142.933 443.027 133.703V96.299C443.027 87.0691 435.545 79.5867 426.315 79.5867Z" fill="white"/>
<path d="M82.5049 111.276C82.4291 110.603 82.1166 110.082 81.5674 109.713C81.0181 109.339 80.3269 109.152 79.4935 109.152C78.8969 109.152 78.3808 109.247 77.9452 109.436C77.5096 109.621 77.1711 109.876 76.9296 110.203C76.6929 110.525 76.5745 110.892 76.5745 111.304C76.5745 111.65 76.655 111.948 76.816 112.199C76.9817 112.45 77.1971 112.661 77.4623 112.831C77.7322 112.997 78.021 113.136 78.3287 113.25C78.6365 113.359 78.9324 113.449 79.2165 113.52L80.637 113.889C81.101 114.003 81.5769 114.157 82.0645 114.351C82.5522 114.545 83.0044 114.801 83.4211 115.118C83.8377 115.435 84.1739 115.828 84.4296 116.297C84.69 116.766 84.8202 117.327 84.8202 117.98C84.8202 118.804 84.6072 119.536 84.181 120.175C83.7596 120.814 83.1465 121.318 82.3415 121.688C81.5413 122.057 80.5731 122.241 79.4367 122.241C78.3477 122.241 77.4055 122.069 76.61 121.723C75.8145 121.377 75.1919 120.887 74.7421 120.253C74.2923 119.614 74.0437 118.856 73.9964 117.98H76.1981C76.2407 118.506 76.4111 118.944 76.7094 119.294C77.0125 119.64 77.3983 119.898 77.8671 120.068C78.3406 120.234 78.859 120.317 79.4225 120.317C80.0428 120.317 80.5944 120.22 81.0773 120.026C81.565 119.827 81.9485 119.552 82.2279 119.202C82.5073 118.847 82.6469 118.432 82.6469 117.959C82.6469 117.528 82.5238 117.175 82.2776 116.901C82.0361 116.626 81.7071 116.399 81.2904 116.219C80.8785 116.039 80.4121 115.88 79.8912 115.743L78.1725 115.274C77.0077 114.957 76.0844 114.491 75.4026 113.875C74.7255 113.259 74.387 112.445 74.387 111.432C74.387 110.594 74.6143 109.862 75.0688 109.237C75.5233 108.612 76.1389 108.127 76.9154 107.781C77.6919 107.431 78.5679 107.256 79.5432 107.256C80.5281 107.256 81.3969 107.429 82.1498 107.774C82.9073 108.12 83.5039 108.596 83.9395 109.202C84.3751 109.803 84.6024 110.494 84.6214 111.276H82.5049ZM91.974 122.22C90.8992 122.22 89.9735 121.991 89.197 121.531C88.4252 121.067 87.8286 120.416 87.4072 119.578C86.9906 118.735 86.7822 117.748 86.7822 116.616C86.7822 115.499 86.9906 114.514 87.4072 113.662C87.8286 112.81 88.4157 112.144 89.1686 111.666C89.9262 111.188 90.8116 110.949 91.8248 110.949C92.4404 110.949 93.037 111.051 93.6146 111.254C94.1923 111.458 94.7107 111.777 95.17 112.213C95.6293 112.649 95.9915 113.214 96.2567 113.911C96.5218 114.602 96.6544 115.442 96.6544 116.432V117.185H87.9825V115.594H94.5734C94.5734 115.035 94.4598 114.54 94.2325 114.109C94.0052 113.674 93.6856 113.33 93.2737 113.08C92.8665 112.829 92.3883 112.703 91.839 112.703C91.2425 112.703 90.7216 112.85 90.2765 113.143C89.8362 113.432 89.4953 113.811 89.2538 114.28C89.0171 114.744 88.8987 115.248 88.8987 115.793V117.036C88.8987 117.765 89.0265 118.385 89.2822 118.896C89.5426 119.408 89.9049 119.798 90.3689 120.068C90.8329 120.333 91.375 120.466 91.9953 120.466C92.3978 120.466 92.7647 120.409 93.0961 120.295C93.4276 120.177 93.714 120.002 93.9555 119.77C94.197 119.538 94.3817 119.251 94.5095 118.911L96.5194 119.273C96.3585 119.865 96.0696 120.383 95.653 120.828C95.241 121.268 94.7226 121.612 94.0976 121.858C93.4773 122.099 92.7694 122.22 91.974 122.22ZM101.134 107.455V122H99.0106V107.455H101.134ZM108.693 122.22C107.618 122.22 106.692 121.991 105.916 121.531C105.144 121.067 104.547 120.416 104.126 119.578C103.709 118.735 103.501 117.748 103.501 116.616C103.501 115.499 103.709 114.514 104.126 113.662C104.547 112.81 105.134 112.144 105.887 111.666C106.645 111.188 107.53 110.949 108.544 110.949C109.159 110.949 109.756 111.051 110.333 111.254C110.911 111.458 111.429 111.777 111.889 112.213C112.348 112.649 112.71 113.214 112.975 113.911C113.241 114.602 113.373 115.442 113.373 116.432V117.185H104.701V115.594H111.292C111.292 115.035 111.179 114.54 110.951 114.109C110.724 113.674 110.404 113.33 109.992 113.08C109.585 112.829 109.107 112.703 108.558 112.703C107.961 112.703 107.44 112.85 106.995 113.143C106.555 113.432 106.214 113.811 105.973 114.28C105.736 114.744 105.617 115.248 105.617 115.793V117.036C105.617 117.765 105.745 118.385 106.001 118.896C106.261 119.408 106.624 119.798 107.088 120.068C107.552 120.333 108.094 120.466 108.714 120.466C109.117 120.466 109.483 120.409 109.815 120.295C110.146 120.177 110.433 120.002 110.674 119.77C110.916 119.538 111.1 119.251 111.228 118.911L113.238 119.273C113.077 119.865 112.788 120.383 112.372 120.828C111.96 121.268 111.441 121.612 110.816 121.858C110.196 122.099 109.488 122.22 108.693 122.22ZM120.324 122.22C119.269 122.22 118.36 121.981 117.597 121.503C116.84 121.02 116.257 120.355 115.85 119.507C115.443 118.66 115.239 117.689 115.239 116.595C115.239 115.487 115.448 114.509 115.864 113.662C116.281 112.81 116.868 112.144 117.626 111.666C118.383 111.188 119.276 110.949 120.303 110.949C121.132 110.949 121.87 111.103 122.519 111.411C123.168 111.714 123.691 112.14 124.089 112.689C124.491 113.238 124.73 113.88 124.806 114.614H122.739C122.626 114.102 122.365 113.662 121.958 113.293C121.556 112.923 121.016 112.739 120.339 112.739C119.747 112.739 119.228 112.895 118.783 113.207C118.343 113.515 118 113.955 117.753 114.528C117.507 115.097 117.384 115.769 117.384 116.545C117.384 117.341 117.505 118.027 117.746 118.605C117.988 119.183 118.329 119.63 118.769 119.947C119.214 120.265 119.737 120.423 120.339 120.423C120.741 120.423 121.106 120.35 121.432 120.203C121.764 120.052 122.041 119.836 122.263 119.557C122.491 119.277 122.649 118.941 122.739 118.548H124.806C124.73 119.254 124.501 119.884 124.117 120.438C123.734 120.991 123.22 121.427 122.576 121.744C121.937 122.062 121.186 122.22 120.324 122.22ZM132.169 111.091V112.795H126.21V111.091H132.169ZM127.809 108.477H129.932V118.797C129.932 119.209 129.994 119.519 130.117 119.727C130.24 119.931 130.398 120.071 130.593 120.146C130.791 120.217 131.007 120.253 131.239 120.253C131.409 120.253 131.559 120.241 131.686 120.217C131.814 120.194 131.914 120.175 131.985 120.161L132.368 121.915C132.245 121.962 132.07 122.009 131.843 122.057C131.615 122.109 131.331 122.137 130.99 122.142C130.432 122.152 129.911 122.052 129.428 121.844C128.945 121.635 128.554 121.313 128.256 120.878C127.958 120.442 127.809 119.895 127.809 119.237V108.477ZM139.811 122V111.091H141.935V122H139.811ZM140.884 109.408C140.514 109.408 140.197 109.285 139.932 109.038C139.672 108.787 139.541 108.489 139.541 108.143C139.541 107.793 139.672 107.495 139.932 107.249C140.197 106.998 140.514 106.872 140.884 106.872C141.253 106.872 141.568 106.998 141.828 107.249C142.094 107.495 142.226 107.793 142.226 108.143C142.226 108.489 142.094 108.787 141.828 109.038C141.568 109.285 141.253 109.408 140.884 109.408ZM146.915 115.523V122H144.792V111.091H146.83V112.866H146.965C147.216 112.289 147.609 111.825 148.144 111.474C148.684 111.124 149.363 110.949 150.182 110.949C150.926 110.949 151.577 111.105 152.136 111.418C152.694 111.725 153.128 112.185 153.435 112.795C153.743 113.406 153.897 114.161 153.897 115.061V122H151.773V115.317C151.773 114.526 151.567 113.908 151.155 113.463C150.744 113.013 150.178 112.788 149.458 112.788C148.966 112.788 148.528 112.895 148.144 113.108C147.765 113.321 147.465 113.634 147.242 114.045C147.024 114.453 146.915 114.945 146.915 115.523ZM161.837 111.091V112.795H155.878V111.091H161.837ZM157.476 108.477H159.6V118.797C159.6 119.209 159.662 119.519 159.785 119.727C159.908 119.931 160.066 120.071 160.261 120.146C160.459 120.217 160.675 120.253 160.907 120.253C161.077 120.253 161.226 120.241 161.354 120.217C161.482 120.194 161.582 120.175 161.653 120.161L162.036 121.915C161.913 121.962 161.738 122.009 161.511 122.057C161.283 122.109 160.999 122.137 160.658 122.142C160.1 122.152 159.579 122.052 159.096 121.844C158.613 121.635 158.222 121.313 157.924 120.878C157.626 120.442 157.476 119.895 157.476 119.237V108.477ZM168.771 122.22C167.696 122.22 166.77 121.991 165.994 121.531C165.222 121.067 164.626 120.416 164.204 119.578C163.787 118.735 163.579 117.748 163.579 116.616C163.579 115.499 163.787 114.514 164.204 113.662C164.626 112.81 165.213 112.144 165.965 111.666C166.723 111.188 167.608 110.949 168.622 110.949C169.237 110.949 169.834 111.051 170.411 111.254C170.989 111.458 171.508 111.777 171.967 112.213C172.426 112.649 172.788 113.214 173.054 113.911C173.319 114.602 173.451 115.442 173.451 116.432V117.185H164.779V115.594H171.37C171.37 115.035 171.257 114.54 171.029 114.109C170.802 113.674 170.483 113.33 170.071 113.08C169.663 112.829 169.185 112.703 168.636 112.703C168.039 112.703 167.518 112.85 167.073 113.143C166.633 113.432 166.292 113.811 166.051 114.28C165.814 114.744 165.696 115.248 165.696 115.793V117.036C165.696 117.765 165.823 118.385 166.079 118.896C166.34 119.408 166.702 119.798 167.166 120.068C167.63 120.333 168.172 120.466 168.792 120.466C169.195 120.466 169.562 120.409 169.893 120.295C170.224 120.177 170.511 120.002 170.752 119.77C170.994 119.538 171.179 119.251 171.306 118.911L173.316 119.273C173.155 119.865 172.867 120.383 172.45 120.828C172.038 121.268 171.519 121.612 170.894 121.858C170.274 122.099 169.566 122.22 168.771 122.22ZM175.807 122V111.091H177.86V112.824H177.974C178.172 112.237 178.523 111.775 179.025 111.439C179.531 111.098 180.104 110.928 180.744 110.928C180.876 110.928 181.032 110.932 181.212 110.942C181.397 110.951 181.541 110.963 181.646 110.977V113.009C181.56 112.985 181.409 112.959 181.191 112.93C180.973 112.897 180.755 112.881 180.538 112.881C180.036 112.881 179.588 112.987 179.195 113.2C178.807 113.409 178.499 113.7 178.272 114.074C178.045 114.443 177.931 114.865 177.931 115.338V122H175.807ZM193.148 111.091L189.192 122H186.919L182.956 111.091H185.236L187.998 119.486H188.112L190.868 111.091H193.148ZM195.143 122V111.091H197.267V122H195.143ZM196.216 109.408C195.847 109.408 195.529 109.285 195.264 109.038C195.004 108.787 194.873 108.489 194.873 108.143C194.873 107.793 195.004 107.495 195.264 107.249C195.529 106.998 195.847 106.872 196.216 106.872C196.585 106.872 196.9 106.998 197.16 107.249C197.426 107.495 197.558 107.793 197.558 108.143C197.558 108.489 197.426 108.787 197.16 109.038C196.9 109.285 196.585 109.408 196.216 109.408ZM204.826 122.22C203.751 122.22 202.825 121.991 202.049 121.531C201.277 121.067 200.68 120.416 200.259 119.578C199.842 118.735 199.634 117.748 199.634 116.616C199.634 115.499 199.842 114.514 200.259 113.662C200.68 112.81 201.267 112.144 202.02 111.666C202.778 111.188 203.663 110.949 204.676 110.949C205.292 110.949 205.889 111.051 206.466 111.254C207.044 111.458 207.562 111.777 208.022 112.213C208.481 112.649 208.843 113.214 209.108 113.911C209.373 114.602 209.506 115.442 209.506 116.432V117.185H200.834V115.594H207.425C207.425 115.035 207.311 114.54 207.084 114.109C206.857 113.674 206.537 113.33 206.125 113.08C205.718 112.829 205.24 112.703 204.691 112.703C204.094 112.703 203.573 112.85 203.128 113.143C202.688 113.432 202.347 113.811 202.105 114.28C201.869 114.744 201.75 115.248 201.75 115.793V117.036C201.75 117.765 201.878 118.385 202.134 118.896C202.394 119.408 202.756 119.798 203.22 120.068C203.684 120.333 204.227 120.466 204.847 120.466C205.249 120.466 205.616 120.409 205.948 120.295C206.279 120.177 206.566 120.002 206.807 119.77C207.049 119.538 207.233 119.251 207.361 118.911L209.371 119.273C209.21 119.865 208.921 120.383 208.505 120.828C208.093 121.268 207.574 121.612 206.949 121.858C206.329 122.099 205.621 122.22 204.826 122.22ZM214.208 122L210.997 111.091H213.192L215.33 119.102H215.436L217.581 111.091H219.776L221.907 119.067H222.013L224.137 111.091H226.331L223.128 122H220.962L218.746 114.124H218.583L216.367 122H214.208ZM238.831 111.091V112.795H232.666V111.091H238.831ZM234.357 122V109.827C234.357 109.145 234.506 108.579 234.804 108.129C235.103 107.675 235.498 107.336 235.99 107.114C236.483 106.886 237.018 106.773 237.595 106.773C238.022 106.773 238.386 106.808 238.689 106.879C238.992 106.946 239.217 107.007 239.364 107.064L238.867 108.783C238.767 108.754 238.639 108.721 238.483 108.683C238.327 108.641 238.138 108.619 237.915 108.619C237.399 108.619 237.03 108.747 236.807 109.003C236.589 109.259 236.48 109.628 236.48 110.111V122H234.357ZM245.188 122.22C244.165 122.22 243.273 121.986 242.51 121.517C241.748 121.048 241.156 120.393 240.735 119.55C240.313 118.707 240.103 117.722 240.103 116.595C240.103 115.464 240.313 114.474 240.735 113.626C241.156 112.779 241.748 112.121 242.51 111.652C243.273 111.183 244.165 110.949 245.188 110.949C246.21 110.949 247.103 111.183 247.865 111.652C248.628 112.121 249.219 112.779 249.641 113.626C250.062 114.474 250.273 115.464 250.273 116.595C250.273 117.722 250.062 118.707 249.641 119.55C249.219 120.393 248.628 121.048 247.865 121.517C247.103 121.986 246.21 122.22 245.188 122.22ZM245.195 120.438C245.858 120.438 246.407 120.262 246.843 119.912C247.278 119.562 247.6 119.095 247.809 118.513C248.022 117.93 248.128 117.289 248.128 116.588C248.128 115.892 248.022 115.253 247.809 114.67C247.6 114.083 247.278 113.612 246.843 113.257C246.407 112.902 245.858 112.724 245.195 112.724C244.527 112.724 243.973 112.902 243.533 113.257C243.097 113.612 242.773 114.083 242.56 114.67C242.352 115.253 242.247 115.892 242.247 116.588C242.247 117.289 242.352 117.93 242.56 118.513C242.773 119.095 243.097 119.562 243.533 119.912C243.973 120.262 244.527 120.438 245.195 120.438ZM257.239 122.22C256.183 122.22 255.274 121.981 254.511 121.503C253.754 121.02 253.171 120.355 252.764 119.507C252.357 118.66 252.153 117.689 252.153 116.595C252.153 115.487 252.362 114.509 252.778 113.662C253.195 112.81 253.782 112.144 254.54 111.666C255.297 111.188 256.19 110.949 257.217 110.949C258.046 110.949 258.784 111.103 259.433 111.411C260.082 111.714 260.605 112.14 261.003 112.689C261.405 113.238 261.644 113.88 261.72 114.614H259.653C259.54 114.102 259.279 113.662 258.872 113.293C258.47 112.923 257.93 112.739 257.253 112.739C256.661 112.739 256.142 112.895 255.697 113.207C255.257 113.515 254.914 113.955 254.668 114.528C254.421 115.097 254.298 115.769 254.298 116.545C254.298 117.341 254.419 118.027 254.66 118.605C254.902 119.183 255.243 119.63 255.683 119.947C256.128 120.265 256.651 120.423 257.253 120.423C257.655 120.423 258.02 120.35 258.347 120.203C258.678 120.052 258.955 119.836 259.177 119.557C259.405 119.277 259.563 118.941 259.653 118.548H261.72C261.644 119.254 261.415 119.884 261.031 120.438C260.648 120.991 260.134 121.427 259.49 121.744C258.851 122.062 258.1 122.22 257.239 122.22ZM270.902 117.476V111.091H273.032V122H270.944V120.111H270.831C270.58 120.693 270.177 121.179 269.623 121.567C269.074 121.95 268.39 122.142 267.571 122.142C266.87 122.142 266.25 121.988 265.71 121.68C265.175 121.368 264.753 120.906 264.446 120.295C264.143 119.685 263.991 118.929 263.991 118.03V111.091H266.115V117.774C266.115 118.518 266.321 119.109 266.733 119.55C267.144 119.99 267.679 120.21 268.338 120.21C268.735 120.21 269.131 120.111 269.524 119.912C269.921 119.713 270.251 119.412 270.511 119.01C270.776 118.607 270.906 118.096 270.902 117.476ZM284.06 113.754L282.136 114.095C282.055 113.849 281.927 113.615 281.752 113.392C281.582 113.17 281.35 112.987 281.056 112.845C280.762 112.703 280.396 112.632 279.955 112.632C279.354 112.632 278.852 112.767 278.449 113.037C278.047 113.302 277.846 113.645 277.846 114.067C277.846 114.431 277.981 114.725 278.251 114.947C278.521 115.17 278.956 115.352 279.557 115.494L281.29 115.892C282.294 116.124 283.042 116.482 283.535 116.964C284.027 117.447 284.273 118.075 284.273 118.847C284.273 119.5 284.084 120.082 283.705 120.594C283.331 121.1 282.808 121.498 282.136 121.787C281.468 122.076 280.694 122.22 279.813 122.22C278.592 122.22 277.595 121.96 276.823 121.439C276.051 120.913 275.578 120.168 275.403 119.202L277.455 118.889C277.583 119.424 277.846 119.829 278.244 120.104C278.641 120.374 279.16 120.509 279.799 120.509C280.495 120.509 281.051 120.364 281.468 120.075C281.885 119.782 282.093 119.424 282.093 119.003C282.093 118.662 281.965 118.375 281.709 118.143C281.458 117.911 281.073 117.736 280.552 117.618L278.705 117.213C277.687 116.981 276.934 116.612 276.447 116.105C275.964 115.598 275.722 114.957 275.722 114.18C275.722 113.536 275.902 112.973 276.262 112.49C276.622 112.007 277.119 111.631 277.753 111.361C278.388 111.086 279.115 110.949 279.934 110.949C281.113 110.949 282.041 111.205 282.718 111.716C283.395 112.223 283.842 112.902 284.06 113.754Z" fill="#0F1723"/>
<path d="M413.45 119.282L404.499 109.942L395.548 119.282" stroke="#0F1723" stroke-width="2.335" stroke-linecap="round" stroke-linejoin="round"/>
<path d="M426.315 156.642H73.686C64.456 156.642 56.9736 164.124 56.9736 173.354V363.311C56.9736 372.541 64.456 380.023 73.686 380.023H426.315C435.545 380.023 443.027 372.541 443.027 363.311V173.354C443.027 164.124 435.545 156.642 426.315 156.642Z" fill="white"/>
<path d="M415.831 159H77.2124C67.9824 159 60.5 166.482 60.5 175.712V213.116C60.5 222.346 67.9824 229.828 77.2124 229.828H415.831C425.061 229.828 432.543 222.346 432.543 213.116V175.712C432.543 166.482 425.061 159 415.831 159Z" fill="white"/>
<path d="M418.531 232.918H79.9126C70.6826 232.918 63.2002 240.401 63.2002 249.631V287.034C63.2002 296.264 70.6826 303.747 79.9126 303.747H418.531C427.761 303.747 435.243 296.264 435.243 287.034V249.631C435.243 240.401 427.761 232.918 418.531 232.918Z" fill="#F9F9F9"/>
<path fill-rule="evenodd" clip-rule="evenodd" d="M302.712 293.701C302.191 293.939 301.749 294.321 301.438 294.802L297.059 301.574C295.896 303.374 293.156 302.972 292.559 300.914L286.4 279.703C286.074 278.578 286.553 277.528 287.373 276.954C287.733 276.65 288.173 276.455 288.64 276.393C289.107 276.331 289.582 276.405 290.009 276.605L310.095 285.79C312.044 286.681 312.042 289.45 310.092 290.338L302.712 293.701Z" fill="#08A105"/>
<path d="M332.688 294.427H319.456C309.784 294.427 301.943 302.267 301.943 311.939C301.943 321.611 309.784 329.452 319.456 329.452H332.688C342.359 329.452 350.2 321.611 350.2 311.939C350.2 302.267 342.359 294.427 332.688 294.427Z" fill="#08A105"/>
<path d="M315.26 306.06C316.097 307.654 316.924 309.252 317.743 310.855H317.757C318.585 309.292 319.259 307.944 320.209 306.06H322.4L318.677 312.694V316.999H316.731V312.694L313.039 306.06H315.26ZM325.439 317.228C323.111 317.228 321.318 315.559 321.318 313.031C321.318 310.518 323.111 308.863 325.439 308.863C327.768 308.863 329.546 310.518 329.546 313.031C329.546 315.559 327.768 317.228 325.439 317.228ZM323.157 313.031C323.157 314.502 324.061 315.712 325.439 315.712C326.819 315.712 327.722 314.502 327.722 313.031C327.722 311.56 326.819 310.349 325.439 310.349C324.061 310.349 323.157 311.56 323.157 313.031ZM330.859 313.965V309.077H332.729V313.551C332.729 314.731 333.08 315.589 334.199 315.589C335.287 315.589 336.053 314.639 336.053 312.694V309.077H337.922V316.999H336.084V315.62C335.654 316.524 334.934 317.213 333.708 317.213C331.656 317.213 330.859 315.85 330.859 313.965Z" fill="white"/>
<path d="M86.0312 190.276C85.9555 189.603 85.643 189.082 85.0938 188.713C84.5445 188.339 83.8532 188.152 83.0199 188.152C82.4233 188.152 81.9072 188.247 81.4716 188.436C81.036 188.621 80.6974 188.876 80.456 189.203C80.2192 189.525 80.1009 189.892 80.1009 190.304C80.1009 190.65 80.1813 190.948 80.3423 191.199C80.508 191.45 80.7235 191.661 80.9886 191.831C81.2585 191.997 81.5473 192.136 81.8551 192.25C82.1629 192.359 82.4588 192.449 82.7429 192.52L84.1634 192.889C84.6274 193.003 85.1032 193.157 85.5909 193.351C86.0786 193.545 86.5308 193.801 86.9474 194.118C87.3641 194.435 87.7003 194.828 87.956 195.297C88.2164 195.766 88.3466 196.327 88.3466 196.98C88.3466 197.804 88.1335 198.536 87.7074 199.175C87.286 199.814 86.6728 200.318 85.8679 200.688C85.0677 201.057 84.0994 201.241 82.9631 201.241C81.8741 201.241 80.9318 201.069 80.1364 200.723C79.3409 200.377 78.7183 199.887 78.2685 199.253C77.8187 198.614 77.5701 197.856 77.5227 196.98H79.7244C79.767 197.506 79.9375 197.944 80.2358 198.294C80.5388 198.64 80.9247 198.898 81.3935 199.068C81.867 199.234 82.3854 199.317 82.9489 199.317C83.5691 199.317 84.1207 199.22 84.6037 199.026C85.0914 198.827 85.4749 198.552 85.7543 198.202C86.0336 197.847 86.1733 197.432 86.1733 196.959C86.1733 196.528 86.0502 196.175 85.804 195.901C85.5625 195.626 85.2334 195.399 84.8168 195.219C84.4048 195.039 83.9384 194.88 83.4176 194.743L81.6989 194.274C80.5341 193.957 79.6108 193.491 78.929 192.875C78.2519 192.259 77.9134 191.445 77.9134 190.432C77.9134 189.594 78.1406 188.862 78.5952 188.237C79.0497 187.612 79.6652 187.127 80.4418 186.781C81.2183 186.431 82.0942 186.256 83.0696 186.256C84.0545 186.256 84.9233 186.429 85.6761 186.774C86.4337 187.12 87.0303 187.596 87.4659 188.202C87.9015 188.803 88.1288 189.494 88.1477 190.276H86.0312ZM92.141 205.091C91.8237 205.091 91.5349 205.065 91.2745 205.013C91.0141 204.965 90.82 204.913 90.6921 204.857L91.2035 203.116C91.5917 203.221 91.9374 203.266 92.2404 203.251C92.5434 203.237 92.811 203.124 93.043 202.911C93.2797 202.697 93.488 202.349 93.668 201.866L93.9308 201.142L89.9393 190.091H92.212L94.9748 198.557H95.0884L97.8512 190.091H100.131L95.6353 202.456C95.427 203.024 95.1618 203.505 94.8398 203.898C94.5179 204.295 94.1344 204.594 93.6893 204.793C93.2442 204.991 92.7281 205.091 92.141 205.091ZM110.301 192.754L108.377 193.095C108.296 192.849 108.168 192.615 107.993 192.392C107.823 192.17 107.591 191.987 107.297 191.845C107.004 191.703 106.637 191.632 106.196 191.632C105.595 191.632 105.093 191.767 104.691 192.037C104.288 192.302 104.087 192.645 104.087 193.067C104.087 193.431 104.222 193.725 104.492 193.947C104.762 194.17 105.197 194.352 105.799 194.494L107.532 194.892C108.535 195.124 109.283 195.482 109.776 195.964C110.268 196.447 110.515 197.075 110.515 197.847C110.515 198.5 110.325 199.082 109.946 199.594C109.572 200.1 109.049 200.498 108.377 200.787C107.709 201.076 106.935 201.22 106.054 201.22C104.833 201.22 103.836 200.96 103.064 200.439C102.292 199.913 101.819 199.168 101.644 198.202L103.696 197.889C103.824 198.424 104.087 198.829 104.485 199.104C104.882 199.374 105.401 199.509 106.04 199.509C106.736 199.509 107.292 199.364 107.709 199.075C108.126 198.782 108.334 198.424 108.334 198.003C108.334 197.662 108.206 197.375 107.951 197.143C107.7 196.911 107.314 196.736 106.793 196.618L104.946 196.213C103.928 195.981 103.176 195.612 102.688 195.105C102.205 194.598 101.963 193.957 101.963 193.18C101.963 192.536 102.143 191.973 102.503 191.49C102.863 191.007 103.36 190.631 103.995 190.361C104.629 190.086 105.356 189.949 106.175 189.949C107.354 189.949 108.282 190.205 108.959 190.716C109.636 191.223 110.084 191.902 110.301 192.754ZM117.942 190.091V191.795H111.983V190.091H117.942ZM113.581 187.477H115.705V197.797C115.705 198.209 115.766 198.519 115.889 198.727C116.012 198.931 116.171 199.071 116.365 199.146C116.564 199.217 116.779 199.253 117.011 199.253C117.182 199.253 117.331 199.241 117.459 199.217C117.587 199.194 117.686 199.175 117.757 199.161L118.141 200.915C118.018 200.962 117.842 201.009 117.615 201.057C117.388 201.109 117.104 201.137 116.763 201.142C116.204 201.152 115.683 201.052 115.2 200.844C114.717 200.635 114.327 200.313 114.028 199.878C113.73 199.442 113.581 198.895 113.581 198.237V187.477ZM124.875 201.22C123.801 201.22 122.875 200.991 122.098 200.531C121.327 200.067 120.73 199.416 120.309 198.578C119.892 197.735 119.684 196.748 119.684 195.616C119.684 194.499 119.892 193.514 120.309 192.662C120.73 191.81 121.317 191.144 122.07 190.666C122.828 190.188 123.713 189.949 124.726 189.949C125.342 189.949 125.938 190.051 126.516 190.254C127.094 190.458 127.612 190.777 128.071 191.213C128.531 191.649 128.893 192.214 129.158 192.911C129.423 193.602 129.556 194.442 129.556 195.432V196.185H120.884V194.594H127.475C127.475 194.035 127.361 193.54 127.134 193.109C126.907 192.674 126.587 192.33 126.175 192.08C125.768 191.829 125.29 191.703 124.74 191.703C124.144 191.703 123.623 191.85 123.178 192.143C122.738 192.432 122.397 192.811 122.155 193.28C121.918 193.744 121.8 194.248 121.8 194.793V196.036C121.8 196.765 121.928 197.385 122.184 197.896C122.444 198.408 122.806 198.798 123.27 199.068C123.734 199.333 124.276 199.466 124.897 199.466C125.299 199.466 125.666 199.409 125.998 199.295C126.329 199.177 126.615 199.002 126.857 198.77C127.098 198.538 127.283 198.251 127.411 197.911L129.421 198.273C129.26 198.865 128.971 199.383 128.554 199.828C128.142 200.268 127.624 200.612 126.999 200.858C126.379 201.099 125.671 201.22 124.875 201.22ZM131.912 201V190.091H133.95V191.866H134.085C134.313 191.265 134.684 190.796 135.2 190.46C135.716 190.119 136.334 189.949 137.054 189.949C137.783 189.949 138.394 190.119 138.886 190.46C139.384 190.801 139.75 191.27 139.987 191.866H140.101C140.361 191.284 140.776 190.82 141.344 190.474C141.912 190.124 142.589 189.949 143.375 189.949C144.365 189.949 145.172 190.259 145.797 190.879C146.427 191.5 146.741 192.435 146.741 193.685V201H144.618V193.884C144.618 193.145 144.417 192.61 144.014 192.278C143.612 191.947 143.131 191.781 142.572 191.781C141.881 191.781 141.344 191.994 140.96 192.42C140.577 192.842 140.385 193.384 140.385 194.047V201H138.268V193.749C138.268 193.157 138.084 192.681 137.714 192.321C137.345 191.961 136.865 191.781 136.273 191.781C135.87 191.781 135.499 191.888 135.158 192.101C134.821 192.309 134.549 192.6 134.341 192.974C134.137 193.348 134.036 193.782 134.036 194.274V201H131.912ZM157.762 192.754L155.838 193.095C155.757 192.849 155.629 192.615 155.454 192.392C155.284 192.17 155.052 191.987 154.758 191.845C154.465 191.703 154.098 191.632 153.657 191.632C153.056 191.632 152.554 191.767 152.152 192.037C151.749 192.302 151.548 192.645 151.548 193.067C151.548 193.431 151.683 193.725 151.953 193.947C152.223 194.17 152.658 194.352 153.26 194.494L154.993 194.892C155.996 195.124 156.744 195.482 157.237 195.964C157.729 196.447 157.975 197.075 157.975 197.847C157.975 198.5 157.786 199.082 157.407 199.594C157.033 200.1 156.51 200.498 155.838 200.787C155.17 201.076 154.396 201.22 153.515 201.22C152.294 201.22 151.297 200.96 150.525 200.439C149.753 199.913 149.28 199.168 149.105 198.202L151.157 197.889C151.285 198.424 151.548 198.829 151.946 199.104C152.343 199.374 152.862 199.509 153.501 199.509C154.197 199.509 154.753 199.364 155.17 199.075C155.587 198.782 155.795 198.424 155.795 198.003C155.795 197.662 155.667 197.375 155.412 197.143C155.161 196.911 154.775 196.736 154.254 196.618L152.407 196.213C151.389 195.981 150.636 195.612 150.149 195.105C149.666 194.598 149.424 193.957 149.424 193.18C149.424 192.536 149.604 191.973 149.964 191.49C150.324 191.007 150.821 190.631 151.456 190.361C152.09 190.086 152.817 189.949 153.636 189.949C154.815 189.949 155.743 190.205 156.42 190.716C157.097 191.223 157.545 191.902 157.762 192.754ZM170.483 201H165.774V186.455H170.632C172.057 186.455 173.281 186.746 174.304 187.328C175.326 187.906 176.11 188.737 176.654 189.821C177.204 190.901 177.478 192.196 177.478 193.706C177.478 195.221 177.201 196.523 176.647 197.612C176.098 198.701 175.303 199.539 174.261 200.126C173.219 200.709 171.96 201 170.483 201ZM167.968 199.082H170.362C171.47 199.082 172.391 198.874 173.125 198.457C173.859 198.036 174.408 197.428 174.772 196.632C175.137 195.832 175.319 194.857 175.319 193.706C175.319 192.565 175.137 191.597 174.772 190.801C174.413 190.006 173.875 189.402 173.16 188.99C172.445 188.578 171.557 188.372 170.497 188.372H167.968V199.082ZM184.739 201.22C183.664 201.22 182.738 200.991 181.962 200.531C181.19 200.067 180.593 199.416 180.172 198.578C179.755 197.735 179.547 196.748 179.547 195.616C179.547 194.499 179.755 193.514 180.172 192.662C180.593 191.81 181.18 191.144 181.933 190.666C182.691 190.188 183.576 189.949 184.589 189.949C185.205 189.949 185.802 190.051 186.379 190.254C186.957 190.458 187.475 190.777 187.935 191.213C188.394 191.649 188.756 192.214 189.021 192.911C189.286 193.602 189.419 194.442 189.419 195.432V196.185H180.747V194.594H187.338C187.338 194.035 187.224 193.54 186.997 193.109C186.77 192.674 186.45 192.33 186.038 192.08C185.631 191.829 185.153 191.703 184.604 191.703C184.007 191.703 183.486 191.85 183.041 192.143C182.601 192.432 182.26 192.811 182.018 193.28C181.782 193.744 181.663 194.248 181.663 194.793V196.036C181.663 196.765 181.791 197.385 182.047 197.896C182.307 198.408 182.67 198.798 183.134 199.068C183.598 199.333 184.14 199.466 184.76 199.466C185.162 199.466 185.529 199.409 185.861 199.295C186.192 199.177 186.479 199.002 186.72 198.77C186.962 198.538 187.146 198.251 187.274 197.911L189.284 198.273C189.123 198.865 188.834 199.383 188.418 199.828C188.006 200.268 187.487 200.612 186.862 200.858C186.242 201.099 185.534 201.22 184.739 201.22ZM199.95 192.754L198.025 193.095C197.945 192.849 197.817 192.615 197.642 192.392C197.471 192.17 197.239 191.987 196.946 191.845C196.652 191.703 196.285 191.632 195.845 191.632C195.243 191.632 194.742 191.767 194.339 192.037C193.937 192.302 193.735 192.645 193.735 193.067C193.735 193.431 193.87 193.725 194.14 193.947C194.41 194.17 194.846 194.352 195.447 194.494L197.18 194.892C198.184 195.124 198.932 195.482 199.424 195.964C199.917 196.447 200.163 197.075 200.163 197.847C200.163 198.5 199.974 199.082 199.595 199.594C199.221 200.1 198.698 200.498 198.025 200.787C197.358 201.076 196.583 201.22 195.703 201.22C194.481 201.22 193.484 200.96 192.713 200.439C191.941 199.913 191.467 199.168 191.292 198.202L193.345 197.889C193.473 198.424 193.735 198.829 194.133 199.104C194.531 199.374 195.049 199.509 195.689 199.509C196.385 199.509 196.941 199.364 197.358 199.075C197.774 198.782 197.983 198.424 197.983 198.003C197.983 197.662 197.855 197.375 197.599 197.143C197.348 196.911 196.962 196.736 196.441 196.618L194.595 196.213C193.577 195.981 192.824 195.612 192.336 195.105C191.853 194.598 191.612 193.957 191.612 193.18C191.612 192.536 191.792 191.973 192.152 191.49C192.511 191.007 193.009 190.631 193.643 190.361C194.278 190.086 195.004 189.949 195.824 189.949C197.002 189.949 197.931 190.205 198.608 190.716C199.285 191.223 199.732 191.902 199.95 192.754ZM202.498 201V190.091H204.621V201H202.498ZM203.57 188.408C203.201 188.408 202.884 188.285 202.619 188.038C202.358 187.787 202.228 187.489 202.228 187.143C202.228 186.793 202.358 186.495 202.619 186.249C202.884 185.998 203.201 185.872 203.57 185.872C203.94 185.872 204.254 185.998 204.515 186.249C204.78 186.495 204.913 186.793 204.913 187.143C204.913 187.489 204.78 187.787 204.515 188.038C204.254 188.285 203.94 188.408 203.57 188.408ZM212.052 205.318C211.186 205.318 210.44 205.205 209.815 204.977C209.195 204.75 208.688 204.449 208.295 204.075C207.902 203.701 207.609 203.292 207.414 202.847L209.24 202.094C209.368 202.302 209.538 202.522 209.751 202.754C209.969 202.991 210.262 203.192 210.632 203.358C211.006 203.524 211.486 203.607 212.074 203.607C212.878 203.607 213.544 203.41 214.069 203.017C214.595 202.629 214.858 202.009 214.858 201.156V199.011H214.723C214.595 199.243 214.41 199.501 214.169 199.786C213.932 200.07 213.605 200.316 213.189 200.524C212.772 200.732 212.23 200.837 211.562 200.837C210.7 200.837 209.924 200.635 209.233 200.233C208.546 199.826 208.002 199.227 207.599 198.436C207.201 197.641 207.002 196.663 207.002 195.503C207.002 194.343 207.199 193.348 207.592 192.52C207.99 191.691 208.534 191.057 209.225 190.616C209.917 190.171 210.7 189.949 211.576 189.949C212.253 189.949 212.8 190.062 213.217 190.29C213.634 190.512 213.958 190.773 214.19 191.071C214.427 191.369 214.609 191.632 214.737 191.859H214.893V190.091H216.974V201.241C216.974 202.179 216.756 202.948 216.321 203.55C215.885 204.151 215.296 204.596 214.552 204.885C213.814 205.174 212.98 205.318 212.052 205.318ZM212.031 199.075C212.642 199.075 213.158 198.933 213.579 198.649C214.005 198.36 214.327 197.948 214.545 197.413C214.768 196.874 214.879 196.227 214.879 195.474C214.879 194.741 214.77 194.094 214.552 193.536C214.334 192.977 214.015 192.541 213.593 192.229C213.172 191.911 212.651 191.753 212.031 191.753C211.392 191.753 210.859 191.919 210.433 192.25C210.007 192.577 209.685 193.022 209.467 193.585C209.254 194.149 209.147 194.778 209.147 195.474C209.147 196.189 209.256 196.817 209.474 197.357C209.692 197.896 210.014 198.318 210.44 198.621C210.871 198.924 211.401 199.075 212.031 199.075ZM221.946 194.523V201H219.822V190.091H221.86V191.866H221.995C222.246 191.289 222.639 190.825 223.174 190.474C223.714 190.124 224.394 189.949 225.213 189.949C225.956 189.949 226.607 190.105 227.166 190.418C227.725 190.725 228.158 191.185 228.466 191.795C228.773 192.406 228.927 193.161 228.927 194.061V201H226.804V194.317C226.804 193.526 226.598 192.908 226.186 192.463C225.774 192.013 225.208 191.788 224.488 191.788C223.996 191.788 223.558 191.895 223.174 192.108C222.796 192.321 222.495 192.634 222.272 193.045C222.055 193.453 221.946 193.945 221.946 194.523Z" fill="#0F1723"/>
<path d="M82.8068 350H78.098V335.455H82.956C84.3812 335.455 85.6051 335.746 86.6278 336.328C87.6506 336.906 88.4342 337.737 88.9787 338.821C89.5279 339.901 89.8026 341.196 89.8026 342.706C89.8026 344.221 89.5256 345.523 88.9716 346.612C88.4223 347.701 87.6269 348.539 86.5852 349.126C85.5436 349.709 84.2841 350 82.8068 350ZM80.2926 348.082H82.6861C83.794 348.082 84.715 347.874 85.4489 347.457C86.1828 347.036 86.732 346.428 87.0966 345.632C87.4612 344.832 87.6435 343.857 87.6435 342.706C87.6435 341.565 87.4612 340.597 87.0966 339.801C86.7367 339.006 86.1993 338.402 85.4844 337.99C84.7694 337.578 83.8816 337.372 82.821 337.372H80.2926V348.082ZM95.5359 350.241C94.8446 350.241 94.2196 350.114 93.6609 349.858C93.1022 349.598 92.6594 349.221 92.3327 348.729C92.0108 348.236 91.8498 347.633 91.8498 346.918C91.8498 346.302 91.9682 345.795 92.2049 345.398C92.4416 345 92.7612 344.685 93.1637 344.453C93.5662 344.221 94.016 344.046 94.5131 343.928C95.0103 343.809 95.5169 343.719 96.033 343.658C96.6864 343.582 97.2167 343.52 97.6239 343.473C98.0311 343.421 98.3271 343.338 98.5117 343.224C98.6964 343.111 98.7887 342.926 98.7887 342.67V342.621C98.7887 342 98.6135 341.52 98.2631 341.179C97.9175 340.838 97.4014 340.668 96.7148 340.668C95.9999 340.668 95.4364 340.826 95.0245 341.143C94.6173 341.456 94.3356 341.804 94.1793 342.188L92.1836 341.733C92.4203 341.07 92.766 340.535 93.2205 340.128C93.6798 339.716 94.2077 339.418 94.8043 339.233C95.4009 339.044 96.0283 338.949 96.6864 338.949C97.122 338.949 97.5837 339.001 98.0714 339.105C98.5638 339.205 99.0231 339.389 99.4492 339.659C99.8801 339.929 100.233 340.315 100.507 340.817C100.782 341.314 100.919 341.96 100.919 342.756V350H98.8455V348.509H98.7603C98.623 348.783 98.417 349.053 98.1424 349.318C97.8678 349.583 97.515 349.804 97.0842 349.979C96.6533 350.154 96.1372 350.241 95.5359 350.241ZM95.9975 348.537C96.5846 348.537 97.0865 348.421 97.5032 348.189C97.9246 347.957 98.2442 347.654 98.462 347.28C98.6845 346.901 98.7958 346.496 98.7958 346.065V344.659C98.7201 344.735 98.5733 344.806 98.3555 344.872C98.1424 344.934 97.8986 344.988 97.6239 345.036C97.3493 345.078 97.0818 345.118 96.8214 345.156C96.561 345.189 96.3432 345.218 96.168 345.241C95.756 345.294 95.3796 345.381 95.0387 345.504C94.7025 345.627 94.4326 345.805 94.229 346.037C94.0302 346.264 93.9308 346.567 93.9308 346.946C93.9308 347.472 94.1249 347.869 94.5131 348.139C94.9014 348.404 95.3962 348.537 95.9975 348.537ZM108.84 339.091V340.795H102.881V339.091H108.84ZM104.479 336.477H106.603V346.797C106.603 347.209 106.665 347.519 106.788 347.727C106.911 347.931 107.069 348.071 107.263 348.146C107.462 348.217 107.678 348.253 107.91 348.253C108.08 348.253 108.229 348.241 108.357 348.217C108.485 348.194 108.585 348.175 108.656 348.161L109.039 349.915C108.916 349.962 108.741 350.009 108.513 350.057C108.286 350.109 108.002 350.137 107.661 350.142C107.103 350.152 106.582 350.052 106.099 349.844C105.616 349.635 105.225 349.313 104.927 348.878C104.629 348.442 104.479 347.895 104.479 347.237V336.477ZM114.364 350.241C113.673 350.241 113.048 350.114 112.489 349.858C111.93 349.598 111.488 349.221 111.161 348.729C110.839 348.236 110.678 347.633 110.678 346.918C110.678 346.302 110.796 345.795 111.033 345.398C111.27 345 111.589 344.685 111.992 344.453C112.394 344.221 112.844 344.046 113.341 343.928C113.838 343.809 114.345 343.719 114.861 343.658C115.515 343.582 116.045 343.52 116.452 343.473C116.859 343.421 117.155 343.338 117.34 343.224C117.525 343.111 117.617 342.926 117.617 342.67V342.621C117.617 342 117.442 341.52 117.091 341.179C116.746 340.838 116.23 340.668 115.543 340.668C114.828 340.668 114.265 340.826 113.853 341.143C113.445 341.456 113.164 341.804 113.007 342.188L111.012 341.733C111.248 341.07 111.594 340.535 112.049 340.128C112.508 339.716 113.036 339.418 113.632 339.233C114.229 339.044 114.856 338.949 115.515 338.949C115.95 338.949 116.412 339.001 116.9 339.105C117.392 339.205 117.851 339.389 118.277 339.659C118.708 339.929 119.061 340.315 119.336 340.817C119.61 341.314 119.748 341.96 119.748 342.756V350H117.674V348.509H117.588C117.451 348.783 117.245 349.053 116.971 349.318C116.696 349.583 116.343 349.804 115.912 349.979C115.481 350.154 114.965 350.241 114.364 350.241ZM114.826 348.537C115.413 348.537 115.915 348.421 116.331 348.189C116.753 347.957 117.072 347.654 117.29 347.28C117.513 346.901 117.624 346.496 117.624 346.065V344.659C117.548 344.735 117.401 344.806 117.184 344.872C116.971 344.934 116.727 344.988 116.452 345.036C116.177 345.078 115.91 345.118 115.65 345.156C115.389 345.189 115.171 345.218 114.996 345.241C114.584 345.294 114.208 345.381 113.867 345.504C113.531 345.627 113.261 345.805 113.057 346.037C112.858 346.264 112.759 346.567 112.759 346.946C112.759 347.472 112.953 347.869 113.341 348.139C113.73 348.404 114.224 348.537 114.826 348.537ZM136.044 341.754L134.119 342.095C134.038 341.849 133.911 341.615 133.735 341.392C133.565 341.17 133.333 340.987 133.039 340.845C132.746 340.703 132.379 340.632 131.939 340.632C131.337 340.632 130.835 340.767 130.433 341.037C130.03 341.302 129.829 341.645 129.829 342.067C129.829 342.431 129.964 342.725 130.234 342.947C130.504 343.17 130.94 343.352 131.541 343.494L133.274 343.892C134.278 344.124 135.026 344.482 135.518 344.964C136.011 345.447 136.257 346.075 136.257 346.847C136.257 347.5 136.067 348.082 135.689 348.594C135.315 349.1 134.791 349.498 134.119 349.787C133.451 350.076 132.677 350.22 131.797 350.22C130.575 350.22 129.578 349.96 128.806 349.439C128.035 348.913 127.561 348.168 127.386 347.202L129.439 346.889C129.566 347.424 129.829 347.829 130.227 348.104C130.625 348.374 131.143 348.509 131.782 348.509C132.478 348.509 133.035 348.364 133.451 348.075C133.868 347.782 134.076 347.424 134.076 347.003C134.076 346.662 133.949 346.375 133.693 346.143C133.442 345.911 133.056 345.736 132.535 345.618L130.689 345.213C129.671 344.981 128.918 344.612 128.43 344.105C127.947 343.598 127.706 342.957 127.706 342.18C127.706 341.536 127.886 340.973 128.245 340.49C128.605 340.007 129.102 339.631 129.737 339.361C130.371 339.086 131.098 338.949 131.917 338.949C133.096 338.949 134.024 339.205 134.701 339.716C135.378 340.223 135.826 340.902 136.044 341.754ZM143.187 350.22C142.131 350.22 141.222 349.981 140.46 349.503C139.702 349.02 139.12 348.355 138.712 347.507C138.305 346.66 138.102 345.689 138.102 344.595C138.102 343.487 138.31 342.509 138.727 341.662C139.143 340.81 139.73 340.144 140.488 339.666C141.246 339.188 142.138 338.949 143.165 338.949C143.994 338.949 144.733 339.103 145.381 339.411C146.03 339.714 146.553 340.14 146.951 340.689C147.353 341.238 147.593 341.88 147.668 342.614H145.602C145.488 342.102 145.228 341.662 144.82 341.293C144.418 340.923 143.878 340.739 143.201 340.739C142.609 340.739 142.091 340.895 141.646 341.207C141.205 341.515 140.862 341.955 140.616 342.528C140.37 343.097 140.246 343.769 140.246 344.545C140.246 345.341 140.367 346.027 140.609 346.605C140.85 347.183 141.191 347.63 141.631 347.947C142.076 348.265 142.6 348.423 143.201 348.423C143.603 348.423 143.968 348.35 144.295 348.203C144.626 348.052 144.903 347.836 145.126 347.557C145.353 347.277 145.512 346.941 145.602 346.548H147.668C147.593 347.254 147.363 347.884 146.979 348.438C146.596 348.991 146.082 349.427 145.438 349.744C144.799 350.062 144.049 350.22 143.187 350.22ZM149.939 350V339.091H152.063V350H149.939ZM151.012 337.408C150.642 337.408 150.325 337.285 150.06 337.038C149.8 336.787 149.669 336.489 149.669 336.143C149.669 335.793 149.8 335.495 150.06 335.249C150.325 334.998 150.642 334.872 151.012 334.872C151.381 334.872 151.696 334.998 151.956 335.249C152.221 335.495 152.354 335.793 152.354 336.143C152.354 336.489 152.221 336.787 151.956 337.038C151.696 337.285 151.381 337.408 151.012 337.408ZM159.621 350.22C158.547 350.22 157.621 349.991 156.844 349.531C156.073 349.067 155.476 348.416 155.055 347.578C154.638 346.735 154.43 345.748 154.43 344.616C154.43 343.499 154.638 342.514 155.055 341.662C155.476 340.81 156.063 340.144 156.816 339.666C157.574 339.188 158.459 338.949 159.472 338.949C160.088 338.949 160.684 339.051 161.262 339.254C161.84 339.458 162.358 339.777 162.817 340.213C163.277 340.649 163.639 341.214 163.904 341.911C164.169 342.602 164.302 343.442 164.302 344.432V345.185H155.63V343.594H162.221C162.221 343.035 162.107 342.54 161.88 342.109C161.653 341.674 161.333 341.33 160.921 341.08C160.514 340.829 160.036 340.703 159.487 340.703C158.89 340.703 158.369 340.85 157.924 341.143C157.484 341.432 157.143 341.811 156.901 342.28C156.665 342.744 156.546 343.248 156.546 343.793V345.036C156.546 345.765 156.674 346.385 156.93 346.896C157.19 347.408 157.552 347.798 158.016 348.068C158.48 348.333 159.022 348.466 159.643 348.466C160.045 348.466 160.412 348.409 160.744 348.295C161.075 348.177 161.362 348.002 161.603 347.77C161.844 347.538 162.029 347.251 162.157 346.911L164.167 347.273C164.006 347.865 163.717 348.383 163.3 348.828C162.888 349.268 162.37 349.612 161.745 349.858C161.125 350.099 160.417 350.22 159.621 350.22ZM168.782 343.523V350H166.658V339.091H168.696V340.866H168.831C169.082 340.289 169.475 339.825 170.01 339.474C170.55 339.124 171.23 338.949 172.049 338.949C172.792 338.949 173.443 339.105 174.002 339.418C174.56 339.725 174.994 340.185 175.301 340.795C175.609 341.406 175.763 342.161 175.763 343.061V350H173.64V343.317C173.64 342.526 173.434 341.908 173.022 341.463C172.61 341.013 172.044 340.788 171.324 340.788C170.832 340.788 170.394 340.895 170.01 341.108C169.632 341.321 169.331 341.634 169.108 342.045C168.891 342.453 168.782 342.945 168.782 343.523ZM183.206 350.22C182.15 350.22 181.241 349.981 180.479 349.503C179.721 349.02 179.139 348.355 178.732 347.507C178.325 346.66 178.121 345.689 178.121 344.595C178.121 343.487 178.329 342.509 178.746 341.662C179.163 340.81 179.75 340.144 180.507 339.666C181.265 339.188 182.158 338.949 183.185 338.949C184.014 338.949 184.752 339.103 185.401 339.411C186.05 339.714 186.573 340.14 186.971 340.689C187.373 341.238 187.612 341.88 187.688 342.614H185.621C185.507 342.102 185.247 341.662 184.84 341.293C184.437 340.923 183.898 340.739 183.221 340.739C182.629 340.739 182.11 340.895 181.665 341.207C181.225 341.515 180.882 341.955 180.635 342.528C180.389 343.097 180.266 343.769 180.266 344.545C180.266 345.341 180.387 346.027 180.628 346.605C180.87 347.183 181.211 347.63 181.651 347.947C182.096 348.265 182.619 348.423 183.221 348.423C183.623 348.423 183.988 348.35 184.314 348.203C184.646 348.052 184.923 347.836 185.145 347.557C185.373 347.277 185.531 346.941 185.621 346.548H187.688C187.612 347.254 187.382 347.884 186.999 348.438C186.615 348.991 186.102 349.427 185.458 349.744C184.819 350.062 184.068 350.22 183.206 350.22ZM194.661 350.22C193.586 350.22 192.66 349.991 191.884 349.531C191.112 349.067 190.515 348.416 190.094 347.578C189.677 346.735 189.469 345.748 189.469 344.616C189.469 343.499 189.677 342.514 190.094 341.662C190.515 340.81 191.102 340.144 191.855 339.666C192.613 339.188 193.498 338.949 194.511 338.949C195.127 338.949 195.723 339.051 196.301 339.254C196.879 339.458 197.397 339.777 197.857 340.213C198.316 340.649 198.678 341.214 198.943 341.911C199.208 342.602 199.341 343.442 199.341 344.432V345.185H190.669V343.594H197.26C197.26 343.035 197.146 342.54 196.919 342.109C196.692 341.674 196.372 341.33 195.96 341.08C195.553 340.829 195.075 340.703 194.526 340.703C193.929 340.703 193.408 340.85 192.963 341.143C192.523 341.432 192.182 341.811 191.94 342.28C191.704 342.744 191.585 343.248 191.585 343.793V345.036C191.585 345.765 191.713 346.385 191.969 346.896C192.229 347.408 192.591 347.798 193.055 348.068C193.519 348.333 194.062 348.466 194.682 348.466C195.084 348.466 195.451 348.409 195.783 348.295C196.114 348.177 196.401 348.002 196.642 347.77C196.884 347.538 197.068 347.251 197.196 346.911L199.206 347.273C199.045 347.865 198.756 348.383 198.339 348.828C197.928 349.268 197.409 349.612 196.784 349.858C196.164 350.099 195.456 350.22 194.661 350.22Z" fill="#0F1723"/>
<path d="M81.8068 277H77.098V262.455H81.956C83.3812 262.455 84.6051 262.746 85.6278 263.328C86.6506 263.906 87.4342 264.737 87.9787 265.821C88.5279 266.901 88.8026 268.196 88.8026 269.706C88.8026 271.221 88.5256 272.523 87.9716 273.612C87.4223 274.701 86.6269 275.539 85.5852 276.126C84.5436 276.709 83.2841 277 81.8068 277ZM79.2926 275.082H81.6861C82.794 275.082 83.715 274.874 84.4489 274.457C85.1828 274.036 85.732 273.428 86.0966 272.632C86.4612 271.832 86.6435 270.857 86.6435 269.706C86.6435 268.565 86.4612 267.597 86.0966 266.801C85.7367 266.006 85.1993 265.402 84.4844 264.99C83.7694 264.578 82.8816 264.372 81.821 264.372H79.2926V275.082ZM94.5359 277.241C93.8446 277.241 93.2196 277.114 92.6609 276.858C92.1022 276.598 91.6594 276.221 91.3327 275.729C91.0108 275.236 90.8498 274.633 90.8498 273.918C90.8498 273.302 90.9682 272.795 91.2049 272.398C91.4416 272 91.7612 271.685 92.1637 271.453C92.5662 271.221 93.016 271.046 93.5131 270.928C94.0103 270.809 94.5169 270.719 95.033 270.658C95.6864 270.582 96.2167 270.52 96.6239 270.473C97.0311 270.421 97.3271 270.338 97.5117 270.224C97.6964 270.111 97.7887 269.926 97.7887 269.67V269.621C97.7887 269 97.6135 268.52 97.2631 268.179C96.9175 267.838 96.4014 267.668 95.7148 267.668C94.9999 267.668 94.4364 267.826 94.0245 268.143C93.6173 268.456 93.3356 268.804 93.1793 269.188L91.1836 268.733C91.4203 268.07 91.766 267.535 92.2205 267.128C92.6798 266.716 93.2077 266.418 93.8043 266.233C94.4009 266.044 95.0283 265.949 95.6864 265.949C96.122 265.949 96.5837 266.001 97.0714 266.105C97.5638 266.205 98.0231 266.389 98.4492 266.659C98.8801 266.929 99.2328 267.315 99.5075 267.817C99.7821 268.314 99.9194 268.96 99.9194 269.756V277H97.8455V275.509H97.7603C97.623 275.783 97.417 276.053 97.1424 276.318C96.8678 276.583 96.515 276.804 96.0842 276.979C95.6533 277.154 95.1372 277.241 94.5359 277.241ZM94.9975 275.537C95.5846 275.537 96.0865 275.421 96.5032 275.189C96.9246 274.957 97.2442 274.654 97.462 274.28C97.6845 273.901 97.7958 273.496 97.7958 273.065V271.659C97.7201 271.735 97.5733 271.806 97.3555 271.872C97.1424 271.934 96.8986 271.988 96.6239 272.036C96.3493 272.078 96.0818 272.118 95.8214 272.156C95.561 272.189 95.3432 272.218 95.168 272.241C94.756 272.294 94.3796 272.381 94.0387 272.504C93.7025 272.627 93.4326 272.805 93.229 273.037C93.0302 273.264 92.9308 273.567 92.9308 273.946C92.9308 274.472 93.1249 274.869 93.5131 275.139C93.9014 275.404 94.3962 275.537 94.9975 275.537ZM107.84 266.091V267.795H101.881V266.091H107.84ZM103.479 263.477H105.603V273.797C105.603 274.209 105.665 274.519 105.788 274.727C105.911 274.931 106.069 275.071 106.263 275.146C106.462 275.217 106.678 275.253 106.91 275.253C107.08 275.253 107.229 275.241 107.357 275.217C107.485 275.194 107.585 275.175 107.656 275.161L108.039 276.915C107.916 276.962 107.741 277.009 107.513 277.057C107.286 277.109 107.002 277.137 106.661 277.142C106.103 277.152 105.582 277.052 105.099 276.844C104.616 276.635 104.225 276.313 103.927 275.878C103.629 275.442 103.479 274.895 103.479 274.237V263.477ZM113.364 277.241C112.673 277.241 112.048 277.114 111.489 276.858C110.93 276.598 110.488 276.221 110.161 275.729C109.839 275.236 109.678 274.633 109.678 273.918C109.678 273.302 109.796 272.795 110.033 272.398C110.27 272 110.589 271.685 110.992 271.453C111.394 271.221 111.844 271.046 112.341 270.928C112.838 270.809 113.345 270.719 113.861 270.658C114.515 270.582 115.045 270.52 115.452 270.473C115.859 270.421 116.155 270.338 116.34 270.224C116.525 270.111 116.617 269.926 116.617 269.67V269.621C116.617 269 116.442 268.52 116.091 268.179C115.746 267.838 115.23 267.668 114.543 267.668C113.828 267.668 113.265 267.826 112.853 268.143C112.445 268.456 112.164 268.804 112.007 269.188L110.012 268.733C110.248 268.07 110.594 267.535 111.049 267.128C111.508 266.716 112.036 266.418 112.632 266.233C113.229 266.044 113.856 265.949 114.515 265.949C114.95 265.949 115.412 266.001 115.9 266.105C116.392 266.205 116.851 266.389 117.277 266.659C117.708 266.929 118.061 267.315 118.336 267.817C118.61 268.314 118.748 268.96 118.748 269.756V277H116.674V275.509H116.588C116.451 275.783 116.245 276.053 115.971 276.318C115.696 276.583 115.343 276.804 114.912 276.979C114.481 277.154 113.965 277.241 113.364 277.241ZM113.826 275.537C114.413 275.537 114.915 275.421 115.331 275.189C115.753 274.957 116.072 274.654 116.29 274.28C116.513 273.901 116.624 273.496 116.624 273.065V271.659C116.548 271.735 116.401 271.806 116.184 271.872C115.971 271.934 115.727 271.988 115.452 272.036C115.177 272.078 114.91 272.118 114.65 272.156C114.389 272.189 114.171 272.218 113.996 272.241C113.584 272.294 113.208 272.381 112.867 272.504C112.531 272.627 112.261 272.805 112.057 273.037C111.858 273.264 111.759 273.567 111.759 273.946C111.759 274.472 111.953 274.869 112.341 275.139C112.73 275.404 113.224 275.537 113.826 275.537ZM134.973 266.276C134.897 265.603 134.584 265.082 134.035 264.713C133.486 264.339 132.795 264.152 131.961 264.152C131.365 264.152 130.849 264.247 130.413 264.436C129.977 264.621 129.639 264.876 129.397 265.203C129.161 265.525 129.042 265.892 129.042 266.304C129.042 266.65 129.123 266.948 129.284 267.199C129.449 267.45 129.665 267.661 129.93 267.831C130.2 267.997 130.489 268.136 130.797 268.25C131.104 268.359 131.4 268.449 131.684 268.52L133.105 268.889C133.569 269.003 134.045 269.157 134.532 269.351C135.02 269.545 135.472 269.801 135.889 270.118C136.306 270.435 136.642 270.828 136.897 271.297C137.158 271.766 137.288 272.327 137.288 272.98C137.288 273.804 137.075 274.536 136.649 275.175C136.227 275.814 135.614 276.318 134.809 276.688C134.009 277.057 133.041 277.241 131.904 277.241C130.815 277.241 129.873 277.069 129.078 276.723C128.282 276.377 127.66 275.887 127.21 275.253C126.76 274.614 126.511 273.856 126.464 272.98H128.666C128.708 273.506 128.879 273.944 129.177 274.294C129.48 274.64 129.866 274.898 130.335 275.068C130.808 275.234 131.327 275.317 131.89 275.317C132.511 275.317 133.062 275.22 133.545 275.026C134.033 274.827 134.416 274.552 134.696 274.202C134.975 273.847 135.115 273.432 135.115 272.959C135.115 272.528 134.992 272.175 134.745 271.901C134.504 271.626 134.175 271.399 133.758 271.219C133.346 271.039 132.88 270.88 132.359 270.743L130.64 270.274C129.475 269.957 128.552 269.491 127.87 268.875C127.193 268.259 126.855 267.445 126.855 266.432C126.855 265.594 127.082 264.862 127.537 264.237C127.991 263.612 128.607 263.127 129.383 262.781C130.16 262.431 131.036 262.256 132.011 262.256C132.996 262.256 133.865 262.429 134.618 262.774C135.375 263.12 135.972 263.596 136.407 264.202C136.843 264.803 137.07 265.494 137.089 266.276H134.973ZM144.832 266.091V267.795H138.874V266.091H144.832ZM140.472 263.477H142.595V273.797C142.595 274.209 142.657 274.519 142.78 274.727C142.903 274.931 143.062 275.071 143.256 275.146C143.455 275.217 143.67 275.253 143.902 275.253C144.072 275.253 144.222 275.241 144.349 275.217C144.477 275.194 144.577 275.175 144.648 275.161L145.031 276.915C144.908 276.962 144.733 277.009 144.506 277.057C144.278 277.109 143.994 277.137 143.653 277.142C143.095 277.152 142.574 277.052 142.091 276.844C141.608 276.635 141.217 276.313 140.919 275.878C140.621 275.442 140.472 274.895 140.472 274.237V263.477ZM147.181 277V266.091H149.234V267.824H149.348C149.547 267.237 149.897 266.775 150.399 266.439C150.905 266.098 151.478 265.928 152.118 265.928C152.25 265.928 152.406 265.932 152.586 265.942C152.771 265.951 152.915 265.963 153.02 265.977V268.009C152.934 267.985 152.783 267.959 152.565 267.93C152.347 267.897 152.129 267.881 151.912 267.881C151.41 267.881 150.962 267.987 150.569 268.2C150.181 268.409 149.873 268.7 149.646 269.074C149.419 269.443 149.305 269.865 149.305 270.338V277H147.181ZM161.768 272.476V266.091H163.898V277H161.81V275.111H161.697C161.446 275.693 161.043 276.179 160.489 276.567C159.94 276.95 159.256 277.142 158.437 277.142C157.736 277.142 157.116 276.988 156.576 276.68C156.041 276.368 155.62 275.906 155.312 275.295C155.009 274.685 154.857 273.929 154.857 273.03V266.091H156.981V272.774C156.981 273.518 157.187 274.109 157.599 274.55C158.011 274.99 158.546 275.21 159.204 275.21C159.602 275.21 159.997 275.111 160.39 274.912C160.788 274.713 161.117 274.412 161.377 274.01C161.642 273.607 161.772 273.096 161.768 272.476ZM171.347 277.22C170.291 277.22 169.382 276.981 168.62 276.503C167.862 276.02 167.28 275.355 166.873 274.507C166.465 273.66 166.262 272.689 166.262 271.595C166.262 270.487 166.47 269.509 166.887 268.662C167.303 267.81 167.891 267.144 168.648 266.666C169.406 266.188 170.298 265.949 171.326 265.949C172.154 265.949 172.893 266.103 173.542 266.411C174.19 266.714 174.713 267.14 175.111 267.689C175.514 268.238 175.753 268.88 175.828 269.614H173.762C173.648 269.102 173.388 268.662 172.98 268.293C172.578 267.923 172.038 267.739 171.361 267.739C170.769 267.739 170.251 267.895 169.806 268.207C169.365 268.515 169.022 268.955 168.776 269.528C168.53 270.097 168.407 270.769 168.407 271.545C168.407 272.341 168.527 273.027 168.769 273.605C169.01 274.183 169.351 274.63 169.792 274.947C170.237 275.265 170.76 275.423 171.361 275.423C171.764 275.423 172.128 275.35 172.455 275.203C172.786 275.052 173.063 274.836 173.286 274.557C173.513 274.277 173.672 273.941 173.762 273.548H175.828C175.753 274.254 175.523 274.884 175.14 275.438C174.756 275.991 174.242 276.427 173.598 276.744C172.959 277.062 172.209 277.22 171.347 277.22ZM183.192 266.091V267.795H177.233V266.091H183.192ZM178.831 263.477H180.955V273.797C180.955 274.209 181.016 274.519 181.139 274.727C181.262 274.931 181.421 275.071 181.615 275.146C181.814 275.217 182.029 275.253 182.261 275.253C182.432 275.253 182.581 275.241 182.709 275.217C182.837 275.194 182.936 275.175 183.007 275.161L183.391 276.915C183.268 276.962 183.092 277.009 182.865 277.057C182.638 277.109 182.354 277.137 182.013 277.142C181.454 277.152 180.933 277.052 180.45 276.844C179.967 276.635 179.577 276.313 179.278 275.878C178.98 275.442 178.831 274.895 178.831 274.237V263.477ZM192.451 272.476V266.091H194.582V277H192.494V275.111H192.38C192.129 275.693 191.727 276.179 191.173 276.567C190.624 276.95 189.94 277.142 189.12 277.142C188.42 277.142 187.799 276.988 187.26 276.68C186.725 276.368 186.303 275.906 185.995 275.295C185.692 274.685 185.541 273.929 185.541 273.03V266.091H187.664V272.774C187.664 273.518 187.87 274.109 188.282 274.55C188.694 274.99 189.229 275.21 189.887 275.21C190.285 275.21 190.681 275.111 191.074 274.912C191.471 274.713 191.8 274.412 192.061 274.01C192.326 273.607 192.456 273.096 192.451 272.476ZM197.435 277V266.091H199.488V267.824H199.602C199.8 267.237 200.151 266.775 200.653 266.439C201.159 266.098 201.732 265.928 202.371 265.928C202.504 265.928 202.66 265.932 202.84 265.942C203.025 265.951 203.169 265.963 203.273 265.977V268.009C203.188 267.985 203.037 267.959 202.819 267.93C202.601 267.897 202.383 267.881 202.165 267.881C201.664 267.881 201.216 267.987 200.823 268.2C200.435 268.409 200.127 268.7 199.9 269.074C199.673 269.443 199.559 269.865 199.559 270.338V277H197.435ZM209.422 277.22C208.347 277.22 207.422 276.991 206.645 276.531C205.873 276.067 205.277 275.416 204.855 274.578C204.439 273.735 204.23 272.748 204.23 271.616C204.23 270.499 204.439 269.514 204.855 268.662C205.277 267.81 205.864 267.144 206.617 266.666C207.374 266.188 208.26 265.949 209.273 265.949C209.889 265.949 210.485 266.051 211.063 266.254C211.641 266.458 212.159 266.777 212.618 267.213C213.078 267.649 213.44 268.214 213.705 268.911C213.97 269.602 214.103 270.442 214.103 271.432V272.185H205.431V270.594H212.022C212.022 270.035 211.908 269.54 211.681 269.109C211.453 268.674 211.134 268.33 210.722 268.08C210.315 267.829 209.837 267.703 209.287 267.703C208.691 267.703 208.17 267.85 207.725 268.143C207.284 268.432 206.944 268.811 206.702 269.28C206.465 269.744 206.347 270.248 206.347 270.793V272.036C206.347 272.765 206.475 273.385 206.73 273.896C206.991 274.408 207.353 274.798 207.817 275.068C208.281 275.333 208.823 275.466 209.444 275.466C209.846 275.466 210.213 275.409 210.544 275.295C210.876 275.177 211.162 275.002 211.404 274.77C211.645 274.538 211.83 274.251 211.958 273.911L213.968 274.273C213.807 274.865 213.518 275.383 213.101 275.828C212.689 276.268 212.171 276.612 211.546 276.858C210.926 277.099 210.218 277.22 209.422 277.22ZM224.634 268.754L222.709 269.095C222.628 268.849 222.5 268.615 222.325 268.392C222.155 268.17 221.923 267.987 221.629 267.845C221.336 267.703 220.969 267.632 220.528 267.632C219.927 267.632 219.425 267.767 219.023 268.037C218.62 268.302 218.419 268.645 218.419 269.067C218.419 269.431 218.554 269.725 218.824 269.947C219.094 270.17 219.529 270.352 220.131 270.494L221.864 270.892C222.867 271.124 223.616 271.482 224.108 271.964C224.6 272.447 224.847 273.075 224.847 273.847C224.847 274.5 224.657 275.082 224.278 275.594C223.904 276.1 223.381 276.498 222.709 276.787C222.041 277.076 221.267 277.22 220.386 277.22C219.165 277.22 218.168 276.96 217.396 276.439C216.625 275.913 216.151 275.168 215.976 274.202L218.028 273.889C218.156 274.424 218.419 274.829 218.817 275.104C219.214 275.374 219.733 275.509 220.372 275.509C221.068 275.509 221.625 275.364 222.041 275.075C222.458 274.782 222.666 274.424 222.666 274.003C222.666 273.662 222.538 273.375 222.283 273.143C222.032 272.911 221.646 272.736 221.125 272.618L219.278 272.213C218.26 271.981 217.508 271.612 217.02 271.105C216.537 270.598 216.295 269.957 216.295 269.18C216.295 268.536 216.475 267.973 216.835 267.49C217.195 267.007 217.692 266.631 218.327 266.361C218.961 266.086 219.688 265.949 220.507 265.949C221.686 265.949 222.614 266.205 223.291 266.716C223.968 267.223 224.416 267.902 224.634 268.754ZM235.649 277.241C234.958 277.241 234.333 277.114 233.774 276.858C233.215 276.598 232.773 276.221 232.446 275.729C232.124 275.236 231.963 274.633 231.963 273.918C231.963 273.302 232.081 272.795 232.318 272.398C232.555 272 232.875 271.685 233.277 271.453C233.679 271.221 234.129 271.046 234.626 270.928C235.124 270.809 235.63 270.719 236.146 270.658C236.8 270.582 237.33 270.52 237.737 270.473C238.144 270.421 238.44 270.338 238.625 270.224C238.81 270.111 238.902 269.926 238.902 269.67V269.621C238.902 269 238.727 268.52 238.376 268.179C238.031 267.838 237.515 267.668 236.828 267.668C236.113 267.668 235.55 267.826 235.138 268.143C234.731 268.456 234.449 268.804 234.293 269.188L232.297 268.733C232.534 268.07 232.879 267.535 233.334 267.128C233.793 266.716 234.321 266.418 234.918 266.233C235.514 266.044 236.142 265.949 236.8 265.949C237.235 265.949 237.697 266.001 238.185 266.105C238.677 266.205 239.136 266.389 239.562 266.659C239.993 266.929 240.346 267.315 240.621 267.817C240.895 268.314 241.033 268.96 241.033 269.756V277H238.959V275.509H238.874C238.736 275.783 238.53 276.053 238.256 276.318C237.981 276.583 237.628 276.804 237.197 276.979C236.767 277.154 236.25 277.241 235.649 277.241ZM236.111 275.537C236.698 275.537 237.2 275.421 237.616 275.189C238.038 274.957 238.357 274.654 238.575 274.28C238.798 273.901 238.909 273.496 238.909 273.065V271.659C238.833 271.735 238.687 271.806 238.469 271.872C238.256 271.934 238.012 271.988 237.737 272.036C237.463 272.078 237.195 272.118 236.935 272.156C236.674 272.189 236.456 272.218 236.281 272.241C235.869 272.294 235.493 272.381 235.152 272.504C234.816 272.627 234.546 272.805 234.342 273.037C234.143 273.264 234.044 273.567 234.044 273.946C234.044 274.472 234.238 274.869 234.626 275.139C235.015 275.404 235.509 275.537 236.111 275.537ZM245.985 270.523V277H243.861V266.091H245.9V267.866H246.034C246.285 267.289 246.678 266.825 247.213 266.474C247.753 266.124 248.433 265.949 249.252 265.949C249.995 265.949 250.646 266.105 251.205 266.418C251.764 266.725 252.197 267.185 252.505 267.795C252.812 268.406 252.966 269.161 252.966 270.061V277H250.843V270.317C250.843 269.526 250.637 268.908 250.225 268.463C249.813 268.013 249.247 267.788 248.527 267.788C248.035 267.788 247.597 267.895 247.213 268.108C246.835 268.321 246.534 268.634 246.311 269.045C246.094 269.453 245.985 269.945 245.985 270.523ZM259.898 277.213C259.017 277.213 258.231 276.988 257.54 276.538C256.854 276.084 256.314 275.437 255.921 274.599C255.533 273.757 255.338 272.746 255.338 271.567C255.338 270.388 255.535 269.379 255.928 268.541C256.326 267.703 256.87 267.062 257.561 266.616C258.253 266.171 259.036 265.949 259.912 265.949C260.589 265.949 261.134 266.062 261.546 266.29C261.962 266.512 262.284 266.773 262.512 267.071C262.744 267.369 262.924 267.632 263.051 267.859H263.179V262.455H265.303V277H263.229V275.303H263.051C262.924 275.535 262.739 275.8 262.498 276.098C262.261 276.396 261.934 276.657 261.517 276.879C261.101 277.102 260.561 277.213 259.898 277.213ZM260.367 275.402C260.978 275.402 261.494 275.241 261.915 274.919C262.341 274.592 262.663 274.14 262.881 273.562C263.104 272.985 263.215 272.312 263.215 271.545C263.215 270.788 263.106 270.125 262.888 269.557C262.67 268.989 262.351 268.546 261.929 268.229C261.508 267.911 260.987 267.753 260.367 267.753C259.728 267.753 259.195 267.919 258.769 268.25C258.343 268.581 258.021 269.034 257.803 269.607C257.59 270.179 257.483 270.826 257.483 271.545C257.483 272.275 257.592 272.93 257.81 273.513C258.028 274.095 258.35 274.557 258.776 274.898C259.207 275.234 259.737 275.402 260.367 275.402ZM276.801 277.241C276.11 277.241 275.485 277.114 274.926 276.858C274.368 276.598 273.925 276.221 273.598 275.729C273.276 275.236 273.115 274.633 273.115 273.918C273.115 273.302 273.234 272.795 273.471 272.398C273.707 272 274.027 271.685 274.429 271.453C274.832 271.221 275.282 271.046 275.779 270.928C276.276 270.809 276.783 270.719 277.299 270.658C277.952 270.582 278.482 270.52 278.89 270.473C279.297 270.421 279.593 270.338 279.777 270.224C279.962 270.111 280.054 269.926 280.054 269.67V269.621C280.054 269 279.879 268.52 279.529 268.179C279.183 267.838 278.667 267.668 277.98 267.668C277.266 267.668 276.702 267.826 276.29 268.143C275.883 268.456 275.601 268.804 275.445 269.188L273.449 268.733C273.686 268.07 274.032 267.535 274.486 267.128C274.945 266.716 275.473 266.418 276.07 266.233C276.667 266.044 277.294 265.949 277.952 265.949C278.388 265.949 278.849 266.001 279.337 266.105C279.829 266.205 280.289 266.389 280.715 266.659C281.146 266.929 281.498 267.315 281.773 267.817C282.048 268.314 282.185 268.96 282.185 269.756V277H280.111V275.509H280.026C279.889 275.783 279.683 276.053 279.408 276.318C279.133 276.583 278.781 276.804 278.35 276.979C277.919 277.154 277.403 277.241 276.801 277.241ZM277.263 275.537C277.85 275.537 278.352 275.421 278.769 275.189C279.19 274.957 279.51 274.654 279.728 274.28C279.95 273.901 280.061 273.496 280.061 273.065V271.659C279.986 271.735 279.839 271.806 279.621 271.872C279.408 271.934 279.164 271.988 278.89 272.036C278.615 272.078 278.347 272.118 278.087 272.156C277.827 272.189 277.609 272.218 277.434 272.241C277.022 272.294 276.645 272.381 276.304 272.504C275.968 272.627 275.698 272.805 275.495 273.037C275.296 273.264 275.196 273.567 275.196 273.946C275.196 274.472 275.391 274.869 275.779 275.139C276.167 275.404 276.662 275.537 277.263 275.537ZM287.137 262.455V277H285.013V262.455H287.137ZM294.568 281.318C293.701 281.318 292.956 281.205 292.331 280.977C291.71 280.75 291.204 280.449 290.811 280.075C290.418 279.701 290.124 279.292 289.93 278.847L291.755 278.094C291.883 278.302 292.054 278.522 292.267 278.754C292.484 278.991 292.778 279.192 293.147 279.358C293.521 279.524 294.002 279.607 294.589 279.607C295.394 279.607 296.059 279.41 296.585 279.017C297.11 278.629 297.373 278.009 297.373 277.156V275.011H297.238C297.11 275.243 296.926 275.501 296.684 275.786C296.448 276.07 296.121 276.316 295.704 276.524C295.288 276.732 294.745 276.837 294.078 276.837C293.216 276.837 292.44 276.635 291.748 276.233C291.062 275.826 290.517 275.227 290.115 274.436C289.717 273.641 289.518 272.663 289.518 271.503C289.518 270.343 289.715 269.348 290.108 268.52C290.505 267.691 291.05 267.057 291.741 266.616C292.432 266.171 293.216 265.949 294.092 265.949C294.769 265.949 295.316 266.062 295.733 266.29C296.149 266.512 296.474 266.773 296.706 267.071C296.942 267.369 297.125 267.632 297.252 267.859H297.409V266.091H299.49V277.241C299.49 278.179 299.272 278.948 298.836 279.55C298.401 280.151 297.811 280.596 297.068 280.885C296.329 281.174 295.496 281.318 294.568 281.318ZM294.547 275.075C295.157 275.075 295.673 274.933 296.095 274.649C296.521 274.36 296.843 273.948 297.061 273.413C297.283 272.874 297.395 272.227 297.395 271.474C297.395 270.741 297.286 270.094 297.068 269.536C296.85 268.977 296.53 268.541 296.109 268.229C295.688 267.911 295.167 267.753 294.547 267.753C293.907 267.753 293.375 267.919 292.949 268.25C292.522 268.577 292.2 269.022 291.983 269.585C291.77 270.149 291.663 270.778 291.663 271.474C291.663 272.189 291.772 272.817 291.99 273.357C292.208 273.896 292.529 274.318 292.956 274.621C293.386 274.924 293.917 275.075 294.547 275.075ZM306.933 277.22C305.91 277.22 305.018 276.986 304.255 276.517C303.493 276.048 302.901 275.393 302.48 274.55C302.058 273.707 301.848 272.722 301.848 271.595C301.848 270.464 302.058 269.474 302.48 268.626C302.901 267.779 303.493 267.121 304.255 266.652C305.018 266.183 305.91 265.949 306.933 265.949C307.956 265.949 308.848 266.183 309.61 266.652C310.373 267.121 310.965 267.779 311.386 268.626C311.807 269.474 312.018 270.464 312.018 271.595C312.018 272.722 311.807 273.707 311.386 274.55C310.965 275.393 310.373 276.048 309.61 276.517C308.848 276.986 307.956 277.22 306.933 277.22ZM306.94 275.438C307.603 275.438 308.152 275.262 308.588 274.912C309.023 274.562 309.345 274.095 309.554 273.513C309.767 272.93 309.873 272.289 309.873 271.588C309.873 270.892 309.767 270.253 309.554 269.67C309.345 269.083 309.023 268.612 308.588 268.257C308.152 267.902 307.603 267.724 306.94 267.724C306.272 267.724 305.718 267.902 305.278 268.257C304.842 268.612 304.518 269.083 304.305 269.67C304.097 270.253 303.993 270.892 303.993 271.588C303.993 272.289 304.097 272.93 304.305 273.513C304.518 274.095 304.842 274.562 305.278 274.912C305.718 275.262 306.272 275.438 306.94 275.438ZM314.388 277V266.091H316.441V267.824H316.555C316.754 267.237 317.104 266.775 317.606 266.439C318.112 266.098 318.685 265.928 319.325 265.928C319.457 265.928 319.613 265.932 319.793 265.942C319.978 265.951 320.122 265.963 320.227 265.977V268.009C320.141 267.985 319.99 267.959 319.772 267.93C319.554 267.897 319.336 267.881 319.119 267.881C318.617 267.881 318.169 267.987 317.776 268.2C317.388 268.409 317.08 268.7 316.853 269.074C316.626 269.443 316.512 269.865 316.512 270.338V277H314.388ZM322.064 277V266.091H324.188V277H322.064ZM323.137 264.408C322.767 264.408 322.45 264.285 322.185 264.038C321.925 263.787 321.794 263.489 321.794 263.143C321.794 262.793 321.925 262.495 322.185 262.249C322.45 261.998 322.767 261.872 323.137 261.872C323.506 261.872 323.821 261.998 324.081 262.249C324.346 262.495 324.479 262.793 324.479 263.143C324.479 263.489 324.346 263.787 324.081 264.038C323.821 264.285 323.506 264.408 323.137 264.408ZM332.137 266.091V267.795H326.178V266.091H332.137ZM327.776 263.477H329.9V273.797C329.9 274.209 329.961 274.519 330.085 274.727C330.208 274.931 330.366 275.071 330.56 275.146C330.759 275.217 330.975 275.253 331.207 275.253C331.377 275.253 331.526 275.241 331.654 275.217C331.782 275.194 331.881 275.175 331.952 275.161L332.336 276.915C332.213 276.962 332.038 277.009 331.81 277.057C331.583 277.109 331.299 277.137 330.958 277.142C330.399 277.152 329.879 277.052 329.396 276.844C328.913 276.635 328.522 276.313 328.224 275.878C327.925 275.442 327.776 274.895 327.776 274.237V263.477ZM336.844 270.523V277H334.721V262.455H336.816V267.866H336.951C337.206 267.279 337.597 266.813 338.123 266.467C338.648 266.122 339.335 265.949 340.182 265.949C340.93 265.949 341.584 266.103 342.142 266.411C342.706 266.718 343.141 267.178 343.449 267.788C343.762 268.394 343.918 269.152 343.918 270.061V277H341.794V270.317C341.794 269.517 341.588 268.896 341.176 268.456C340.765 268.011 340.192 267.788 339.458 267.788C338.956 267.788 338.506 267.895 338.108 268.108C337.715 268.321 337.405 268.634 337.178 269.045C336.955 269.453 336.844 269.945 336.844 270.523ZM346.752 277V266.091H348.79V267.866H348.925C349.152 267.265 349.524 266.796 350.04 266.46C350.556 266.119 351.174 265.949 351.894 265.949C352.623 265.949 353.234 266.119 353.726 266.46C354.223 266.801 354.59 267.27 354.827 267.866H354.941C355.201 267.284 355.615 266.82 356.184 266.474C356.752 266.124 357.429 265.949 358.215 265.949C359.204 265.949 360.012 266.259 360.637 266.879C361.266 267.5 361.581 268.435 361.581 269.685V277H359.458V269.884C359.458 269.145 359.257 268.61 358.854 268.278C358.452 267.947 357.971 267.781 357.412 267.781C356.721 267.781 356.184 267.994 355.8 268.42C355.417 268.842 355.225 269.384 355.225 270.047V277H353.108V269.749C353.108 269.157 352.924 268.681 352.554 268.321C352.185 267.961 351.704 267.781 351.113 267.781C350.71 267.781 350.338 267.888 349.998 268.101C349.661 268.309 349.389 268.6 349.181 268.974C348.977 269.348 348.875 269.782 348.875 270.274V277H346.752ZM372.602 268.754L370.678 269.095C370.597 268.849 370.469 268.615 370.294 268.392C370.124 268.17 369.892 267.987 369.598 267.845C369.304 267.703 368.938 267.632 368.497 267.632C367.896 267.632 367.394 267.767 366.991 268.037C366.589 268.302 366.388 268.645 366.388 269.067C366.388 269.431 366.523 269.725 366.793 269.947C367.063 270.17 367.498 270.352 368.099 270.494L369.832 270.892C370.836 271.124 371.584 271.482 372.077 271.964C372.569 272.447 372.815 273.075 372.815 273.847C372.815 274.5 372.626 275.082 372.247 275.594C371.873 276.1 371.35 276.498 370.678 276.787C370.01 277.076 369.236 277.22 368.355 277.22C367.134 277.22 366.137 276.96 365.365 276.439C364.593 275.913 364.12 275.168 363.945 274.202L365.997 273.889C366.125 274.424 366.388 274.829 366.786 275.104C367.183 275.374 367.702 275.509 368.341 275.509C369.037 275.509 369.593 275.364 370.01 275.075C370.427 274.782 370.635 274.424 370.635 274.003C370.635 273.662 370.507 273.375 370.251 273.143C370 272.911 369.615 272.736 369.094 272.618L367.247 272.213C366.229 271.981 365.476 271.612 364.989 271.105C364.506 270.598 364.264 269.957 364.264 269.18C364.264 268.536 364.444 267.973 364.804 267.49C365.164 267.007 365.661 266.631 366.295 266.361C366.93 266.086 367.657 265.949 368.476 265.949C369.655 265.949 370.583 266.205 371.26 266.716C371.937 267.223 372.384 267.902 372.602 268.754Z" fill="#0F1723"/>
</g>
<defs>
<clipPath id="clip0_130_745">
<rect width="467" height="326.9" fill="white" transform="translate(16.5 36)"/>
</clipPath>
</defs>
</svg>
