<svg width="127" height="49" viewBox="0 0 127 49" fill="none" xmlns="http://www.w3.org/2000/svg">
<path d="M27.1506 12.4533C27.1253 12.2764 26.9736 12.1753 26.8472 12.1753C26.7208 12.1753 24.2181 12.1247 24.2181 12.1247C24.2181 12.1247 22.1199 10.1023 21.9177 9.87479C21.7154 9.67255 21.3109 9.72311 21.1593 9.77367C21.1593 9.77367 20.7548 9.90007 20.0975 10.1023C19.9964 9.74839 19.8194 9.31863 19.5919 8.86359C18.8588 7.44792 17.7465 6.68952 16.4319 6.68952C16.3308 6.68952 16.255 6.68952 16.1538 6.7148C16.1033 6.66424 16.078 6.61368 16.0274 6.5884C15.446 5.98169 14.7129 5.67833 13.8281 5.70361C12.1343 5.75417 10.4406 6.99288 9.05019 9.16695C8.08956 10.709 7.35644 12.6303 7.12892 14.1218C5.18237 14.7285 3.81726 15.1583 3.7667 15.1583C2.78079 15.4616 2.75551 15.4869 2.62911 16.4223C2.57855 17.1301 0 37.0759 0 37.0759L21.6396 40.8174L31.0184 38.4916C30.9931 38.4916 27.1759 12.6303 27.1506 12.4533ZM19.0105 10.4562C18.5049 10.6079 17.9487 10.7849 17.342 10.9871C17.342 10.1276 17.2156 8.91415 16.8364 7.90296C18.1257 8.1052 18.7577 9.57143 19.0105 10.4562ZM16.2044 11.3157C15.0668 11.6697 13.8281 12.0489 12.5894 12.4281C12.9433 11.0882 13.6006 9.77367 14.4095 8.88887C14.7129 8.56023 15.1426 8.20632 15.623 8.00408C16.1286 8.98999 16.2297 10.3804 16.2044 11.3157ZM13.8787 6.8412C14.2831 6.8412 14.6118 6.91704 14.8898 7.11928C14.4348 7.3468 13.9798 7.70072 13.5753 8.15576C12.4883 9.31863 11.654 11.1135 11.3254 12.8578C10.2889 13.1865 9.27771 13.4898 8.36764 13.7679C8.97435 11.0124 11.2748 6.91704 13.8787 6.8412Z" fill="#95BF47"/>
<path d="M26.8473 12.1754C26.7209 12.1754 24.2182 12.1248 24.2182 12.1248C24.2182 12.1248 22.12 10.1025 21.9177 9.87493C21.8419 9.79909 21.7408 9.74854 21.6396 9.74854V40.8175L31.0185 38.4918C31.0185 38.4918 27.2012 12.6304 27.1759 12.4535C27.1254 12.2765 26.9737 12.1754 26.8473 12.1754Z" fill="#5E8E3E"/>
<path d="M16.4328 17.003L15.3457 21.0731C15.3457 21.0731 14.1323 20.5169 12.6913 20.6181C10.5678 20.7445 10.5678 22.0843 10.5678 22.4129C10.6942 24.2331 15.4721 24.6376 15.7502 28.9099C15.9524 32.2721 13.9806 34.5725 11.0987 34.7495C7.66064 34.9265 5.76465 32.9041 5.76465 32.9041L6.49777 29.7947C6.49777 29.7947 8.41904 31.2356 9.93583 31.1345C10.9217 31.0839 11.3009 30.2497 11.2504 29.6935C11.0987 27.3172 7.2056 27.4689 6.9528 23.5505C6.75056 20.2641 8.89935 16.9525 13.652 16.6491C15.4974 16.5227 16.4328 17.003 16.4328 17.003Z" fill="white"/>
<path d="M43.7092 25.6745C42.6221 25.0931 42.066 24.5875 42.066 23.905C42.066 23.0454 42.8496 22.4893 44.0631 22.4893C45.4788 22.4893 46.7427 23.0707 46.7427 23.0707L47.7287 20.0371C47.7287 20.0371 46.8186 19.3293 44.1389 19.3293C40.3975 19.3293 37.7937 21.4781 37.7937 24.4864C37.7937 26.2054 39.0071 27.4947 40.625 28.4301C41.9396 29.1632 42.3946 29.694 42.3946 30.4777C42.3946 31.2867 41.7373 31.944 40.5239 31.944C38.729 31.944 37.01 31.0086 37.01 31.0086L35.9482 34.0422C35.9482 34.0422 37.5156 35.1039 40.17 35.1039C44.0125 35.1039 46.7933 33.2079 46.7933 29.7952C46.768 27.9497 45.3776 26.6352 43.7092 25.6745Z" fill="black"/>
<path d="M59.0288 19.279C57.1329 19.279 55.6413 20.189 54.5038 21.5541L54.4532 21.5289L56.0964 12.9337H51.8241L47.6529 34.8261H51.9252L53.3409 27.3432C53.897 24.5119 55.3633 22.7676 56.7284 22.7676C57.689 22.7676 58.0682 23.4249 58.0682 24.3602C58.0682 24.9417 58.0177 25.6748 57.8913 26.2562L56.2733 34.8261H60.5456L62.2141 25.9781C62.3911 25.0428 62.5175 23.9305 62.5175 23.1721C62.5428 20.7452 61.2788 19.279 59.0288 19.279Z" fill="black"/>
<path d="M72.2246 19.2786C67.0675 19.2786 63.6547 23.9301 63.6547 29.1125C63.6547 32.4241 65.7024 35.1038 69.5449 35.1038C74.6009 35.1038 78.0137 30.5787 78.0137 25.2699C78.039 22.2111 76.2441 19.2786 72.2246 19.2786ZM70.1263 31.8427C68.6601 31.8427 68.0534 30.604 68.0534 29.0366C68.0534 26.5845 69.3174 22.5902 71.6431 22.5902C73.1599 22.5902 73.6655 23.9048 73.6655 25.1688C73.6655 27.7979 72.3763 31.8427 70.1263 31.8427Z" fill="black"/>
<path d="M88.9857 19.2786C86.1038 19.2786 84.4606 21.8319 84.4606 21.8319H84.4101L84.6629 19.5314H80.8709C80.6939 21.0735 80.34 23.4498 80.0114 25.2194L77.0283 40.8929H81.3006L82.4888 34.5476H82.5899C82.5899 34.5476 83.4747 35.1038 85.0926 35.1038C90.1233 35.1038 93.4097 29.9467 93.4097 24.739C93.4097 21.8571 92.1204 19.2786 88.9857 19.2786ZM84.8904 31.8932C83.7781 31.8932 83.1208 31.2612 83.1208 31.2612L83.8286 27.267C84.3342 24.5874 85.7246 22.8178 87.2161 22.8178C88.5307 22.8178 88.9352 24.0312 88.9352 25.1688C88.9352 27.9496 87.292 31.8932 84.8904 31.8932Z" fill="black"/>
<path d="M99.5267 13.1359C98.1616 13.1359 97.0745 14.2229 97.0745 15.6133C97.0745 16.8773 97.8835 17.7621 99.0969 17.7621H99.1475C100.487 17.7621 101.625 16.852 101.65 15.2847C101.65 14.0459 100.816 13.1359 99.5267 13.1359Z" fill="black"/>
<path d="M93.5356 34.8006H97.8079L100.715 19.6326H96.4175L93.5356 34.8006Z" fill="black"/>
<path d="M111.61 19.6076H108.627L108.779 18.8998C109.032 17.4335 109.891 16.1443 111.332 16.1443C112.091 16.1443 112.698 16.3718 112.698 16.3718L113.532 13.0096C113.532 13.0096 112.799 12.6304 111.206 12.6304C109.689 12.6304 108.172 13.0601 107.01 14.046C105.543 15.2848 104.861 17.0796 104.532 18.8998L104.406 19.6076H102.409L101.777 22.8434H103.774L101.499 34.8261H105.771L108.046 22.8434H111.004L111.61 19.6076Z" fill="black"/>
<path d="M121.924 19.6326C121.924 19.6326 119.245 26.3824 118.057 30.0732H118.006C117.93 28.8851 116.944 19.6326 116.944 19.6326H112.444L115.023 33.5619C115.074 33.8652 115.048 34.0675 114.922 34.2697C114.416 35.2303 113.582 36.1657 112.596 36.8482C111.787 37.4297 110.877 37.8089 110.169 38.0617L111.357 41.702C112.217 41.525 114.037 40.7919 115.554 39.3762C117.5 37.5561 119.321 34.7247 121.166 30.8822L126.399 19.6326H121.924Z" fill="black"/>
</svg>
