<svg width="132" height="49" viewBox="0 0 132 49" fill="none" xmlns="http://www.w3.org/2000/svg">
<g clip-path="url(#clip0_170_1833)">
<path d="M21.8949 38.5415L13.2914 38.3841C10.5057 38.3293 7.71314 38.4389 4.9822 37.8708C0.827612 37.022 0.5333 32.8606 0.225299 29.3699C-0.199057 24.4625 -0.0347901 19.466 0.766012 14.5996C1.21775 11.8686 2.99731 10.2396 5.74878 10.0617C15.0367 9.41831 24.3863 9.4936 33.6537 9.79476C34.6324 9.82214 35.618 9.97272 36.5831 10.1438C41.3468 10.9789 41.4632 15.6947 41.7712 19.6645C42.0792 23.6753 41.9491 27.7067 41.3605 31.6902C40.8883 34.9892 39.9848 37.7544 36.1724 38.0213C31.395 38.3704 26.7271 38.651 21.9359 38.5621C21.9359 38.5415 21.9086 38.5415 21.8949 38.5415ZM16.8368 30.1913C20.437 28.1242 23.9687 26.0914 27.5484 24.0381C23.9414 21.9711 20.4165 19.9383 16.8368 17.8849V30.1913Z" fill="#FF0000"/>
<path d="M111.004 34.7909C110.839 35.4617 110.696 35.9887 110.552 36.5499H107.184V10.5752H111.113V20.1574C111.319 19.8974 111.421 19.7878 111.51 19.6715C112.181 18.7475 113.05 18.1452 114.173 17.9125C115.959 17.5634 117.485 18.3505 118.026 20.0685C118.375 21.1362 118.601 22.2792 118.628 23.3949C118.683 26.2627 118.642 29.1237 118.539 31.9915C118.498 32.8676 118.231 33.7642 117.896 34.5856C116.794 37.296 113.194 37.7066 111.408 35.359C111.298 35.2153 111.195 35.0578 111.004 34.7909ZM111.195 32.3953C111.195 33.1688 111.606 33.641 112.379 33.819C113.139 33.9969 113.755 33.7026 114.063 32.9977C114.193 32.7033 114.323 32.3953 114.33 32.0873C114.405 29.1853 114.474 26.2832 114.494 23.3743C114.494 22.8336 114.364 22.2724 114.2 21.7454C113.892 20.794 113.043 20.5134 112.208 21.0678C111.579 21.4921 111.195 22.0944 111.195 22.8952V32.3953ZM100.518 18.2821H104.631V36.5636H101.421C101.305 35.8723 101.189 35.1605 101.052 34.3255C100.833 34.6472 100.703 34.8525 100.566 35.0578C99.4981 36.5978 97.9855 37.1249 96.1991 36.8442C94.6728 36.5978 93.7556 35.4206 93.5503 33.4905C93.4887 32.9155 93.4613 32.3337 93.4613 31.7588C93.4476 27.481 93.4613 23.1895 93.4613 18.9118V18.2684H97.6228V19.0144C97.6228 23.1485 97.6091 27.2757 97.6364 31.4097C97.6364 31.9984 97.698 32.6075 97.8007 33.1961C97.9171 33.7985 98.3551 34.0175 98.9437 33.9764C99.8951 33.9011 100.552 33.1961 100.552 32.2516V19.0897C100.518 18.8228 100.518 18.5764 100.518 18.2821ZM72.1956 18.2684H76.3296V19.0418C76.3296 23.1553 76.3159 27.262 76.3433 31.3618C76.3433 31.9505 76.3981 32.5596 76.5213 33.1345C76.6787 33.8121 77.0757 34.0312 77.7533 33.9422C78.691 33.8121 79.259 33.1619 79.2659 32.2105V18.2958H83.3794V36.5636H80.183C80.0667 35.886 79.9503 35.1879 79.7998 34.305C79.5944 34.613 79.4781 34.7909 79.3617 34.9757C78.294 36.5431 76.795 37.118 74.9676 36.8374C73.5029 36.6184 72.6062 35.537 72.3324 33.7642C72.2572 33.2098 72.2024 32.6623 72.2024 32.1079C72.1887 27.6658 72.1887 23.2032 72.1887 18.7612L72.1956 18.2684ZM70.0738 28.0286C70.0601 28.6446 70.019 29.2606 69.9848 29.8766C69.8274 31.7246 69.7521 34.346 68.26 35.6944C67.3086 36.5431 66.104 36.8511 64.8583 36.8922C64.3039 36.9058 63.7426 36.9058 63.1882 36.8306C60.5668 36.4336 59.3485 35.2769 58.9104 32.3953C58.4108 29.0689 58.3697 25.6878 58.9652 22.3614C59.5812 18.9186 61.703 17.7003 65.002 17.9261C68.082 18.1452 69.4578 20.1643 69.8205 23.039C70.019 24.6885 70.1148 26.3585 70.0738 28.0286ZM65.885 27.3989C65.885 26.2285 65.9123 25.0512 65.8713 23.8808C65.8439 23.2032 65.7549 22.5188 65.6112 21.848C65.4469 21.0746 64.9541 20.705 64.3381 20.7187C63.7358 20.7324 63.3114 21.102 63.0924 21.8207C63.0171 22.0876 62.935 22.3614 62.935 22.6283C62.935 24.4626 62.9213 26.3038 62.9076 28.1381C62.8939 29.8492 62.6749 31.6425 63.2156 33.2783C63.3799 33.7779 63.8042 34.0517 64.3586 34.0517C64.8994 34.0517 65.2553 33.7848 65.4538 33.3057C65.6112 32.9361 65.7481 32.5322 65.7481 32.1353C65.796 30.561 65.885 28.98 65.885 27.3989ZM52.8736 23.9561C53.2364 22.1834 53.5786 20.4518 53.9551 18.7133C54.4273 16.5025 54.9543 14.2917 55.4198 12.0741C55.5361 11.5334 55.7551 11.4034 56.2685 11.4171C57.3704 11.4581 58.4929 11.4308 59.6702 11.4308C59.2869 12.8407 58.9104 14.1822 58.5408 15.5032C57.3704 19.651 56.2 23.8124 55.0433 27.9738C54.9543 28.2955 54.9133 28.6446 54.9133 28.9868C54.8996 31.2592 54.9133 33.5247 54.9133 35.797V36.5362H50.8956C50.8819 36.3309 50.8545 36.1256 50.8545 35.9202C50.8545 34.6335 50.7518 33.3399 50.8682 32.0668C51.1625 29.0073 50.1906 26.1943 49.4035 23.347C48.3631 19.5825 47.3091 15.8044 46.2687 12.0399C46.214 11.862 46.1934 11.6703 46.1387 11.4513H50.2385C51.1009 15.6059 51.9702 19.7605 52.8736 23.9561ZM131.482 28.7267H124.556C124.631 30.1161 124.658 31.4371 124.802 32.7444C124.905 33.6547 125.404 34.0449 126.192 34.0517C127.013 34.0654 127.492 33.6547 127.684 32.7513C127.745 32.4569 127.786 32.1626 127.814 31.8615C127.841 31.5945 127.855 31.3071 127.875 30.9238C129.046 30.9854 130.189 31.0538 131.318 31.1017C131.975 33.0524 130.791 35.5575 128.799 36.3309C127.232 36.9469 125.623 36.9469 124.022 36.4746C122.838 36.1256 121.955 35.3727 121.558 34.216C121.188 33.1345 120.839 32.0052 120.764 30.8759C120.559 28.0902 120.483 25.2771 120.908 22.4846C120.983 22.0191 121.113 21.5742 121.257 21.1225C121.832 19.2608 123.084 18.1178 125.021 17.9261C126.075 17.8235 127.163 17.8645 128.204 18.0425C129.888 18.3368 130.784 19.5483 131.174 21.1362C131.352 21.8822 131.482 22.6488 131.51 23.4086C131.517 25.1539 131.482 26.8856 131.482 28.7267ZM127.547 26.3243C127.547 24.9486 127.56 23.655 127.533 22.3545C127.533 22.0465 127.417 21.7248 127.3 21.4305C127.068 20.8556 126.582 20.6982 126 20.6982C125.418 20.6982 125.049 20.9925 124.905 21.5195C124.467 23.1006 124.61 24.7159 124.624 26.338C125.671 26.3243 126.623 26.3243 127.547 26.3243Z" fill="#282828"/>
<path d="M86.5551 14.7845H82.4827V11.4855H94.6384V14.764H90.5934V36.5362H86.562L86.5551 14.7845Z" fill="#282828"/>
</g>
<defs>
<clipPath id="clip0_170_1833">
<rect width="132" height="48" fill="white" transform="translate(0 0.569336)"/>
</clipPath>
</defs>
</svg>
