<svg width="32" height="40" viewBox="0 0 32 40" fill="none" xmlns="http://www.w3.org/2000/svg">
<g clip-path="url(#clip0_111_1574)">
<g clip-path="url(#clip1_111_1574)">
<g clip-path="url(#clip2_111_1574)">
<path d="M30.6972 14.2157C30.4754 14.3881 26.5843 16.58 26.5843 21.4561C26.5843 27.0958 31.5344 29.0907 31.6822 29.1398C31.6577 29.2629 30.8941 31.8735 29.0716 34.5332C27.4463 36.8729 25.7469 39.2124 23.1611 39.2124C20.5753 39.2124 19.9102 37.7101 16.9303 37.7101C14.0242 37.7101 12.9898 39.2617 10.6256 39.2617C8.26129 39.2617 6.61119 37.0944 4.71501 34.4347C2.52314 31.3069 0.75 26.4553 0.75 21.8501C0.75 14.4618 5.55246 10.5459 10.2808 10.5459C12.7929 10.5459 14.886 12.196 16.4622 12.196C17.9645 12.196 20.3042 10.4474 23.1608 10.4474C24.2446 10.4477 28.1359 10.5464 30.6972 14.2157ZM21.8067 7.32011C22.9887 5.91634 23.8261 3.97079 23.8261 2.02525C23.8261 1.75436 23.8016 1.48348 23.7522 1.26172C21.8312 1.33564 19.5409 2.54246 18.1617 4.1432C17.0781 5.37457 16.0683 7.32012 16.0683 9.29046C16.0683 9.5859 16.1176 9.88159 16.1422 9.98007C16.2652 10.0046 16.4624 10.0294 16.6594 10.0294C18.3834 10.0292 20.5505 8.87173 21.8067 7.32011Z" fill="#808080"/>
</g>
</g>
</g>
<defs>
<clipPath id="clip0_111_1574">
<rect width="31" height="39" fill="white" transform="translate(0.75 0.5)"/>
</clipPath>
<clipPath id="clip1_111_1574">
<rect width="31" height="39" fill="white" transform="translate(0.75 0.5)"/>
</clipPath>
<clipPath id="clip2_111_1574">
<rect width="31" height="39" fill="white" transform="translate(0.75 0.5)"/>
</clipPath>
</defs>
</svg>
