<svg width="157" height="49" viewBox="0 0 157 49" fill="none" xmlns="http://www.w3.org/2000/svg">
<g clip-path="url(#clip0_170_1827)">
<path d="M152.645 29.0356C152.557 29.4785 152.402 29.855 152.191 30.1871C151.981 30.5188 151.704 30.785 151.35 30.9949C151.007 31.1945 150.576 31.3048 150.066 31.3048C149.568 31.3048 149.136 31.2055 148.793 30.9949C148.451 30.7946 148.159 30.5182 147.941 30.1871C147.73 29.8553 147.575 29.4785 147.476 29.0356C147.379 28.5959 147.33 28.1467 147.332 27.6963C147.332 27.2315 147.377 26.7663 147.465 26.3352C147.554 25.8923 147.709 25.5049 147.919 25.1728C148.129 24.8292 148.406 24.564 148.76 24.3428C149.103 24.1322 149.535 24.0217 150.044 24.0217C150.542 24.0217 150.963 24.1322 151.306 24.3428C151.65 24.5554 151.941 24.8429 152.158 25.1838C152.38 25.5268 152.535 25.9251 152.634 26.3571C152.733 26.7998 152.778 27.2424 152.778 27.6963C152.778 28.1502 152.733 28.5929 152.645 29.0356ZM155.59 25.4605C155.379 24.7189 155.069 24.0769 154.649 23.5125C154.217 22.9592 153.686 22.505 153.044 22.1732C152.401 21.8411 151.627 21.664 150.73 21.664C150.022 21.664 149.379 21.808 148.793 22.0848C148.206 22.3616 147.719 22.8152 147.343 23.424H147.299V21.9739H144.332V37.3265H147.454V31.9355H147.498C147.866 32.4771 148.37 32.9124 148.959 33.1976C149.557 33.4853 150.199 33.6293 150.907 33.6293C151.737 33.6293 152.468 33.4634 153.099 33.1423C153.708 32.8304 154.241 32.3882 154.66 31.8471C155.08 31.3048 155.39 30.6847 155.59 29.9765C155.8 29.268 155.899 28.5379 155.899 27.7738C155.899 26.966 155.8 26.1912 155.59 25.4493V25.4605ZM140.193 29.0356C140.104 29.4785 139.949 29.855 139.739 30.1871C139.528 30.5191 139.252 30.785 138.897 30.9949C138.554 31.1945 138.123 31.3048 137.614 31.3048C137.115 31.3048 136.695 31.2055 136.34 30.9949C135.998 30.7944 135.707 30.518 135.488 30.1871C135.278 29.8553 135.123 29.4785 135.024 29.0356C134.926 28.5959 134.878 28.1467 134.88 27.6963C134.88 27.2315 134.924 26.7663 135.012 26.3352C135.101 25.8923 135.256 25.5049 135.466 25.1728C135.677 24.8292 135.953 24.564 136.307 24.3428C136.65 24.1322 137.082 24.0217 137.591 24.0217C138.09 24.0217 138.51 24.1322 138.853 24.3428C139.197 24.5554 139.488 24.8429 139.705 25.1838C139.927 25.5268 140.082 25.9251 140.182 26.3571C140.281 26.7998 140.325 27.2424 140.325 27.6963C140.325 28.1502 140.281 28.5929 140.193 29.0356ZM142.196 23.5125C141.775 22.9592 141.233 22.505 140.591 22.1732C139.949 21.8411 139.174 21.664 138.277 21.664C137.569 21.664 136.927 21.808 136.34 22.0848C135.754 22.3616 135.267 22.8152 134.89 23.424H134.846V21.9739H131.879V37.3265H135.001V31.9355H135.045C135.413 32.4771 135.917 32.9124 136.507 33.1976C137.104 33.4853 137.746 33.6293 138.454 33.6293C139.295 33.6293 140.015 33.4634 140.647 33.1423C141.255 32.8302 141.788 32.388 142.207 31.8471C142.628 31.3048 142.938 30.6847 143.148 29.9765C143.352 29.26 143.457 28.5188 143.458 27.7738C143.458 26.966 143.358 26.1912 143.148 25.4493C142.938 24.708 142.628 24.0657 142.196 23.5015V23.5125ZM121.651 27.2759L123.699 21.5088H123.744L125.725 27.2759H121.651ZM121.983 17.6348L116.04 33.3413H119.515L120.744 29.8437H126.622L127.806 33.3413H131.392L125.515 17.6348H121.973H121.983ZM115.785 28.3605C115.574 28.0062 115.309 27.6963 114.966 27.453C114.634 27.2096 114.246 27.0209 113.814 26.8663C113.377 26.7226 112.934 26.5971 112.486 26.4902C112.043 26.3902 111.612 26.2906 111.191 26.2022C110.77 26.1138 110.383 26.0138 110.062 25.9032C109.73 25.7926 109.464 25.6489 109.265 25.4715C109.054 25.2943 108.955 25.0732 108.955 24.7855C108.955 24.553 109.01 24.3647 109.132 24.2206C109.254 24.0769 109.398 23.9773 109.564 23.8998C109.73 23.8223 109.918 23.778 110.128 23.7561C110.32 23.735 110.512 23.7239 110.704 23.723C111.257 23.723 111.744 23.8336 112.154 24.0438C112.564 24.2541 112.796 24.6636 112.829 25.2612H115.796C115.74 24.5527 115.553 23.9773 115.254 23.5121C114.955 23.047 114.578 22.6821 114.125 22.4053C113.671 22.1285 113.151 21.9296 112.575 21.8077C111.999 21.6859 111.401 21.6306 110.782 21.6306C110.162 21.6306 109.564 21.6862 108.978 21.7965C108.391 21.9071 107.86 22.0954 107.395 22.3722C106.919 22.649 106.542 23.0145 106.266 23.479C105.978 23.9439 105.834 24.553 105.834 25.2831C105.834 25.7814 105.934 26.2018 106.144 26.5449C106.343 26.8885 106.62 27.1759 106.952 27.4083C107.295 27.6298 107.672 27.8182 108.104 27.9619C108.535 28.1056 108.978 28.2277 109.432 28.3271C110.55 28.5595 111.413 28.7919 112.044 29.0243C112.664 29.2567 112.974 29.611 112.974 30.0758C112.974 30.3526 112.908 30.585 112.775 30.7731C112.645 30.9569 112.474 31.1083 112.276 31.2158C112.077 31.3264 111.856 31.4041 111.612 31.4591C111.384 31.5112 111.15 31.5371 110.915 31.5366C110.605 31.5366 110.306 31.5038 110.029 31.426C109.742 31.3485 109.487 31.2373 109.266 31.0827C109.044 30.9277 108.867 30.7284 108.724 30.4851C108.58 30.2417 108.513 29.9537 108.513 29.6216H105.547C105.58 30.3851 105.746 31.0161 106.067 31.5253C106.377 32.0349 106.786 32.4332 107.273 32.7431C107.761 33.053 108.325 33.2741 108.956 33.4069C109.587 33.54 110.229 33.6065 110.893 33.6065C111.535 33.6065 112.177 33.54 112.797 33.4178C113.417 33.2963 113.97 33.0748 114.457 32.7649C114.944 32.455 115.332 32.0455 115.631 31.5472C115.929 31.0383 116.084 30.4185 116.084 29.6657C116.084 29.1346 115.985 28.6919 115.774 28.3374L115.785 28.3605ZM102.867 18.5648H99.7457V21.9739H97.8526V24.0657H99.7457V30.7737C99.7457 31.3495 99.8451 31.8034 100.033 32.1573C100.222 32.5119 100.487 32.7771 100.819 32.9767C101.152 33.1648 101.528 33.2976 101.96 33.3641C102.414 33.4317 102.873 33.4649 103.332 33.4634C103.642 33.4634 103.952 33.4525 104.284 33.4416C104.577 33.4316 104.869 33.402 105.159 33.3529V30.9287C105.006 30.9631 104.85 30.9853 104.694 30.9949C104.525 31.0081 104.355 31.0155 104.185 31.0171C103.653 31.0171 103.31 30.9287 103.133 30.7512C102.956 30.5744 102.867 30.2199 102.867 29.7V24.0657H105.159V21.9739H102.867V18.5648H102.867ZM93.9121 28.9472C93.9121 29.124 93.8902 29.3567 93.8568 29.6557C93.8195 29.9614 93.7176 30.2558 93.5578 30.5191C93.3919 30.8072 93.1483 31.0505 92.8053 31.2611C92.4735 31.471 91.9862 31.571 91.3776 31.571C91.134 31.571 90.8903 31.5485 90.6469 31.5044C90.4145 31.4597 90.2043 31.3823 90.0272 31.272C89.85 31.1611 89.7173 31.0174 89.6064 30.8181C89.507 30.63 89.4514 30.3976 89.4514 30.1096C89.4514 29.8106 89.507 29.5782 89.6064 29.3792C89.706 29.1905 89.8497 29.0356 90.0162 28.9031C90.1821 28.7813 90.3814 28.6819 90.6138 28.6045C90.8463 28.527 91.0677 28.4714 91.3111 28.427C91.561 28.384 91.8119 28.3472 92.0636 28.3164C92.3182 28.2833 92.551 28.2499 92.7834 28.2059C93.0158 28.1618 93.2261 28.1062 93.4254 28.04C93.6247 27.9737 93.7906 27.885 93.9236 27.7632V28.9256L93.9121 28.9472ZM97.0335 30.8178V24.8957C97.0335 24.2097 96.8786 23.6562 96.569 23.2357C96.2591 22.8149 95.8602 22.494 95.3844 22.2616C94.8974 22.0292 94.366 21.8743 93.7793 21.7859C93.2034 21.7071 92.623 21.6664 92.0418 21.664C91.4104 21.664 90.7797 21.7306 90.1599 21.8524C89.5404 21.9742 88.9756 22.1842 88.4774 22.4834C87.9869 22.7753 87.5673 23.1723 87.2487 23.6458C86.9279 24.1329 86.7395 24.7414 86.6955 25.4721H89.8169C89.8722 24.8526 90.0825 24.4209 90.4364 24.155C90.791 23.8892 91.2667 23.7567 91.8868 23.7567C92.1636 23.7567 92.4288 23.7786 92.6728 23.812C92.8996 23.8418 93.1179 23.9172 93.3148 24.0335C93.5032 24.1441 93.6469 24.2991 93.7578 24.4984C93.8683 24.6977 93.9236 24.9629 93.9236 25.3062C93.9346 25.627 93.8462 25.871 93.6356 26.0478C93.4254 26.2137 93.1486 26.3468 92.7946 26.4352C92.4407 26.5236 92.0421 26.5902 91.5882 26.6345C91.1343 26.6789 90.6694 26.7342 90.2046 26.8116C89.7398 26.8891 89.2746 26.9885 88.8098 27.1103C88.3449 27.2321 87.935 27.4202 87.5808 27.6751C87.2156 27.9294 86.9279 28.2615 86.6955 28.671C86.4631 29.0918 86.3522 29.6232 86.3522 30.2652C86.3522 30.8518 86.4515 31.361 86.6511 31.7815C86.838 32.1915 87.1185 32.5518 87.4702 32.8333C87.8357 33.1176 88.253 33.3281 88.6989 33.4531C89.1637 33.5859 89.6729 33.6521 90.2152 33.6521C90.9237 33.6521 91.6101 33.5528 92.2851 33.3422C92.9529 33.1384 93.5583 32.7692 94.0452 32.2688C94.0561 32.4569 94.0895 32.6447 94.1226 32.8333C94.1558 33.0102 94.211 33.1985 94.2667 33.3757H97.4324C97.2884 33.1432 97.1778 32.7887 97.1226 32.3238C97.064 31.8353 97.0343 31.3438 97.0338 30.8518V30.8178H97.0335ZM84.1716 22.9589C83.8617 22.5606 83.441 22.2394 82.9099 22.018C82.3785 21.7855 81.6925 21.6746 80.8509 21.6746C80.2642 21.6746 79.6666 21.8296 79.0468 22.1285C78.427 22.4275 77.9288 22.9145 77.5305 23.5674H77.4639V17.6457H74.3425V33.3525H77.4639V27.3864C77.4639 26.224 77.6523 25.394 78.0397 24.8848C78.4161 24.3756 79.0359 24.1322 79.8881 24.1322C80.6297 24.1322 81.1611 24.3647 81.4488 24.8292C81.7368 25.294 81.8918 25.9916 81.8918 26.9322V33.3525H85.0132V26.3571C85.0132 25.6486 84.9467 25.0069 84.8249 24.4312C84.703 23.8555 84.4815 23.3575 84.1716 22.9589ZM67.6676 28.4714H67.6232L64.9447 17.646H61.7124L58.9893 28.3386H58.9449L56.4542 17.646H53.001L57.1627 33.3529H60.6606L63.2728 22.6599H63.3172L65.9738 33.3529H69.4051L71.2866 26.3793L73.6333 17.646H70.2461L67.6676 28.4714Z" fill="#272525"/>
<path d="M23.723 42.8053C19.904 42.8053 16.3399 41.6541 13.3625 39.6951L6.12309 42.0081L8.46979 35.0126C6.21181 31.9131 4.88382 28.0943 4.88382 23.9767C4.88382 13.594 13.3294 5.1484 23.7121 5.1484C34.0948 5.1484 42.5404 13.594 42.5404 23.9767C42.5404 34.3591 34.0948 42.805 23.7121 42.805H23.723V42.8053ZM23.723 1.58398C11.3585 1.58398 1.33034 11.6131 1.33034 23.977C1.33034 28.2052 2.50369 32.168 4.54019 35.544L0.5 47.554L12.8977 43.5803C16.2114 45.4127 19.9365 46.3725 23.723 46.3697C36.0873 46.3697 46.1157 36.3412 46.1157 23.977C46.1154 11.6131 36.0873 1.58398 23.723 1.58398Z" fill="#FEFEFE"/>
<path d="M23.7228 5.14844C13.3401 5.14844 4.89453 13.594 4.89453 23.9767C4.89453 28.0944 6.22283 31.9131 8.48081 35.0126L6.13411 42.0081L13.3732 39.6951C16.3506 41.6654 19.9038 42.8053 23.7337 42.8053C34.1165 42.8053 42.562 34.3594 42.562 23.977C42.562 13.5943 34.1165 5.14875 23.7337 5.14875H23.7228V5.14844Z" fill="url(#paint0_linear_170_1827)"/>
<path d="M18.4655 14.7126C18.1003 13.8382 17.8235 13.8051 17.2703 13.7826C17.0602 13.7691 16.8498 13.7618 16.6392 13.7607C15.9195 13.7607 15.1669 13.971 14.713 14.4358C14.1598 15.0003 12.7871 16.3174 12.7871 19.0183C12.7871 21.7193 14.7574 24.3315 15.0229 24.697C15.2997 25.0619 18.8641 30.685 24.3985 32.9767C28.7264 34.7699 30.0106 34.6037 30.9956 34.3934C32.4345 34.0835 34.2389 33.0205 34.6928 31.7368C35.1467 30.4526 35.1467 29.3567 35.0136 29.1243C34.8809 28.8919 34.5154 28.7594 33.9621 28.4823C33.4089 28.2055 30.7188 26.8772 30.2096 26.7001C29.7114 26.512 29.2356 26.5786 28.8595 27.11C28.3281 27.8516 27.8079 28.6045 27.3872 29.058C27.0551 29.4123 26.5125 29.4567 26.0589 29.2683C25.45 29.014 23.7456 28.4158 21.6422 26.5452C20.015 25.0953 18.9082 23.2913 18.5873 22.7489C18.2662 22.1957 18.5542 21.8742 18.8085 21.5756C19.0853 21.2323 19.3508 20.9889 19.6276 20.6678C19.9044 20.3469 20.0593 20.1808 20.2365 19.8043C20.4248 19.4391 20.2917 19.0627 20.159 18.7859C20.0262 18.5091 18.9194 15.8082 18.4655 14.7126Z" fill="#FEFEFE"/>
</g>
<defs>
<linearGradient id="paint0_linear_170_1827" x1="-136.634" y1="-57.9339" x2="-136.634" y2="-56.5523" gradientUnits="userSpaceOnUse">
<stop stop-color="#6EBF61"/>
<stop offset="0.231" stop-color="#50A557"/>
<stop offset="0.522" stop-color="#2A904F"/>
<stop offset="0.812" stop-color="#50A557"/>
<stop offset="1" stop-color="#6EBF63"/>
</linearGradient>
<clipPath id="clip0_170_1827">
<rect width="156" height="48" fill="white" transform="translate(0.5 0.569336)"/>
</clipPath>
</defs>
</svg>
