<svg width="110" height="49" viewBox="0 0 110 49" fill="none" xmlns="http://www.w3.org/2000/svg">
<path fill-rule="evenodd" clip-rule="evenodd" d="M67.9349 38.3757C61.5714 43.0662 52.3478 45.5687 44.4064 45.5687C33.2714 45.5687 23.247 41.4502 15.6631 34.6005C15.0673 34.0618 15.6011 33.3277 16.3161 33.7472C24.5006 38.5092 34.6203 41.374 45.0738 41.374C52.1237 41.374 59.8792 39.9154 67.0102 36.8885C68.0875 36.4309 68.9884 37.594 67.9349 38.3757Z" fill="#FF9900"/>
<path fill-rule="evenodd" clip-rule="evenodd" d="M70.5805 35.3489C69.7702 34.3097 65.2037 34.8579 63.154 35.101C62.5296 35.1773 62.4342 34.6339 62.9967 34.243C66.6337 31.6833 72.6016 32.4221 73.2975 33.2801C73.9935 34.1429 73.1164 40.1251 69.6987 42.9804C69.1743 43.4189 68.6738 43.1854 68.9074 42.6038C69.6749 40.6876 71.3956 36.3928 70.5805 35.3489Z" fill="#FF9900"/>
<path fill-rule="evenodd" clip-rule="evenodd" d="M63.2973 16.173V13.6847C63.2973 13.3082 63.5833 13.0555 63.9265 13.0555H75.0663C75.4238 13.0555 75.7098 13.3129 75.7098 13.6847V15.8155C75.7051 16.173 75.4048 16.6401 74.8709 17.379L69.0984 25.6206C71.2434 25.5682 73.5076 25.8875 75.4524 26.9839C75.891 27.2318 76.0101 27.594 76.0435 27.9515V30.6066C76.0435 30.9689 75.6431 31.3931 75.2236 31.1738C71.7964 29.3768 67.2441 29.1813 63.4546 31.1929C63.0685 31.4026 62.6633 30.9832 62.6633 30.6209V28.0993C62.6633 27.6941 62.6681 27.003 63.0733 26.388L69.761 16.7974H63.9408C63.5833 16.7974 63.2973 16.5448 63.2973 16.173Z" fill="black"/>
<path fill-rule="evenodd" clip-rule="evenodd" d="M22.661 31.6982H19.2719C18.9477 31.6744 18.6903 31.4313 18.6665 31.1214V13.7277C18.6665 13.3797 18.9573 13.1032 19.3195 13.1032H22.4799C22.8088 13.1175 23.0709 13.3702 23.0948 13.6848V15.9585H23.1568C23.9814 13.761 25.5306 12.7362 27.6184 12.7362C29.7396 12.7362 31.0647 13.761 32.0181 15.9585C32.8379 13.761 34.7017 12.7362 36.699 12.7362C38.1195 12.7362 39.6734 13.3225 40.622 14.6381C41.6945 16.1015 41.4752 18.2275 41.4752 20.0912L41.4705 31.069C41.4705 31.417 41.1797 31.6982 40.8174 31.6982H37.4331C37.0946 31.6744 36.8229 31.4027 36.8229 31.069V21.8502C36.8229 21.1161 36.8897 19.2857 36.7276 18.5897C36.475 17.4219 35.7171 17.093 34.7351 17.093C33.9152 17.093 33.0572 17.6412 32.7093 18.5182C32.3613 19.3953 32.3946 20.8635 32.3946 21.8502V31.069C32.3946 31.417 32.1039 31.6982 31.7416 31.6982H28.3572C28.014 31.6744 27.7471 31.4027 27.7471 31.069L27.7423 21.8502C27.7423 19.9101 28.0617 17.0548 25.6545 17.0548C23.2187 17.0548 23.3141 19.8386 23.3141 21.8502V31.069C23.3141 31.417 23.0233 31.6982 22.661 31.6982Z" fill="black"/>
<path fill-rule="evenodd" clip-rule="evenodd" d="M85.3003 12.7362C90.3292 12.7362 93.051 17.0548 93.051 22.5461C93.051 27.8515 90.0432 32.0605 85.3003 32.0605C80.362 32.0605 77.6736 27.7418 77.6736 22.3602C77.6736 16.9452 80.3954 12.7362 85.3003 12.7362ZM85.3289 16.2874C82.8312 16.2874 82.6739 19.6908 82.6739 21.812C82.6739 23.938 82.6405 28.4759 85.3003 28.4759C87.9268 28.4759 88.0507 24.8151 88.0507 22.5842C88.0507 21.1161 87.9888 19.3619 87.5454 17.9701C87.1641 16.7593 86.4062 16.2874 85.3289 16.2874Z" fill="black"/>
<path fill-rule="evenodd" clip-rule="evenodd" d="M99.572 31.6982H96.1972C95.8587 31.6744 95.587 31.4027 95.587 31.069L95.5823 13.6705C95.6109 13.3511 95.8921 13.1032 96.2353 13.1032H99.3766C99.6721 13.1175 99.9152 13.3177 99.9819 13.5894V16.2493H100.044C100.992 13.8707 102.322 12.7362 104.663 12.7362C106.183 12.7362 107.666 13.2844 108.619 14.7859C109.506 16.1778 109.506 18.5182 109.506 20.2009V31.15C109.468 31.4551 109.186 31.6982 108.853 31.6982H105.454C105.144 31.6744 104.887 31.4456 104.854 31.15V21.7024C104.854 19.8005 105.073 17.0167 102.732 17.0167C101.908 17.0167 101.15 17.5697 100.773 18.4086C100.297 19.4716 100.235 20.5298 100.235 21.7024V31.069C100.23 31.417 99.9343 31.6982 99.572 31.6982Z" fill="black"/>
<path fill-rule="evenodd" clip-rule="evenodd" d="M54.4169 23.3898C54.4169 24.7102 54.4503 25.8113 53.783 26.9839C53.2443 27.9372 52.3863 28.5235 51.4377 28.5235C50.1364 28.5235 49.3737 27.5321 49.3737 26.0687C49.3737 23.18 51.9621 22.6557 54.4169 22.6557V23.3898ZM57.8347 31.6505C57.6106 31.8507 57.2865 31.865 57.0339 31.7315C55.9089 30.7973 55.7039 30.3635 55.089 29.4721C53.23 31.3693 51.9096 31.9365 49.5024 31.9365C46.6472 31.9365 44.4307 30.1776 44.4307 26.655C44.4307 23.9046 45.9179 22.0313 48.0438 21.1161C49.8838 20.3057 52.453 20.1627 54.4169 19.9387V19.5001C54.4169 18.6946 54.4789 17.7412 54.0022 17.0453C53.5923 16.4208 52.801 16.1634 52.1003 16.1634C50.8085 16.1634 49.6598 16.826 49.3785 18.1988C49.3213 18.5039 49.0973 18.8042 48.7874 18.8185L45.5032 18.4658C45.2267 18.4038 44.9169 18.1798 44.9979 17.7555C45.751 13.7706 49.3547 12.5693 52.577 12.5693C54.2263 12.5693 56.3808 13.0079 57.6821 14.2568C59.3314 15.7964 59.1741 17.8509 59.1741 20.0865V25.368C59.1741 26.9553 59.8319 27.6512 60.4516 28.5092C60.6661 28.8143 60.7138 29.1813 60.4373 29.4101C59.7461 29.9869 58.5163 31.0594 57.8394 31.66L57.8347 31.6505Z" fill="black"/>
<path fill-rule="evenodd" clip-rule="evenodd" d="M9.98627 23.3898C9.98627 24.7102 10.0196 25.8113 9.35229 26.9839C8.81365 27.9372 7.96041 28.5235 7.00707 28.5235C5.70575 28.5235 4.94785 27.5321 4.94785 26.0687C4.94785 23.18 7.53617 22.6557 9.98627 22.6557V23.3898ZM13.404 31.6505C13.18 31.8507 12.8558 31.865 12.6032 31.7315C11.4782 30.7973 11.278 30.3635 10.6584 29.4721C8.79935 31.3693 7.48374 31.9365 5.07178 31.9365C2.22129 31.9365 0 30.1776 0 26.655C0 23.9046 1.49198 22.0313 3.61317 21.1161C5.45312 20.3057 8.02238 20.1627 9.98627 19.9387V19.5001C9.98627 18.6946 10.0482 17.7412 9.57633 17.0453C9.16162 16.4208 8.37035 16.1634 7.67441 16.1634C6.38263 16.1634 5.22908 16.826 4.94785 18.1988C4.89065 18.5039 4.66661 18.8042 4.36154 18.8185L1.07251 18.4658C0.796041 18.4038 0.490971 18.1798 0.567238 17.7555C1.32515 13.7706 4.92401 12.5693 8.14631 12.5693C9.79559 12.5693 11.9501 13.0079 13.2515 14.2568C14.9007 15.7964 14.7434 17.8509 14.7434 20.0864V25.368C14.7434 26.9553 15.4013 27.6512 16.0209 28.5092C16.2402 28.8143 16.2879 29.1813 16.0114 29.4101C15.3202 29.9869 14.0904 31.0594 13.4135 31.66L13.404 31.6505Z" fill="black"/>
</svg>
