<svg width="42" height="41" viewBox="0 0 42 41" fill="none" xmlns="http://www.w3.org/2000/svg">
<g filter="url(#filter0_ddiii_108_575)">
<g clip-path="url(#clip0_108_575)">
<rect x="3" width="36" height="36" rx="9" fill="#05A105"/>
<rect width="36" height="36" transform="translate(3)" fill="url(#paint0_linear_108_575)"/>
<g filter="url(#filter1_d_108_575)">
<path d="M29.0476 10.925C28.8044 10.6819 28.5613 10.4388 28.3182 10.1957C27.5888 9.41766 26.8108 8.63967 25.8383 8.15342C24.72 7.56992 23.5043 7.71579 22.2887 7.71579C20.441 7.71579 15.8216 7.71579 13.0986 7.71579L14.9464 10.1957C18.3015 10.1957 23.553 10.1957 25.9842 10.1957C27.0053 10.1957 27.8806 10.3902 28.7072 10.925C28.8531 10.9737 28.9989 10.9737 29.0476 10.925Z" fill="url(#paint1_linear_108_575)"/>
<path d="M31.0894 14.9124C30.8463 14.6693 30.6032 14.4261 30.3601 14.183C29.6307 13.405 28.8527 12.627 27.8802 12.1408C26.7618 11.5573 25.5462 11.7031 24.3306 11.7031C22.726 11.7031 18.8846 11.7031 16.1616 11.7031L18.0094 14.183C21.3159 14.183 25.838 14.183 28.0747 14.183C29.0958 14.183 29.9711 14.3775 30.7977 14.9124C30.8949 14.961 30.9922 14.961 31.0894 14.9124Z" fill="url(#paint2_linear_108_575)"/>
<path d="M33.375 18.8022C33.1319 18.5591 32.8887 18.316 32.6456 18.0729C31.9162 17.2949 31.1383 16.5169 30.1658 16.0306C29.0474 15.4471 27.8318 15.593 26.6161 15.593C25.1088 15.593 21.8023 15.593 19.1279 15.593L20.9757 18.0729C24.1849 18.0729 28.2694 18.0729 30.3116 18.0729C31.3328 18.0729 32.208 18.2674 33.0346 18.8022C33.1805 18.8509 33.2777 18.8995 33.375 18.8022Z" fill="url(#paint3_linear_108_575)"/>
<path d="M12.9046 25.3666C13.1477 25.6097 13.3908 25.8529 13.634 26.096C14.3633 26.874 15.1413 27.652 16.1138 28.1382C17.2322 28.7217 18.4478 28.5758 19.6634 28.5758H28.8535L27.0058 26.096C23.6507 26.096 18.3992 26.096 15.9679 26.096C14.9468 26.096 14.0716 25.9015 13.245 25.3666C13.0991 25.318 13.0018 25.318 12.9046 25.3666Z" fill="url(#paint4_linear_108_575)"/>
<path d="M10.8622 21.3795C11.1053 21.6227 11.3485 21.8658 11.5916 22.1089C12.321 22.8869 13.099 23.6649 14.0715 24.1512C15.1898 24.7346 16.4054 24.5888 17.6211 24.5888H25.79L23.9423 22.1089C20.6358 22.1089 16.1137 22.1089 13.877 22.1089C12.8558 22.1089 11.9806 21.9144 11.154 21.3795C11.0567 21.3309 10.9595 21.3309 10.8622 21.3795Z" fill="url(#paint5_linear_108_575)"/>
<path d="M8.6254 17.4408C8.86853 17.6839 9.11165 17.927 9.35478 18.1702C10.0841 18.9482 10.8621 19.7262 11.8346 20.2124C12.953 20.7959 14.1686 20.65 15.3842 20.65H22.8725L21.0247 18.1702C17.8155 18.1702 13.731 18.1702 11.6888 18.1702C10.6676 18.1702 9.7924 17.9757 8.96577 17.4408C8.8199 17.3922 8.72265 17.3922 8.6254 17.4408Z" fill="url(#paint6_linear_108_575)"/>
</g>
</g>
<rect x="3.75" y="0.75" width="34.5" height="34.5" rx="8.25" stroke="url(#paint7_linear_108_575)" stroke-width="1.5"/>
</g>
<defs>
<filter id="filter0_ddiii_108_575" x="0.75" y="-2.25" width="40.5" height="42.75" filterUnits="userSpaceOnUse" color-interpolation-filters="sRGB">
<feFlood flood-opacity="0" result="BackgroundImageFix"/>
<feColorMatrix in="SourceAlpha" type="matrix" values="0 0 0 0 0 0 0 0 0 0 0 0 0 0 0 0 0 0 127 0" result="hardAlpha"/>
<feOffset dy="0.75"/>
<feGaussianBlur stdDeviation="0.375"/>
<feComposite in2="hardAlpha" operator="out"/>
<feColorMatrix type="matrix" values="0 0 0 0 0.162923 0 0 0 0 0.162923 0 0 0 0 0.162923 0 0 0 0.08 0"/>
<feBlend mode="normal" in2="BackgroundImageFix" result="effect1_dropShadow_108_575"/>
<feColorMatrix in="SourceAlpha" type="matrix" values="0 0 0 0 0 0 0 0 0 0 0 0 0 0 0 0 0 0 127 0" result="hardAlpha"/>
<feMorphology radius="0.75" operator="erode" in="SourceAlpha" result="effect2_dropShadow_108_575"/>
<feOffset dy="2.25"/>
<feGaussianBlur stdDeviation="1.5"/>
<feComposite in2="hardAlpha" operator="out"/>
<feColorMatrix type="matrix" values="0 0 0 0 0.164706 0 0 0 0 0.164706 0 0 0 0 0.164706 0 0 0 0.14 0"/>
<feBlend mode="normal" in2="effect1_dropShadow_108_575" result="effect2_dropShadow_108_575"/>
<feBlend mode="normal" in="SourceGraphic" in2="effect2_dropShadow_108_575" result="shape"/>
<feColorMatrix in="SourceAlpha" type="matrix" values="0 0 0 0 0 0 0 0 0 0 0 0 0 0 0 0 0 0 127 0" result="hardAlpha"/>
<feOffset dy="-2.25"/>
<feGaussianBlur stdDeviation="1.125"/>
<feComposite in2="hardAlpha" operator="arithmetic" k2="-1" k3="1"/>
<feColorMatrix type="matrix" values="0 0 0 0 0 0 0 0 0 0 0 0 0 0 0 0 0 0 0.1 0"/>
<feBlend mode="normal" in2="shape" result="effect3_innerShadow_108_575"/>
<feColorMatrix in="SourceAlpha" type="matrix" values="0 0 0 0 0 0 0 0 0 0 0 0 0 0 0 0 0 0 127 0" result="hardAlpha"/>
<feOffset dy="2.25"/>
<feGaussianBlur stdDeviation="1.125"/>
<feComposite in2="hardAlpha" operator="arithmetic" k2="-1" k3="1"/>
<feColorMatrix type="matrix" values="0 0 0 0 1 0 0 0 0 1 0 0 0 0 1 0 0 0 0.1 0"/>
<feBlend mode="normal" in2="effect3_innerShadow_108_575" result="effect4_innerShadow_108_575"/>
<feColorMatrix in="SourceAlpha" type="matrix" values="0 0 0 0 0 0 0 0 0 0 0 0 0 0 0 0 0 0 127 0" result="hardAlpha"/>
<feMorphology radius="0.75" operator="erode" in="SourceAlpha" result="effect5_innerShadow_108_575"/>
<feOffset/>
<feComposite in2="hardAlpha" operator="arithmetic" k2="-1" k3="1"/>
<feColorMatrix type="matrix" values="0 0 0 0 0.0627451 0 0 0 0 0.0941176 0 0 0 0 0.156863 0 0 0 0.24 0"/>
<feBlend mode="normal" in2="effect4_innerShadow_108_575" result="effect5_innerShadow_108_575"/>
</filter>
<filter id="filter1_d_108_575" x="5.625" y="3.75" width="30.75" height="33" filterUnits="userSpaceOnUse" color-interpolation-filters="sRGB">
<feFlood flood-opacity="0" result="BackgroundImageFix"/>
<feColorMatrix in="SourceAlpha" type="matrix" values="0 0 0 0 0 0 0 0 0 0 0 0 0 0 0 0 0 0 127 0" result="hardAlpha"/>
<feMorphology radius="1.5" operator="erode" in="SourceAlpha" result="effect1_dropShadow_108_575"/>
<feOffset dy="2.25"/>
<feGaussianBlur stdDeviation="2.25"/>
<feComposite in2="hardAlpha" operator="out"/>
<feColorMatrix type="matrix" values="0 0 0 0 0.141176 0 0 0 0 0.141176 0 0 0 0 0.141176 0 0 0 0.1 0"/>
<feBlend mode="normal" in2="BackgroundImageFix" result="effect1_dropShadow_108_575"/>
<feBlend mode="normal" in="SourceGraphic" in2="effect1_dropShadow_108_575" result="shape"/>
</filter>
<linearGradient id="paint0_linear_108_575" x1="18" y1="4.47035e-07" x2="19.5" y2="36" gradientUnits="userSpaceOnUse">
<stop stop-color="white" stop-opacity="0"/>
<stop offset="1" stop-color="white" stop-opacity="0.12"/>
</linearGradient>
<linearGradient id="paint1_linear_108_575" x1="23.2368" y1="7.69958" x2="23.2368" y2="18.8584" gradientUnits="userSpaceOnUse">
<stop stop-color="white" stop-opacity="0.8"/>
<stop offset="1" stop-color="white" stop-opacity="0.5"/>
</linearGradient>
<linearGradient id="paint2_linear_108_575" x1="23.2368" y1="7.69958" x2="23.2368" y2="18.8584" gradientUnits="userSpaceOnUse">
<stop stop-color="white" stop-opacity="0.8"/>
<stop offset="1" stop-color="white" stop-opacity="0.5"/>
</linearGradient>
<linearGradient id="paint3_linear_108_575" x1="23.2368" y1="7.69958" x2="23.2368" y2="18.8584" gradientUnits="userSpaceOnUse">
<stop stop-color="white" stop-opacity="0.8"/>
<stop offset="1" stop-color="white" stop-opacity="0.5"/>
</linearGradient>
<linearGradient id="paint4_linear_108_575" x1="18.7395" y1="28.592" x2="18.7395" y2="17.4043" gradientUnits="userSpaceOnUse">
<stop stop-color="white" stop-opacity="0.8"/>
<stop offset="1" stop-color="white" stop-opacity="0.5"/>
</linearGradient>
<linearGradient id="paint5_linear_108_575" x1="18.7395" y1="28.592" x2="18.7395" y2="17.4043" gradientUnits="userSpaceOnUse">
<stop stop-color="white" stop-opacity="0.8"/>
<stop offset="1" stop-color="white" stop-opacity="0.5"/>
</linearGradient>
<linearGradient id="paint6_linear_108_575" x1="18.7395" y1="28.592" x2="18.7395" y2="17.4043" gradientUnits="userSpaceOnUse">
<stop stop-color="white" stop-opacity="0.8"/>
<stop offset="1" stop-color="white" stop-opacity="0.5"/>
</linearGradient>
<linearGradient id="paint7_linear_108_575" x1="21" y1="0" x2="21" y2="36" gradientUnits="userSpaceOnUse">
<stop stop-color="white" stop-opacity="0.12"/>
<stop offset="1" stop-color="white" stop-opacity="0"/>
</linearGradient>
<clipPath id="clip0_108_575">
<rect x="3" width="36" height="36" rx="9" fill="white"/>
</clipPath>
</defs>
</svg>
