<svg width="163" height="49" viewBox="0 0 163 49" fill="none" xmlns="http://www.w3.org/2000/svg">
<path d="M45.0508 14.5829H52.6729C57.5322 14.5829 61.5465 17.3945 61.5465 23.814V25.1629C61.5465 31.6312 57.7923 34.5403 52.8192 34.5403H45.0508V14.5829ZM49.3088 18.2071V30.8998H52.5754C55.3382 30.8998 57.191 29.0959 57.191 25.0816V24.0253C57.191 20.0111 55.2407 18.2071 52.4291 18.2071H49.3088ZM63.8055 18.4021H67.2184L67.7709 22.1563C68.421 19.6048 70.0787 18.2396 73.0853 18.2396H74.1417V22.5464H72.3865C68.9248 22.5464 68.0797 23.749 68.0797 27.1619V34.589H63.8705V18.4021H63.8055ZM74.9868 26.8206V26.3655C74.9868 20.9537 78.4484 17.9958 83.1615 17.9958C87.9721 17.9958 91.3362 20.9537 91.3362 26.3655V26.8206C91.3362 32.135 88.0696 34.9953 83.1615 34.9953C77.9446 34.9466 74.9868 32.1512 74.9868 26.8206ZM87.0294 26.7718V26.3655C87.0294 23.3589 85.518 21.555 83.1127 21.555C80.7562 21.555 79.196 23.2127 79.196 26.3655V26.7718C79.196 29.6809 80.7075 31.3386 83.1127 31.3386C85.518 31.2899 87.0294 29.6809 87.0294 26.7718ZM93.5465 18.4021H97.0569L97.4632 21.4575C98.3083 19.4097 100.112 17.9958 102.778 17.9958C106.889 17.9958 109.603 20.9537 109.603 26.4306V26.8856C109.603 32.2 106.597 35.0116 102.778 35.0116C100.226 35.0116 98.4708 33.8577 97.6094 32.005V40.1797H93.4977L93.5465 18.4021ZM105.329 26.7718V26.4143C105.329 23.1964 103.671 21.6037 101.461 21.6037C99.1046 21.6037 97.5444 23.4077 97.5444 26.4143V26.7231C97.5444 29.5834 99.0559 31.3874 101.412 31.3874C103.834 31.3386 105.329 29.7947 105.329 26.7718ZM115.828 31.5987L115.47 34.5565H111.862V12.9902H115.974V21.2625C116.884 19.1497 118.688 17.9958 121.24 17.9958C125.108 18.0446 127.968 20.7099 127.968 26.073V26.5768C127.968 31.94 125.254 35.0116 121.142 35.0116C118.428 34.9466 116.673 33.6952 115.828 31.5987ZM123.645 26.5768V26.1705C123.645 23.2127 122.036 21.555 119.777 21.555C117.469 21.555 115.86 23.4077 115.86 26.2193V26.5768C115.86 29.5834 117.421 31.3386 119.728 31.3386C122.199 31.3386 123.645 29.7947 123.645 26.5768ZM129.772 26.8206V26.3655C129.772 20.9537 133.234 17.9958 137.947 17.9958C142.757 17.9958 146.121 20.9537 146.121 26.3655V26.8206C146.121 32.135 142.806 34.9953 137.947 34.9953C132.73 34.9466 129.772 32.1512 129.772 26.8206ZM141.847 26.7718V26.3655C141.847 23.3589 140.336 21.555 137.93 21.555C135.574 21.555 134.014 23.2127 134.014 26.3655V26.7718C134.014 29.6809 135.525 31.3386 137.93 31.3386C140.352 31.2899 141.847 29.6809 141.847 26.7718ZM151.631 26.1705L145.959 18.4021H150.818L154.085 23.2614L157.4 18.4021H162.211L156.458 26.1218L162.52 34.5565H157.758L154.052 29.1934L150.444 34.5565H145.471L151.631 26.1705Z" fill="black"/>
<path d="M18.8522 14.5825L9.42611 20.5957L18.8522 26.609L9.42611 32.6222L0 26.5764L9.42611 20.5632L0 14.5825L9.42611 8.56934L18.8522 14.5825ZM9.37735 34.5561L18.8035 28.5429L28.2296 34.5561L18.8035 40.5693L9.37735 34.5561ZM18.8522 26.5764L28.2783 20.5632L18.8522 14.5825L28.2296 8.56934L37.6557 14.5825L28.2296 20.5957L37.6557 26.609L28.2296 32.6222L18.8522 26.5764Z" fill="#0061FF"/>
</svg>
