<svg width="172" height="49" viewBox="0 0 172 49" fill="none" xmlns="http://www.w3.org/2000/svg">
<g clip-path="url(#clip0_170_1824)">
<path d="M36.6119 11.3917C33.8524 10.1006 30.9018 9.16222 27.817 8.62793C27.4381 9.31288 26.9955 10.2341 26.6903 10.967C23.4111 10.4739 20.1621 10.4739 16.9431 10.967C16.638 10.2341 16.1854 9.31288 15.8031 8.62793C12.715 9.16222 9.761 10.104 7.00146 11.3985C1.43546 19.8095 -0.0733972 28.0115 0.681031 36.0971C4.3727 38.854 7.95037 40.5287 11.4677 41.6245C12.3361 40.4293 13.1106 39.1588 13.7779 37.8197C12.5071 37.3369 11.29 36.741 10.1399 36.0492C10.445 35.8232 10.7434 35.5868 11.0318 35.3437C18.0463 38.6245 25.6677 38.6245 32.5984 35.3437C32.8901 35.5868 33.1885 35.8232 33.4902 36.0492C32.3368 36.7444 31.1163 37.3403 29.8456 37.8232C30.5128 39.1588 31.284 40.4328 32.1558 41.6279C35.6764 40.5321 39.2574 38.8574 42.9491 36.0971C43.8343 26.7239 41.4369 18.5971 36.6119 11.3917ZM14.7335 31.1246C12.6278 31.1246 10.901 29.1588 10.901 26.7649C10.901 24.3711 12.591 22.4019 14.7335 22.4019C16.8761 22.4019 18.6029 24.3677 18.566 26.7649C18.5693 29.1588 16.8761 31.1246 14.7335 31.1246ZM28.8966 31.1246C26.791 31.1246 25.0641 29.1588 25.0641 26.7649C25.0641 24.3711 26.754 22.4019 28.8966 22.4019C31.0392 22.4019 32.766 24.3677 32.7291 26.7649C32.7291 29.1588 31.0392 31.1246 28.8966 31.1246Z" fill="#23272A"/>
<path d="M57.7857 17.0465H66.9392C69.1458 17.0465 71.01 17.3992 72.5393 18.1013C74.0645 18.8033 75.2081 19.7828 75.966 21.0362C76.7234 22.2896 77.1056 23.7245 77.1056 25.341C77.1056 26.9232 76.71 28.3581 75.9187 29.6423C75.1275 30.93 73.9237 31.9472 72.3044 32.6972C70.6851 33.4471 68.6795 33.8238 66.2824 33.8238H57.7857V17.0465ZM66.1883 29.5602C67.6738 29.5602 68.8174 29.18 69.6151 28.4232C70.4133 27.6629 70.8124 26.6287 70.8124 25.317C70.8124 24.1012 70.4566 23.1321 69.746 22.406C69.0354 21.68 67.9589 21.3136 66.5202 21.3136H63.6568V29.5602H66.1883Z" fill="#23272A"/>
<path d="M90.8096 33.8034C89.5421 33.4678 88.3985 32.9815 87.3828 32.3411V28.3616C88.1507 28.9678 89.1798 29.4678 90.4706 29.8616C91.7615 30.252 93.0092 30.4472 94.2159 30.4472C94.7792 30.4472 95.2053 30.3719 95.4934 30.2212C95.782 30.0705 95.9264 29.889 95.9264 29.6801C95.9264 29.4404 95.8492 29.2418 95.6915 29.0808C95.5337 28.9198 95.2286 28.7862 94.7763 28.6732L91.9596 28.026C90.3468 27.6424 89.2031 27.1116 88.5229 26.4301C87.8421 25.752 87.5032 24.8616 87.5032 23.7589C87.5032 22.8308 87.7983 22.026 88.3955 21.3376C88.9887 20.6493 89.8337 20.1184 90.93 19.7451C92.0268 19.3685 93.3072 19.1801 94.7793 19.1801C96.0935 19.1801 97.2973 19.3239 98.3942 19.6116C99.4905 19.8993 100.396 20.2657 101.117 20.7143V24.4781C100.379 24.0294 99.5337 23.6767 98.5683 23.4095C97.6059 23.1459 96.6171 23.0157 95.5974 23.0157C94.1253 23.0157 93.3914 23.2726 93.3914 23.7828C93.3914 24.0226 93.5053 24.2007 93.7332 24.3205C93.9611 24.4404 94.3801 24.5637 94.9873 24.6938L97.3341 25.1253C98.8669 25.3959 100.01 25.8719 100.761 26.55C101.512 27.2281 101.888 28.2315 101.888 29.5602C101.888 31.0157 101.268 32.1698 100.023 33.026C98.7793 33.8822 97.0157 34.3102 94.729 34.3102C93.3843 34.3068 92.0771 34.139 90.8096 33.8034Z" fill="#23272A"/>
<path d="M107.428 33.2998C106.084 32.6285 105.068 31.7176 104.39 30.5669C103.713 29.4162 103.371 28.1217 103.371 26.6833C103.371 25.245 103.723 23.9573 104.427 22.8238C105.131 21.6902 106.164 20.7998 107.525 20.1525C108.886 19.5053 110.513 19.1833 112.407 19.1833C114.754 19.1833 116.702 19.6868 118.252 20.6936V25.0806C117.705 24.697 117.068 24.3854 116.34 24.1457C115.613 23.906 114.835 23.7861 114.003 23.7861C112.548 23.7861 111.412 24.0566 110.59 24.6011C109.768 25.1457 109.356 25.8546 109.356 26.7347C109.356 27.5977 109.755 28.3032 110.553 28.858C111.351 29.4094 112.508 29.6868 114.027 29.6868C114.808 29.6868 115.579 29.5703 116.34 29.3409C117.098 29.108 117.752 28.8238 118.298 28.4881V32.7313C116.579 33.7861 114.583 34.3135 112.313 34.3135C110.402 34.3066 108.772 33.971 107.428 33.2998Z" fill="#23272A"/>
<path d="M124.106 33.3C122.751 32.6288 121.719 31.711 121.007 30.5432C120.297 29.3754 119.938 28.074 119.938 26.6357C119.938 25.1973 120.293 23.9131 121.007 22.7864C121.721 21.6597 122.748 20.7761 124.096 20.1357C125.44 19.4952 127.046 19.1768 128.907 19.1768C130.768 19.1768 132.374 19.4952 133.719 20.1357C135.063 20.7761 136.09 21.6528 136.794 22.7726C137.498 23.8925 137.85 25.1768 137.85 26.6323C137.85 28.0706 137.498 29.372 136.794 30.5398C136.09 31.7076 135.06 32.6254 133.705 33.2967C132.351 33.9679 130.751 34.3035 128.904 34.3035C127.056 34.3035 125.457 33.9713 124.106 33.3ZM131.237 29.0466C131.808 28.4645 132.096 27.6939 132.096 26.735C132.096 25.7761 131.811 25.0124 131.237 24.4473C130.668 23.8788 129.889 23.5946 128.904 23.5946C127.901 23.5946 127.116 23.8788 126.543 24.4473C125.973 25.0158 125.688 25.7761 125.688 26.735C125.688 27.6939 125.973 28.4645 126.543 29.0466C127.114 29.6288 127.901 29.9234 128.904 29.9234C129.889 29.9199 130.668 29.6288 131.237 29.0466Z" fill="#23272A"/>
<path d="M151.952 20.0671V25.2452C151.356 24.8445 150.584 24.6459 149.629 24.6459C148.378 24.6459 147.412 25.0329 146.741 25.8069C146.068 26.5809 145.732 27.7863 145.732 29.4164V33.8274H139.982V19.8035H145.615V24.2624C145.927 22.6322 146.433 21.4302 147.131 20.6527C147.825 19.8788 148.723 19.4918 149.816 19.4918C150.644 19.4918 151.356 19.6836 151.952 20.0671Z" fill="#23272A"/>
<path d="M171.058 16.567V33.8273H165.307V30.6869C164.821 31.8684 164.084 32.7691 163.091 33.3855C162.098 33.9986 160.871 34.3067 159.416 34.3067C158.115 34.3067 156.982 33.9848 156.013 33.3376C155.044 32.6903 154.297 31.8033 153.77 30.6766C153.247 29.5499 152.982 28.2759 152.982 26.8513C152.965 25.3821 153.243 24.0636 153.817 22.8958C154.387 21.728 155.195 20.817 156.234 20.1629C157.274 19.5088 158.461 19.18 159.792 19.18C162.532 19.18 164.369 20.3958 165.307 22.8238V16.567H171.058ZM164.449 28.9506C165.036 28.3684 165.328 27.6116 165.328 26.6869C165.328 25.793 165.043 25.0636 164.473 24.5054C163.902 23.9472 163.121 23.6663 162.139 23.6663C161.17 23.6663 160.396 23.9506 159.815 24.5191C159.235 25.0876 158.947 25.8238 158.947 26.7348C158.947 27.6458 159.235 28.389 159.815 28.9643C160.396 29.5396 161.16 29.8273 162.115 29.8273C163.084 29.8239 163.862 29.5328 164.449 28.9506Z" fill="#23272A"/>
<path d="M81.9514 21.2963C83.5345 21.2963 84.8184 20.1187 84.8184 18.6661C84.8184 17.2135 83.5345 16.036 81.9514 16.036C80.3678 16.036 79.0845 17.2135 79.0845 18.6661C79.0845 20.1187 80.3678 21.2963 81.9514 21.2963Z" fill="#23272A"/>
<path d="M79.082 23.1081C80.8386 23.8821 83.0183 23.9163 84.8153 23.1081V33.9026H79.082V23.1081Z" fill="#23272A"/>
</g>
<defs>
<clipPath id="clip0_170_1824">
<rect width="171" height="48" fill="white" transform="translate(0.5 0.569336)"/>
</clipPath>
</defs>
</svg>
