<svg width="128" height="49" viewBox="0 0 128 49" fill="none" xmlns="http://www.w3.org/2000/svg">
<g clip-path="url(#clip0_170_1794)">
<path d="M67.547 14.6194C67.547 16.0608 66.3858 17.222 64.9444 17.222C63.5029 17.222 62.3418 16.0608 62.3418 14.6194C62.3418 13.1779 63.4629 12.0168 64.9444 12.0168C66.4258 12.0568 67.547 13.218 67.547 14.6194ZM56.8162 19.8646C56.8162 20.1049 56.8162 20.5053 56.8162 20.5053C56.8162 20.5053 55.575 18.9037 52.9324 18.9037C48.568 18.9037 45.1646 22.227 45.1646 26.8316C45.1646 31.3962 48.5279 34.7595 52.9324 34.7595C55.615 34.7595 56.8162 33.1179 56.8162 33.1179V33.7986C56.8162 34.1189 57.0565 34.3591 57.3768 34.3591H60.62V19.3041C60.62 19.3041 57.6571 19.3041 57.3768 19.3041C57.0565 19.3041 56.8162 19.5844 56.8162 19.8646ZM56.8162 29.5143C56.2156 30.3952 55.0144 31.1559 53.573 31.1559C51.0104 31.1559 49.0485 29.5543 49.0485 26.8316C49.0485 24.1089 51.0104 22.5073 53.573 22.5073C54.9744 22.5073 56.2557 23.3081 56.8162 24.1489V29.5143ZM63.0224 19.3041H66.8663V34.3591H63.0224V19.3041ZM120.44 18.9037C117.797 18.9037 116.556 20.5053 116.556 20.5053V12.0568H112.712V34.3591C112.712 34.3591 115.675 34.3591 115.955 34.3591C116.276 34.3591 116.516 34.0788 116.516 33.7986V33.1179C116.516 33.1179 117.757 34.7595 120.4 34.7595C124.764 34.7595 128.168 31.3962 128.168 26.8316C128.168 22.267 124.764 18.9037 120.44 18.9037ZM119.799 31.1159C118.318 31.1159 117.157 30.3551 116.556 29.4742V24.1089C117.157 23.3081 118.438 22.4672 119.799 22.4672C122.362 22.4672 124.324 24.0688 124.324 26.7916C124.324 29.5143 122.362 31.1159 119.799 31.1159ZM110.71 25.4302V34.3992H106.866V25.8706C106.866 23.3882 106.065 22.3872 103.903 22.3872C102.742 22.3872 101.541 22.9878 100.78 23.8686V34.3591H96.9363V19.3041H99.9794C100.3 19.3041 100.54 19.5844 100.54 19.8646V20.5053C101.661 19.3441 103.143 18.9037 104.624 18.9037C106.306 18.9037 107.707 19.3842 108.828 20.3451C110.19 21.4662 110.71 22.9077 110.71 25.4302ZM87.607 18.9037C84.9644 18.9037 83.7231 20.5053 83.7231 20.5053V12.0568H79.8793V34.3591C79.8793 34.3591 82.8423 34.3591 83.1225 34.3591C83.4429 34.3591 83.6831 34.0788 83.6831 33.7986V33.1179C83.6831 33.1179 84.9243 34.7595 87.567 34.7595C91.9313 34.7595 95.3347 31.3962 95.3347 26.8316C95.3748 22.267 91.9714 18.9037 87.607 18.9037ZM86.9664 31.1159C85.4849 31.1159 84.3237 30.3551 83.7231 29.4742V24.1089C84.3237 23.3081 85.605 22.4672 86.9664 22.4672C89.5289 22.4672 91.4909 24.0688 91.4909 26.7916C91.4909 29.5143 89.5289 31.1159 86.9664 31.1159ZM76.556 18.9037C77.7171 18.9037 78.3177 19.1039 78.3177 19.1039V22.6674C78.3177 22.6674 75.1145 21.5864 73.1125 23.8686V34.3992H69.2687V19.3041C69.2687 19.3041 72.2317 19.3041 72.5119 19.3041C72.8322 19.3041 73.0725 19.5844 73.0725 19.8646V20.5053C73.7932 19.6644 75.3548 18.9037 76.556 18.9037ZM36.6361 32.9978C36.4359 32.5173 36.2357 31.9968 36.0355 31.5563C35.7151 30.8356 35.3948 30.1549 35.1145 29.5143L35.0745 29.4742C32.3117 23.4682 29.3488 17.3821 26.2257 11.3761L26.1055 11.1359C25.7852 10.5353 25.4649 9.89466 25.1446 9.25402C24.7442 8.5333 24.3438 7.77254 23.7031 7.05182C22.4218 5.45022 20.58 4.56934 18.618 4.56934C16.616 4.56934 14.8142 5.45022 13.4929 6.97174C12.8923 7.69246 12.4519 8.45322 12.0515 9.17394C11.7312 9.81458 11.4108 10.4552 11.0905 11.0558L10.9704 11.2961C7.88732 17.3021 4.88431 23.3882 2.12155 29.3942L2.08151 29.4742C1.80123 30.1149 1.48091 30.7956 1.16059 31.5163C0.960391 31.9567 0.760191 32.4372 0.559991 32.9577C0.0394705 34.4392 -0.12069 35.8406 0.0795105 37.282C0.519951 40.285 2.52195 42.8076 5.28471 43.9287C6.32576 44.3691 7.40684 44.5693 8.52796 44.5693C8.84828 44.5693 9.24868 44.5293 9.569 44.4893C10.8903 44.3291 12.2517 43.8887 13.573 43.1279C15.2146 42.207 16.7762 40.8857 18.538 38.9637C20.2997 40.8857 21.9013 42.207 23.5029 43.1279C24.8243 43.8887 26.1856 44.3291 27.5069 44.4893C27.8272 44.5293 28.2277 44.5693 28.548 44.5693C29.6691 44.5693 30.7902 44.3691 31.7912 43.9287C34.594 42.8076 36.556 40.245 36.9964 37.282C37.3167 35.8806 37.1566 34.4792 36.6361 32.9978ZM18.578 35.0798C16.4158 32.3571 15.0144 29.7946 14.534 27.6324C14.3338 26.7115 14.2937 25.9107 14.4138 25.19C14.4939 24.5493 14.7342 23.9888 15.0545 23.5083C15.8152 22.4272 17.0965 21.7465 18.578 21.7465C20.0595 21.7465 21.3808 22.3872 22.1015 23.5083C22.4218 23.9888 22.6621 24.5493 22.7422 25.19C22.8623 25.9107 22.8222 26.7515 22.622 27.6324C22.1416 29.7545 20.7402 32.3171 18.578 35.0798ZM34.554 36.9617C34.2737 39.0438 32.8723 40.8456 30.9103 41.6464C29.9494 42.0468 28.9083 42.1669 27.8673 42.0468C26.8663 41.9267 25.8653 41.6064 24.8243 41.0058C23.3828 40.205 21.9414 38.9637 20.2597 37.1219C22.9023 33.8786 24.5039 30.9157 25.1045 28.273C25.3848 27.0318 25.4249 25.9107 25.3047 24.8696C25.1446 23.8686 24.7842 22.9477 24.2236 22.1469C22.9824 20.3451 20.9003 19.3041 18.578 19.3041C16.2557 19.3041 14.1736 20.3852 12.9324 22.1469C12.3718 22.9477 12.0114 23.8686 11.8513 24.8696C11.6911 25.9107 11.7312 27.0718 12.0515 28.273C12.6521 30.9157 14.2937 33.9187 16.8963 37.1619C15.2547 39.0038 13.7732 40.245 12.3318 41.0458C11.2907 41.6464 10.2897 41.9667 9.28872 42.0869C8.20764 42.207 7.1666 42.0468 6.24568 41.6865C4.28371 40.8857 2.88231 39.0839 2.60203 37.0018C2.48191 36.0008 2.56199 34.9998 2.96239 33.8786C3.08251 33.4782 3.28271 33.0778 3.48291 32.5974C3.76319 31.9567 4.08351 31.276 4.40383 30.5954L4.44387 30.5153C7.20664 24.5493 10.1696 18.4632 13.2527 12.5373L13.3728 12.2971C13.6931 11.6965 14.0134 11.0558 14.3338 10.4552C14.6541 9.81458 15.0144 9.21398 15.4549 8.69346C16.2957 7.7325 17.4168 7.21198 18.6581 7.21198C19.8993 7.21198 21.0204 7.7325 21.8613 8.69346C22.3017 9.21398 22.6621 9.81458 22.9824 10.4552C23.3027 11.0558 23.623 11.6965 23.9434 12.2971L24.0635 12.5373C27.1065 18.5033 30.0695 24.5894 32.8323 30.5553V30.5954C33.1526 31.236 33.4329 31.9567 33.7532 32.5974C33.9534 33.0778 34.1536 33.4782 34.2737 33.8786C34.594 34.9197 34.7141 35.9207 34.554 36.9617Z" fill="#FF5A5F"/>
</g>
<defs>
<clipPath id="clip0_170_1794">
<rect width="128" height="48" fill="white" transform="translate(0 0.569336)"/>
</clipPath>
</defs>
</svg>
