<svg width="136" height="49" viewBox="0 0 136 49" fill="none" xmlns="http://www.w3.org/2000/svg">
<g clip-path="url(#clip0_170_1818)">
<path d="M27.616 17.2697C22.7353 17.2697 18.9217 20.9748 18.9217 25.9347C18.9217 30.8947 22.6389 34.5681 27.616 34.5681C32.5931 34.5681 36.375 30.8313 36.375 25.903C36.375 21.0064 32.6577 17.2697 27.616 17.2697ZM27.6489 30.9936C24.8695 30.9936 22.8328 28.8349 22.8328 25.936C22.8328 23.0041 24.8366 20.8467 27.616 20.8467C30.4283 20.8467 32.4638 23.037 32.4638 25.936C32.4638 28.8349 30.4283 30.9936 27.6489 30.9936ZM37.4409 21.0394H39.8652V34.2474H43.7435V17.5917H37.4409V21.0394ZM9.16141 20.8455C11.1981 20.8455 12.814 22.1016 13.4275 23.97H17.5326C16.7886 19.9759 13.4921 17.2697 9.19434 17.2697C4.3136 17.2697 0.5 20.9748 0.5 25.936C0.5 30.8972 4.21726 34.5693 9.19434 34.5693C13.3958 34.5693 16.7569 31.8631 17.5008 27.8361H13.4275C12.8457 29.7045 11.2298 30.9936 9.19314 30.9936C6.38079 30.9936 4.40994 28.8349 4.40994 25.936C4.41117 23.0041 6.3503 20.8455 9.16141 20.8455ZM111.13 24.3249L108.286 23.9066C106.929 23.7139 105.959 23.2627 105.959 22.1992C105.959 21.0394 107.22 20.4601 108.932 20.4601C110.807 20.4601 112.003 21.265 112.262 22.5858H116.011C115.59 19.2356 113.004 17.2709 109.03 17.2709C104.925 17.2709 102.21 19.3649 102.21 22.3285C102.21 25.1628 103.988 26.8068 107.575 27.3214L110.419 27.7397C111.809 27.9324 112.585 28.4812 112.585 29.5117C112.585 30.8326 111.228 31.3801 109.353 31.3801C107.058 31.3801 105.765 30.4459 105.571 29.0288H101.757C102.114 32.2826 104.666 34.5693 109.32 34.5693C113.555 34.5693 116.366 32.6363 116.366 29.3178C116.366 26.3543 114.33 24.8079 111.13 24.3249ZM41.8044 10.7303C40.3824 10.7303 39.3155 11.7609 39.3155 13.178C39.3155 14.5951 40.3812 15.6257 41.8044 15.6257C43.2264 15.6257 44.2936 14.5951 44.2936 13.178C44.2936 11.7609 43.2264 10.7303 41.8044 10.7303ZM98.7196 23.2944C98.7196 19.6869 96.5221 17.2709 91.868 17.2709C87.4726 17.2709 85.0163 19.4942 84.5311 22.909H88.3775C88.5714 21.5882 89.6056 20.493 91.8035 20.493C93.7756 20.493 94.745 21.3625 94.745 22.426C94.745 23.8115 92.9667 24.1651 90.7692 24.3908C87.7959 24.7127 84.1115 25.7433 84.1115 29.6093C84.1115 32.6058 86.342 34.5376 89.8974 34.5376C92.6765 34.5376 94.4217 33.3778 95.2951 31.5411C95.4245 33.1839 96.6526 34.2474 98.366 34.2474H100.628V30.8008H98.7207V23.2944H98.7196ZM94.9059 27.4824C94.9059 29.7057 92.9667 31.3484 90.6069 31.3484C89.1522 31.3484 87.9241 30.7362 87.9241 29.4483C87.9241 27.8056 89.8959 27.3543 91.706 27.1617C93.4512 27.0007 94.4206 26.614 94.9059 25.8726V27.4824ZM74.3184 17.2697C72.1524 17.2697 70.3426 18.1722 69.05 19.6857V10.5693H65.1717V34.2474H68.9851V32.057C70.2777 33.6351 72.1209 34.5693 74.3184 34.5693C78.9721 34.5693 82.4956 30.8972 82.4956 25.936C82.4956 20.9748 78.9076 17.2697 74.3184 17.2697ZM73.7367 30.9936C70.9572 30.9936 68.9206 28.8349 68.9206 25.936C68.9206 23.037 70.9891 20.8467 73.7682 20.8467C76.5807 20.8467 78.5514 23.0053 78.5514 25.936C78.5514 28.8349 76.5159 30.9936 73.7367 30.9936ZM55.8954 17.2697C53.3746 17.2697 51.7257 18.3002 50.7564 19.7503V17.5917H46.9096V34.2462H50.7879V25.1945C50.7879 22.6492 52.4037 20.8455 54.7955 20.8455C57.026 20.8455 58.415 22.4236 58.415 24.7115V34.2474H62.2932V24.4225C62.2947 20.2332 60.1299 17.2697 55.8954 17.2697ZM134.853 25.3884C134.853 20.6211 131.363 17.2709 126.676 17.2709C121.699 17.2709 118.046 21.0077 118.046 25.936C118.046 31.1228 121.957 34.5693 126.741 34.5693C130.781 34.5693 133.948 32.1851 134.756 28.8032H130.715C130.133 30.285 128.711 31.1228 126.804 31.1228C124.315 31.1228 122.44 29.5764 122.021 26.8702H134.852V25.3884H134.853ZM122.247 24.0993C122.862 21.7797 124.607 20.6528 126.611 20.6528C128.809 20.6528 130.49 21.9089 130.877 24.0993H122.247Z" fill="#0052FF"/>
</g>
<defs>
<clipPath id="clip0_170_1818">
<rect width="135" height="48" fill="white" transform="translate(0.5 0.569336)"/>
</clipPath>
</defs>
</svg>
