<svg width="73" height="49" viewBox="0 0 73 49" fill="none" xmlns="http://www.w3.org/2000/svg">
<g clip-path="url(#clip0_170_1821)">
<path d="M4.64324 29.424C4.94757 30.2316 5.3689 30.9222 5.90732 31.4956C6.44573 32.0692 7.0836 32.5081 7.82091 32.8124C8.5583 33.1167 9.36002 33.2688 10.2261 33.2688C11.0689 33.2688 11.8589 33.1108 12.5963 32.7948C13.3337 32.4787 13.9773 32.034 14.5274 31.4605C15.0775 30.887 15.5047 30.2023 15.809 29.4065C16.1134 28.6106 16.2655 27.7211 16.2655 26.7379V11.5693H19.9523V36.148H16.3006V33.8657C15.4813 34.7317 14.5157 35.3989 13.4038 35.8671C12.2919 36.3352 11.0923 36.5693 9.80481 36.5693C8.49389 36.5693 7.27084 36.3411 6.1355 35.8846C5.00024 35.4282 4.01703 34.7787 3.1861 33.9359C2.35517 33.0932 1.69967 32.0809 1.21983 30.8987C0.739918 29.7166 0.5 28.3999 0.5 26.9485V11.5693H4.18679V26.7379C4.18679 27.7211 4.33892 28.6164 4.64324 29.424Z" fill="#010202"/>
<path d="M26.3073 11.5693V20.523C27.1266 19.7037 28.0747 19.0542 29.1514 18.5743C30.2282 18.0944 31.3987 17.8544 32.6626 17.8544C33.9736 17.8544 35.2024 18.1002 36.3494 18.5917C37.4964 19.0833 38.4912 19.7505 39.334 20.5932C40.1767 21.436 40.8439 22.4307 41.3354 23.5777C41.827 24.7248 42.0727 25.942 42.0727 27.2295C42.0727 28.5169 41.827 29.7283 41.3354 30.8635C40.8439 31.9989 40.1767 32.9879 39.334 33.8305C38.4912 34.6732 37.4964 35.3404 36.3494 35.8319C35.2024 36.3235 33.9735 36.5693 32.6626 36.5693C31.3986 36.5693 30.2224 36.3293 29.1339 35.8494C28.0454 35.3696 27.0915 34.72 26.2722 33.9007V36.1479H22.761V11.5693H26.3073ZM26.7111 29.6522C27.0271 30.4013 27.466 31.0567 28.0278 31.6185C28.5896 32.1803 29.2451 32.6251 29.9941 32.9529C30.7432 33.2806 31.5508 33.4444 32.4169 33.4444C33.2596 33.4444 34.0555 33.2806 34.8045 32.9529C35.5536 32.6251 36.2031 32.1804 36.7533 31.6185C37.3034 31.0568 37.7423 30.4013 38.07 29.6522C38.3977 28.9032 38.5615 28.0956 38.5615 27.2295C38.5615 26.3634 38.3977 25.5499 38.07 24.7891C37.7423 24.0284 37.3034 23.3671 36.7533 22.8053C36.2031 22.2436 35.5536 21.8046 34.8045 21.4886C34.0554 21.1726 33.2596 21.0145 32.4169 21.0145C31.5742 21.0145 30.7783 21.1726 30.0293 21.4886C29.2803 21.8047 28.6248 22.2436 28.063 22.8053C27.5012 23.3671 27.0564 24.0284 26.7287 24.7891C26.401 25.5499 26.2372 26.3634 26.2372 27.2295C26.2371 28.0956 26.3951 28.9032 26.7111 29.6522Z" fill="#010202"/>
<path d="M44.0737 23.6129C44.5418 22.4893 45.1856 21.5003 46.0048 20.6459C46.8241 19.7915 47.7956 19.1185 48.9192 18.627C50.0428 18.1354 51.26 17.8896 52.5709 17.8896C53.8583 17.8896 55.0522 18.1237 56.1524 18.5918C57.2525 19.06 58.2006 19.7096 58.9965 20.5406C59.7923 21.3716 60.4127 22.3548 60.8574 23.49C61.3022 24.6254 61.5245 25.8602 61.5245 27.1945V28.3532H46.9529C47.07 29.0788 47.3041 29.7518 47.6552 30.372C48.0064 30.9924 48.4452 31.5308 48.9719 31.9872C49.4986 32.4437 50.0955 32.8007 50.7626 33.0581C51.4298 33.3156 52.1378 33.4444 52.8869 33.4444C55.0171 33.4444 56.7377 32.5666 58.0485 30.8109L60.6117 32.707C59.7222 33.9008 58.622 34.8372 57.3112 35.516C56.0003 36.1948 54.5256 36.5342 52.887 36.5342C51.5527 36.5342 50.3063 36.3001 49.1476 35.832C47.9888 35.3639 46.9823 34.7084 46.1279 33.8656C45.2735 33.0229 44.6005 32.0339 44.109 30.8987C43.6174 29.7634 43.3716 28.5285 43.3716 27.1943C43.3714 25.9303 43.6056 24.7365 44.0737 23.6129ZM49.007 22.2259C48.0121 23.0569 47.3509 24.1629 47.0232 25.544H57.9432C57.6388 24.1629 56.9892 23.0569 55.9944 22.2259C54.9995 21.3949 53.835 20.9794 52.5007 20.9794C51.1664 20.9794 50.0019 21.3949 49.007 22.2259Z" fill="#010202"/>
<path d="M68.1607 22.6297C67.4117 23.449 67.0371 24.5609 67.0371 25.9654V36.1481H63.4907V18.2407H67.0019V20.4528C67.4467 19.7272 68.0261 19.1536 68.74 18.7323C69.4539 18.3109 70.3025 18.1002 71.2857 18.1002H72.5146V21.4008H71.0399C69.8695 21.4008 68.9097 21.8104 68.1607 22.6297Z" fill="#010202"/>
</g>
<defs>
<clipPath id="clip0_170_1821">
<rect width="72" height="48" fill="white" transform="translate(0.5 0.569336)"/>
</clipPath>
</defs>
</svg>
