<svg width="143" height="49" viewBox="0 0 143 49" fill="none" xmlns="http://www.w3.org/2000/svg">
<path d="M53.2123 13.3408H45.3371C44.7982 13.3408 44.3399 13.7323 44.2559 14.2643L41.0708 34.4585C41.0074 34.8569 41.316 35.2162 41.7202 35.2162H45.4799C46.0188 35.2162 46.4771 34.8246 46.5612 34.2915L47.4202 28.8448C47.5031 28.3117 47.9626 27.9202 48.5003 27.9202H50.9934C56.1809 27.9202 59.1749 25.4099 59.9568 20.4353C60.3091 18.2589 59.9717 16.5489 58.9526 15.3514C57.8334 14.0363 55.8482 13.3408 53.2123 13.3408ZM54.1209 20.7163C53.6902 23.5421 51.5311 23.5421 49.4434 23.5421H48.2551L49.0888 18.2647C49.1383 17.9457 49.4146 17.7108 49.7371 17.7108H50.2817C51.7039 17.7108 53.0454 17.7108 53.7386 18.5215C54.152 19.0051 54.2786 19.7237 54.1209 20.7163Z" fill="#253B80"/>
<path d="M76.7529 20.6253H72.9817C72.6605 20.6253 72.3829 20.8602 72.3334 21.1792L72.1665 22.234L71.9028 21.8517C71.0863 20.6668 69.2658 20.2706 67.4487 20.2706C63.2814 20.2706 59.722 23.4269 59.0288 27.8545C58.6684 30.0631 59.1808 32.175 60.4337 33.6478C61.5829 35.002 63.2273 35.5662 65.1837 35.5662C68.5415 35.5662 70.4035 33.4071 70.4035 33.4071L70.2354 34.455C70.172 34.8557 70.4806 35.215 70.8825 35.215H74.2795C74.8195 35.215 75.2756 34.8235 75.3608 34.2903L77.3989 21.383C77.4634 20.9857 77.156 20.6253 76.7529 20.6253ZM71.4963 27.9651C71.1324 30.1195 69.4224 31.5658 67.2414 31.5658C66.1463 31.5658 65.2712 31.2146 64.7093 30.5491C64.1519 29.8881 63.94 28.9473 64.1174 27.8994C64.4571 25.7634 66.1959 24.2698 68.3434 24.2698C69.4143 24.2698 70.2849 24.6257 70.8583 25.297C71.4329 25.9752 71.6609 26.9218 71.4963 27.9651Z" fill="#253B80"/>
<path d="M96.8376 20.6252H93.048C92.6864 20.6252 92.3467 20.8049 92.1417 21.1054L86.915 28.8045L84.6995 21.406C84.5602 20.9431 84.133 20.6252 83.6493 20.6252H79.9253C79.4728 20.6252 79.1584 21.0674 79.3023 21.4935L83.4766 33.7433L79.5522 39.2832C79.2436 39.7197 79.5545 40.3196 80.0877 40.3196H83.8727C84.232 40.3196 84.5682 40.1446 84.772 39.8498L97.3765 21.6559C97.6782 21.2206 97.3685 20.6252 96.8376 20.6252Z" fill="#253B80"/>
<path d="M109.384 13.3411H101.508C100.97 13.3411 100.512 13.7326 100.428 14.2646L97.2426 34.4587C97.1793 34.8571 97.4879 35.2164 97.8898 35.2164H101.932C102.307 35.2164 102.628 34.9423 102.687 34.5692L103.591 28.8451C103.674 28.3119 104.133 27.9204 104.671 27.9204H107.163C112.352 27.9204 115.344 25.4101 116.127 20.4355C116.481 18.2592 116.141 16.5492 115.122 15.3516C114.004 14.0366 112.02 13.3411 109.384 13.3411ZM110.293 20.7165C109.863 23.5423 107.704 23.5423 105.615 23.5423H104.428L105.263 18.2649C105.312 17.946 105.587 17.7111 105.91 17.7111H106.455C107.876 17.7111 109.218 17.7111 109.912 18.5217C110.325 19.0054 110.451 19.7239 110.293 20.7165Z" fill="#179BD7"/>
<path d="M132.924 20.6255H129.155C128.831 20.6255 128.556 20.8604 128.507 21.1794L128.341 22.2342L128.076 21.8519C127.259 20.667 125.44 20.2709 123.623 20.2709C119.455 20.2709 115.897 23.4272 115.204 27.8548C114.845 30.0634 115.355 32.1752 116.608 33.648C117.759 35.0022 119.401 35.5664 121.358 35.5664C124.716 35.5664 126.578 33.4074 126.578 33.4074L126.409 34.4552C126.346 34.856 126.655 35.2152 127.059 35.2152H130.455C130.992 35.2152 131.451 34.8237 131.535 34.2906L133.574 21.3832C133.636 20.986 133.328 20.6255 132.924 20.6255ZM127.667 27.9653C127.305 30.1198 125.593 31.5661 123.412 31.5661C122.319 31.5661 121.442 31.2149 120.88 30.5493C120.323 29.8883 120.113 28.9475 120.288 27.8997C120.63 25.7636 122.366 24.2701 124.514 24.2701C125.585 24.2701 126.456 24.6259 127.029 25.2972C127.606 25.9755 127.834 26.922 127.667 27.9653Z" fill="#179BD7"/>
<path d="M137.369 13.8949L134.137 34.4586C134.074 34.8571 134.382 35.2163 134.784 35.2163H138.034C138.574 35.2163 139.032 34.8248 139.115 34.2917L142.303 14.0987C142.366 13.7003 142.057 13.3398 141.655 13.3398H138.017C137.695 13.341 137.419 13.5759 137.369 13.8949Z" fill="#179BD7"/>
<path d="M8.36683 39.1407L8.96907 35.3153L7.62756 35.2842H1.22168L5.67344 7.05714C5.68725 6.97193 5.73216 6.89247 5.7978 6.83605C5.86344 6.77963 5.9475 6.74854 6.03501 6.74854H16.8362C20.422 6.74854 22.8966 7.49472 24.1886 8.9675C24.7943 9.65841 25.1801 10.3804 25.3666 11.175C25.5624 12.0087 25.5659 13.0047 25.3747 14.2196L25.3609 14.3082V15.0867L25.9666 15.4298C26.4767 15.7004 26.882 16.0102 27.1929 16.3648C27.7111 16.9556 28.0462 17.7064 28.1879 18.5965C28.3341 19.5119 28.2857 20.6013 28.0462 21.8345C27.7699 23.2532 27.3231 24.4888 26.7197 25.4998C26.1646 26.4314 25.4576 27.2041 24.6182 27.8028C23.8167 28.3717 22.8644 28.8035 21.7877 29.0799C20.7445 29.3516 19.555 29.4887 18.2503 29.4887H17.4097C16.8086 29.4887 16.2248 29.7051 15.7665 30.0932C15.307 30.4893 15.003 31.0305 14.9097 31.6224L14.8464 31.9667L13.7824 38.7088L13.734 38.9564C13.7214 39.0347 13.6995 39.0739 13.6673 39.1004C13.6385 39.1245 13.597 39.1407 13.5567 39.1407H8.36683Z" fill="#253B80"/>
<path d="M26.5401 14.3979C26.5079 14.6041 26.471 14.8148 26.4296 15.0313C25.0052 22.3446 20.132 24.871 13.908 24.871H10.739C9.9779 24.871 9.3365 25.4237 9.2179 26.1745L7.59541 36.4644L7.13596 39.3812C7.0588 39.8741 7.4388 40.3186 7.93626 40.3186H13.5568C14.2224 40.3186 14.7878 39.8349 14.8926 39.1786L14.9478 38.893L16.0061 32.1773L16.074 31.8089C16.1777 31.1502 16.7442 30.6666 17.4098 30.6666H18.2504C23.6959 30.6666 27.9588 28.4556 29.2047 22.0578C29.7252 19.3852 29.4558 17.1535 28.0786 15.584C27.6617 15.1107 27.1447 14.7181 26.5401 14.3979Z" fill="#179BD7"/>
<path d="M25.05 13.8038C24.8323 13.7404 24.6078 13.6828 24.3775 13.631C24.146 13.5804 23.9088 13.5355 23.6647 13.4963C22.8103 13.3581 21.8741 13.2925 20.8711 13.2925H12.4052C12.1967 13.2925 11.9987 13.3397 11.8213 13.4249C11.431 13.6126 11.1408 13.9822 11.0706 14.4348L9.26959 25.8417L9.21777 26.1745C9.33638 25.4237 9.97777 24.871 10.7389 24.871H13.9079C20.1318 24.871 25.005 22.3434 26.4295 15.0313C26.4721 14.8148 26.5078 14.6041 26.54 14.3979C26.1796 14.2068 25.7892 14.0433 25.3689 13.9039C25.2653 13.8694 25.1582 13.836 25.05 13.8038Z" fill="#222D65"/>
<path d="M11.0707 14.4349C11.1409 13.9823 11.4311 13.6127 11.8214 13.4261C11.9999 13.3409 12.1968 13.2937 12.4053 13.2937H20.8712C21.8742 13.2937 22.8103 13.3593 23.6648 13.4975C23.9089 13.5367 24.1461 13.5816 24.3776 13.6322C24.6079 13.6841 24.8324 13.7416 25.05 13.805C25.1583 13.8372 25.2654 13.8706 25.3702 13.904C25.7905 14.0433 26.1808 14.208 26.5413 14.398C26.965 11.6954 26.5378 9.85528 25.0765 8.18903C23.4656 6.35467 20.558 5.56934 16.8374 5.56934H6.03623C5.27623 5.56934 4.62793 6.12206 4.51047 6.874L0.0115023 35.3913C-0.0771644 35.9555 0.358108 36.4645 0.926957 36.4645H7.59538L9.26968 25.8418L11.0707 14.4349Z" fill="#253B80"/>
</svg>
