<svg width="111" height="49" viewBox="0 0 111 49" fill="none" xmlns="http://www.w3.org/2000/svg">
<g clip-path="url(#clip0_170_1837)">
<path d="M15.2636 38.6356C13.5938 38.9289 11.8945 39.0168 10.1368 39.2509L4.77531 23.5479V39.9249C3.10546 40.1006 1.58205 40.335 0 40.5693V10.5693H4.45325L10.5469 27.5911V10.5693H15.2636V38.6356ZM24.4922 21.5557C26.3087 21.5557 29.0919 21.4678 30.7618 21.4678V26.1552C28.6816 26.1552 26.2501 26.1552 24.4922 26.2431V33.2158C27.2462 33.0401 30.0001 32.8055 32.7832 32.7176V37.2291L19.8046 38.2547V10.5693H32.7832V15.2568H24.4922V21.5557ZM50.2148 15.257H45.3516V36.8194C43.7695 36.8194 42.1875 36.8194 40.6643 36.8778V15.257H35.801V10.5693H50.215L50.2148 15.257ZM57.8319 21.2335H64.248V25.9209H57.8319V36.5558H53.232V10.5693H66.3281V15.2568H57.8319V21.2335ZM73.9452 32.4541C76.6113 32.5125 79.3065 32.7179 81.914 32.8642V37.4932C77.7246 37.2293 73.5351 36.966 69.2578 36.8778V10.5693H73.9452V32.4541ZM85.869 37.8154C87.3632 37.9035 88.9452 37.9914 90.4686 38.1669V10.5693H85.869V37.8154ZM111.006 10.5693L105.059 24.837L111.006 40.5693C109.248 40.335 107.49 40.0127 105.732 39.7197L102.363 31.048L98.9359 39.0168C97.2363 38.7235 95.5957 38.6356 93.8968 38.4013L99.9319 24.661L94.4825 10.5693H99.5214L102.598 18.4502L105.879 10.5693H111.006V10.5693Z" fill="#D81F26"/>
</g>
<defs>
<clipPath id="clip0_170_1837">
<rect width="111" height="48" fill="white" transform="translate(0 0.569336)"/>
</clipPath>
</defs>
</svg>
