<svg width="114" height="49" viewBox="0 0 114 49" fill="none" xmlns="http://www.w3.org/2000/svg">
<g clip-path="url(#clip0_170_1810)">
<path d="M48.7375 26.2195C48.7375 31.5427 44.5732 35.4653 39.4625 35.4653C34.3519 35.4653 30.1875 31.5427 30.1875 26.2195C30.1875 20.8587 34.3519 16.9736 39.4625 16.9736C44.5732 16.9736 48.7375 20.8587 48.7375 26.2195ZM44.6774 26.2195C44.6774 22.893 42.2638 20.6169 39.4625 20.6169C36.6613 20.6169 34.2477 22.893 34.2477 26.2195C34.2477 29.5126 36.6613 31.822 39.4625 31.822C42.2638 31.822 44.6774 29.5085 44.6774 26.2195Z" fill="#EA4335"/>
<path d="M68.7473 26.2195C68.7473 31.5427 64.5829 35.4653 59.4723 35.4653C54.3616 35.4653 50.1973 31.5427 50.1973 26.2195C50.1973 20.8629 54.3616 16.9736 59.4723 16.9736C64.5829 16.9736 68.7473 20.8587 68.7473 26.2195ZM64.6871 26.2195C64.6871 22.893 62.2736 20.6169 59.4723 20.6169C56.671 20.6169 54.2574 22.893 54.2574 26.2195C54.2574 29.5126 56.671 31.822 59.4723 31.822C62.2736 31.822 64.6871 29.5085 64.6871 26.2195Z" fill="#FBBC05"/>
<path d="M87.9219 17.5322V34.1314C87.9219 40.9595 83.8951 43.7482 79.1346 43.7482C74.6534 43.7482 71.9564 40.751 70.9393 38.2999L74.4742 36.8284C75.1037 38.3333 76.646 40.1091 79.1305 40.1091C82.1777 40.1091 84.066 38.2291 84.066 34.69V33.3602H83.9243C83.0156 34.4815 81.2648 35.4611 79.0554 35.4611C74.4325 35.4611 70.1973 31.4343 70.1973 26.2528C70.1973 21.0338 74.4325 16.9736 79.0554 16.9736C81.2606 16.9736 83.0114 17.9532 83.9243 19.0412H84.066V17.5364H87.9219V17.5322ZM84.3537 26.2528C84.3537 22.9972 82.1818 20.6169 79.4181 20.6169C76.6168 20.6169 74.2699 22.9972 74.2699 26.2528C74.2699 29.4751 76.6168 31.822 79.4181 31.822C82.1818 31.822 84.3537 29.4751 84.3537 26.2528Z" fill="#4285F4"/>
<path d="M94.2795 7.80273V34.8983H90.3193V7.80273H94.2795Z" fill="#34A853"/>
<path d="M109.711 29.2628L112.863 31.3637C111.846 32.8686 109.395 35.4614 105.159 35.4614C99.907 35.4614 95.9844 31.4012 95.9844 26.2156C95.9844 20.7172 99.9403 16.9697 104.705 16.9697C109.503 16.9697 111.85 20.7881 112.617 22.8515L113.038 23.902L100.678 29.021C101.624 30.876 103.096 31.8223 105.159 31.8223C107.227 31.8223 108.661 30.8051 109.711 29.2628ZM100.011 25.9363L108.273 22.5056C107.819 21.3509 106.452 20.5463 104.843 20.5463C102.779 20.5463 99.907 22.368 100.011 25.9363Z" fill="#EA4335"/>
<path d="M15.1975 23.8141V19.8915H28.4159C28.5451 20.5751 28.6118 21.3838 28.6118 22.2592C28.6118 25.2022 27.8073 28.8413 25.2145 31.4342C22.6925 34.0604 19.4702 35.461 15.2016 35.461C7.28972 35.461 0.636719 29.0164 0.636719 21.1045C0.636719 13.1926 7.28972 6.74805 15.2016 6.74805C19.5786 6.74805 22.6967 8.46549 25.0394 10.704L22.2715 13.4719C20.5916 11.8962 18.3155 10.6707 15.1975 10.6707C9.41985 10.6707 4.90114 15.3269 4.90114 21.1045C4.90114 26.8821 9.41985 31.5384 15.1975 31.5384C18.945 31.5384 21.0793 30.0336 22.4466 28.6663C23.5554 27.5574 24.2849 25.9734 24.5725 23.8099L15.1975 23.8141Z" fill="#4285F4"/>
</g>
<defs>
<clipPath id="clip0_170_1810">
<rect width="113" height="48" fill="white" transform="translate(0.5 0.569336)"/>
</clipPath>
</defs>
</svg>
