<svg width="80" height="49" viewBox="0 0 80 49" fill="none" xmlns="http://www.w3.org/2000/svg">
<path fill-rule="evenodd" clip-rule="evenodd" d="M79.3058 26.3862C79.3058 20.7467 76.5741 16.2968 71.3532 16.2968C66.1102 16.2968 62.938 20.7467 62.938 26.3422C62.938 32.973 66.6829 36.3215 72.0581 36.3215C74.6796 36.3215 76.6622 35.7267 78.1602 34.8896V30.4837C76.6622 31.2327 74.9439 31.6953 72.763 31.6953C70.6262 31.6953 68.7317 30.9463 68.4893 28.3468H79.2617C79.2617 28.0605 79.3058 26.9149 79.3058 26.3862ZM68.4233 24.2934C68.4233 21.8041 69.9433 20.7687 71.3311 20.7687C72.6749 20.7687 74.1068 21.8041 74.1068 24.2934H68.4233Z" fill="#635BFF"/>
<path fill-rule="evenodd" clip-rule="evenodd" d="M54.4345 16.2968C52.2756 16.2968 50.8877 17.3101 50.1167 18.0151L49.8303 16.6492H44.9839V42.3354L50.4912 41.1679L50.5132 34.9336C51.3063 35.5064 52.4739 36.3214 54.4124 36.3214C58.3557 36.3214 61.9465 33.1492 61.9465 26.1659C61.9244 19.7774 58.2896 16.2968 54.4345 16.2968ZM53.1127 31.475C51.813 31.475 51.0419 31.0124 50.5132 30.4396L50.4912 22.2667C51.064 21.6279 51.857 21.1873 53.1127 21.1873C55.1174 21.1873 56.5052 23.4343 56.5052 26.3201C56.5052 29.272 55.1394 31.475 53.1127 31.475Z" fill="#635BFF"/>
<path fill-rule="evenodd" clip-rule="evenodd" d="M37.4057 14.997L42.935 13.8074V9.33545L37.4057 10.503V14.997Z" fill="#635BFF"/>
<path d="M42.935 16.6712H37.4057V35.9469H42.935V16.6712Z" fill="#635BFF"/>
<path fill-rule="evenodd" clip-rule="evenodd" d="M31.4795 18.3014L31.1271 16.6712H26.3687V35.9469H31.8761V22.8835C33.1758 21.1872 35.3787 21.4957 36.0616 21.738V16.6712C35.3567 16.4069 32.7793 15.9222 31.4795 18.3014Z" fill="#635BFF"/>
<path fill-rule="evenodd" clip-rule="evenodd" d="M20.465 11.8908L15.0899 13.0364L15.0679 30.6819C15.0679 33.9422 17.5131 36.3434 20.7735 36.3434C22.5799 36.3434 23.9016 36.013 24.6286 35.6164V31.1445C23.9237 31.4309 20.443 32.4442 20.443 29.1839V21.3634H24.6286V16.6712H20.443L20.465 11.8908Z" fill="#635BFF"/>
<path fill-rule="evenodd" clip-rule="evenodd" d="M5.57342 22.2667C5.57342 21.4076 6.27836 21.0772 7.44592 21.0772C9.12015 21.0772 11.235 21.5838 12.9092 22.487V17.3101C11.0808 16.5832 9.27435 16.2968 7.44592 16.2968C2.97396 16.2968 0 18.6319 0 22.5311C0 28.6112 8.37115 27.6419 8.37115 30.2634C8.37115 31.2767 7.48998 31.6072 6.25633 31.6072C4.4279 31.6072 2.09279 30.8582 0.242322 29.8448V35.0878C2.29105 35.969 4.36181 36.3435 6.25633 36.3435C10.8384 36.3435 13.9886 34.0745 13.9886 30.1312C13.9666 23.5665 5.57342 24.734 5.57342 22.2667Z" fill="#635BFF"/>
</svg>
