<svg width="100" height="32" viewBox="0 0 100 32" fill="none" xmlns="http://www.w3.org/2000/svg">
<g clip-path="url(#clip0_111_1570)">
<g clip-path="url(#clip1_111_1570)">
<g clip-path="url(#clip2_111_1570)">
<path d="M15.4538 0.281982C6.93041 0.281982 0.0205078 7.19804 0.0205078 15.7293C0.0205078 24.2609 6.93041 31.1764 15.4538 31.1764C23.9781 31.1764 30.8873 24.2609 30.8873 15.7293C30.8873 7.1986 23.9783 0.281982 15.4538 0.281982ZM22.5313 22.5614C22.2549 23.0151 21.6615 23.159 21.2081 22.8805C17.5846 20.6651 13.0229 20.1634 7.6508 21.3919C7.13312 21.5099 6.6171 21.1853 6.49916 20.667C6.38066 20.1486 6.70372 19.6321 7.22269 19.5141C13.1016 18.1697 18.1445 18.7486 22.2126 21.237C22.6659 21.5155 22.8096 22.1076 22.5313 22.5614ZM24.4204 18.3553C24.0721 18.922 23.3312 19.1008 22.7654 18.7523C18.617 16.2001 12.2933 15.4609 7.38652 16.9517C6.75017 17.1441 6.07805 16.7852 5.88491 16.1493C5.69324 15.5123 6.05206 14.8409 6.68732 14.6472C12.2922 12.945 19.2601 13.7696 24.0242 16.6997C24.5899 17.0483 24.7687 17.7897 24.4204 18.3553ZM24.5826 13.9754C19.6085 11.0182 11.4019 10.7464 6.65286 12.189C5.89026 12.4205 5.08378 11.9896 4.85268 11.2264C4.62158 10.4626 5.05171 9.65601 5.81487 9.42396C11.2664 7.76748 20.3291 8.08753 26.0558 11.4903C26.7433 11.8978 26.968 12.7845 26.5608 13.4702C26.1553 14.1567 25.2663 14.3831 24.5826 13.9754ZM42.0094 14.542C39.3445 13.9061 38.8708 13.4596 38.8708 12.5217C38.8708 11.6355 39.7038 11.0391 40.9441 11.0391C42.1458 11.0391 43.3363 11.492 44.5857 12.4242C44.6227 12.4525 44.6706 12.4637 44.7166 12.4564C44.7646 12.4493 44.8051 12.4237 44.8328 12.3851L46.1338 10.5493C46.1873 10.4737 46.1725 10.3695 46.1007 10.3118C44.6135 9.11775 42.94 8.53725 40.9829 8.53725C38.1061 8.53725 36.0954 10.2655 36.0954 12.7382C36.0954 15.3899 37.8295 16.3288 40.8262 17.0536C43.375 17.6414 43.8062 18.1339 43.8062 19.0141C43.8062 19.99 42.9363 20.5968 41.5357 20.5968C39.9802 20.5968 38.7105 20.0711 37.2915 18.8426C37.2564 18.8112 37.2085 18.7984 37.1643 18.8002C37.1164 18.8039 37.074 18.826 37.0445 18.861L35.5849 20.5987C35.5241 20.6725 35.5315 20.7795 35.6015 20.8422C37.2528 22.3179 39.2837 23.0963 41.4767 23.0963C44.5765 23.0963 46.5799 21.4012 46.5799 18.7762C46.5853 16.5614 45.2603 15.3347 42.0148 14.5445L42.0094 14.542ZM53.5941 11.9116C52.2506 11.9116 51.1485 12.4414 50.238 13.527V12.305C50.238 12.2086 50.1607 12.1301 50.0648 12.1301H47.6782C47.5824 12.1301 47.505 12.2086 47.505 12.305V25.8818C47.505 25.9777 47.5824 26.0569 47.6782 26.0569H50.0648C50.1607 26.0569 50.238 25.9777 50.238 25.8818V21.5966C51.1485 22.6167 52.2506 23.1166 53.5941 23.1166C56.0913 23.1166 58.6197 21.1927 58.6197 17.5147C58.6234 13.836 56.0949 11.9114 53.5959 11.9114L53.5941 11.9116ZM55.8442 17.5147C55.8442 19.3867 54.6924 20.6946 53.0411 20.6946C51.4101 20.6946 50.1791 19.3278 50.1791 17.5147C50.1791 15.7014 51.4101 14.3349 53.0411 14.3349C54.6648 14.3347 55.8442 15.6719 55.8442 17.5147ZM65.0976 11.9116C61.8817 11.9116 59.3624 14.3901 59.3624 17.5547C59.3624 20.6854 61.8651 23.137 65.0589 23.137C68.2859 23.137 70.8126 20.667 70.8126 17.5147C70.8126 14.3731 68.3025 11.9116 65.0976 11.9116ZM65.0976 20.7131C63.3873 20.7131 62.0974 19.337 62.0974 17.5138C62.0974 15.6822 63.3432 14.3532 65.0589 14.3532C66.7802 14.3532 68.0777 15.7287 68.0777 17.5537C68.0777 19.385 66.8244 20.7131 65.0976 20.7131ZM77.6793 12.1301H75.0532V9.44314C75.0532 9.34685 74.9758 9.26827 74.8799 9.26827H72.4933C72.3974 9.26827 72.3183 9.34685 72.3183 9.44314V12.1301H71.1719C71.0761 12.1301 70.9987 12.2086 70.9987 12.305V14.3576C70.9987 14.4538 71.0761 14.5326 71.1719 14.5326H72.3183V19.8443C72.3183 21.9895 73.3853 23.0779 75.4918 23.0779C76.3469 23.0779 77.0564 22.9008 77.7254 22.5208C77.7807 22.4913 77.8139 22.4323 77.8139 22.3696V20.4142C77.8139 20.3553 77.7825 20.2981 77.731 20.2667C77.6793 20.2335 77.6148 20.2316 77.5613 20.2593C77.1025 20.4899 76.6583 20.5968 76.1607 20.5968C75.3959 20.5968 75.0532 20.2483 75.0532 19.4698V14.5336H77.6793C77.7751 14.5336 77.8526 14.455 77.8526 14.3585V12.3062C77.8563 12.2097 77.7789 12.1312 77.6812 12.1312L77.6793 12.1301ZM86.8277 12.1406V11.8105C86.8277 10.8397 87.1999 10.4068 88.0329 10.4068C88.5305 10.4068 88.9305 10.5057 89.3783 10.655C89.4335 10.6725 89.4907 10.6637 89.5349 10.6307C89.581 10.5977 89.6068 10.5448 89.6068 10.4887V8.47618C89.6068 8.39927 89.5589 8.3312 89.4833 8.30851C89.0115 8.16777 88.407 8.02333 87.5003 8.02333C85.298 8.02333 84.1315 9.2655 84.1315 11.6142V12.1197H82.9851C82.8893 12.1197 82.8101 12.1983 82.8101 12.2945V14.3576C82.8101 14.4538 82.8893 14.5326 82.9851 14.5326H84.1315V22.7237C84.1315 22.8215 84.2107 22.899 84.3066 22.899H86.6913C86.789 22.899 86.8664 22.8215 86.8664 22.7237V14.5332H89.0945L92.5076 22.7237C92.1205 23.5833 91.7391 23.7548 91.2193 23.7548C90.7992 23.7548 90.355 23.6294 89.9035 23.3804C89.8611 23.3583 89.8095 23.3546 89.7653 23.3675C89.7193 23.3841 89.6806 23.4174 89.6621 23.4616L88.853 25.238C88.8143 25.3228 88.8475 25.4206 88.9286 25.4648C89.7727 25.9223 90.5338 26.1178 91.4756 26.1178C93.2374 26.1178 94.2122 25.2952 95.0692 23.0853L99.208 12.3796C99.2308 12.3257 99.2228 12.2649 99.1902 12.2171C99.1585 12.1696 99.1051 12.141 99.0477 12.141H96.5638C96.4883 12.141 96.422 12.1885 96.398 12.2584L93.8529 19.5325L91.0664 12.2536C91.0406 12.1859 90.9761 12.141 90.9042 12.141L86.8277 12.1406ZM81.5237 12.1301H79.1371C79.0412 12.1301 78.962 12.2086 78.962 12.305V22.7237C78.962 22.8215 79.0412 22.899 79.1371 22.899H81.5237C81.6196 22.899 81.6987 22.8215 81.6987 22.7237V12.3058C81.6987 12.2093 81.6213 12.1301 81.5237 12.1301ZM80.3442 7.38583C79.3988 7.38583 78.6321 8.15172 78.6321 9.09783C78.6321 10.0445 79.3988 10.8113 80.3442 10.8113C81.2896 10.8113 82.0544 10.0445 82.0544 9.09783C82.0544 8.1519 81.2878 7.38583 80.3442 7.38583Z" fill="#808080"/>
</g>
</g>
</g>
<defs>
<clipPath id="clip0_111_1570">
<rect width="100" height="31.67" fill="white" transform="translate(0 0.165039)"/>
</clipPath>
<clipPath id="clip1_111_1570">
<rect width="100" height="31.67" fill="white" transform="translate(0 0.165039)"/>
</clipPath>
<clipPath id="clip2_111_1570">
<rect width="99.9584" height="31.67" fill="white" transform="translate(0.0205078 0.165039)"/>
</clipPath>
</defs>
</svg>
